<svg width="360" height="210" xmlns="http://www.w3.org/2000/svg" version="1.1">
 <defs>
  <linearGradient y2="0" x2="1" y1="1" x1="0" id="svg_20">
   <stop offset="14%" stop-color="#002296"/>
   <stop offset="28%" stop-color="#82008f"/>
   <stop offset="42%" stop-color="#c0007a"/>
   <stop offset="56%" stop-color="#ea0c5f"/>
   <stop offset="70%" stop-color="#ff5341"/>
   <stop offset="84%" stop-color="#ff8820"/>
   <stop offset="100%" stop-color="#f6ba00"/>
  </linearGradient>
 </defs>
 <g>
  <title>Layer 1</title>
  <path transform="translate(285,390) scale(0.005) translate(-285,-390)" id="svg_1" d="m16,8.286c-7.546,0 -13.5,7.714 -13.5,7.714s5.954,7.715 13.5,7.715c5.771,0 13.5,-7.715 13.5,-7.715s-7.729,-7.714 -13.5,-7.714zm0,12.521c-2.649,0 -4.807,-2.157 -4.807,-4.807s2.158,-4.807 4.807,-4.807s4.807,2.158 4.807,4.807s-2.158,4.807 -4.807,4.807zm0,-7.613c-1.549,0 -2.806,1.256 -2.806,2.806c0,1.55 1.256,2.806 2.806,2.806c1.55,0 2.806,-1.256 2.806,-2.806c0,-1.549 -1.256,-2.806 -2.806,-2.806z" opacity="NaN" fill="url(#linear-gradient)"/>
  <path transform="translate(240,411) scale(0.005) translate(-240,-411)" id="svg_2" d="m16,8.286c-7.546,0 -13.5,7.714 -13.5,7.714s5.954,7.715 13.5,7.715c5.771,0 13.5,-7.715 13.5,-7.715s-7.729,-7.714 -13.5,-7.714zm0,12.521c-2.649,0 -4.807,-2.157 -4.807,-4.807s2.158,-4.807 4.807,-4.807s4.807,2.158 4.807,4.807s-2.158,4.807 -4.807,4.807zm0,-7.613c-1.549,0 -2.806,1.256 -2.806,2.806c0,1.55 1.256,2.806 2.806,2.806c1.55,0 2.806,-1.256 2.806,-2.806c0,-1.549 -1.256,-2.806 -2.806,-2.806z" opacity="NaN" fill="url(#linear-gradient)"/>
  <path transform="translate(199,418) scale(0.005) translate(-199,-418)" id="svg_3" d="m16,8.286c-7.546,0 -13.5,7.714 -13.5,7.714s5.954,7.715 13.5,7.715c5.771,0 13.5,-7.715 13.5,-7.715s-7.729,-7.714 -13.5,-7.714zm0,12.521c-2.649,0 -4.807,-2.157 -4.807,-4.807s2.158,-4.807 4.807,-4.807s4.807,2.158 4.807,4.807s-2.158,4.807 -4.807,4.807zm0,-7.613c-1.549,0 -2.806,1.256 -2.806,2.806c0,1.55 1.256,2.806 2.806,2.806c1.55,0 2.806,-1.256 2.806,-2.806c0,-1.549 -1.256,-2.806 -2.806,-2.806z" opacity="NaN" fill="url(#linear-gradient)"/>
  <path transform="translate(199,418) scale(0.005) translate(-199,-418)" id="svg_4" d="m16,8.286c-7.546,0 -13.5,7.714 -13.5,7.714s5.954,7.715 13.5,7.715c5.771,0 13.5,-7.715 13.5,-7.715s-7.729,-7.714 -13.5,-7.714zm0,12.521c-2.649,0 -4.807,-2.157 -4.807,-4.807s2.158,-4.807 4.807,-4.807s4.807,2.158 4.807,4.807s-2.158,4.807 -4.807,4.807zm0,-7.613c-1.549,0 -2.806,1.256 -2.806,2.806c0,1.55 1.256,2.806 2.806,2.806c1.55,0 2.806,-1.256 2.806,-2.806c0,-1.549 -1.256,-2.806 -2.806,-2.806z" opacity="NaN" fill="url(#linear-gradient)"/>
  <path transform="translate(286,488) scale(0.005) translate(-286,-488)" id="svg_5" d="m16,8.286c-7.546,0 -13.5,7.714 -13.5,7.714s5.954,7.715 13.5,7.715c5.771,0 13.5,-7.715 13.5,-7.715s-7.729,-7.714 -13.5,-7.714zm0,12.521c-2.649,0 -4.807,-2.157 -4.807,-4.807s2.158,-4.807 4.807,-4.807s4.807,2.158 4.807,4.807s-2.158,4.807 -4.807,4.807zm0,-7.613c-1.549,0 -2.806,1.256 -2.806,2.806c0,1.55 1.256,2.806 2.806,2.806c1.55,0 2.806,-1.256 2.806,-2.806c0,-1.549 -1.256,-2.806 -2.806,-2.806z" opacity="NaN" fill="url(#linear-gradient)"/>
  <path transform="translate(285,487) scale(0.005) translate(-285,-487)" id="svg_6" d="m16,8.286c-7.546,0 -13.5,7.714 -13.5,7.714s5.954,7.715 13.5,7.715c5.771,0 13.5,-7.715 13.5,-7.715s-7.729,-7.714 -13.5,-7.714zm0,12.521c-2.649,0 -4.807,-2.157 -4.807,-4.807s2.158,-4.807 4.807,-4.807s4.807,2.158 4.807,4.807s-2.158,4.807 -4.807,4.807zm0,-7.613c-1.549,0 -2.806,1.256 -2.806,2.806c0,1.55 1.256,2.806 2.806,2.806c1.55,0 2.806,-1.256 2.806,-2.806c0,-1.549 -1.256,-2.806 -2.806,-2.806z" opacity="NaN" fill="url(#linear-gradient)"/>
  <path transform="translate(285,487) scale(0.005) translate(-285,-487)" id="svg_7" d="m16,8.286c-7.546,0 -13.5,7.714 -13.5,7.714s5.954,7.715 13.5,7.715c5.771,0 13.5,-7.715 13.5,-7.715s-7.729,-7.714 -13.5,-7.714zm0,12.521c-2.649,0 -4.807,-2.157 -4.807,-4.807s2.158,-4.807 4.807,-4.807s4.807,2.158 4.807,4.807s-2.158,4.807 -4.807,4.807zm0,-7.613c-1.549,0 -2.806,1.256 -2.806,2.806c0,1.55 1.256,2.806 2.806,2.806c1.55,0 2.806,-1.256 2.806,-2.806c0,-1.549 -1.256,-2.806 -2.806,-2.806z" opacity="NaN" fill="url(#linear-gradient)"/>
  <path transform="translate(208,406) scale(0.005) translate(-208,-406)" id="svg_8" d="m16,8.286c-7.546,0 -13.5,7.714 -13.5,7.714s5.954,7.715 13.5,7.715c5.771,0 13.5,-7.715 13.5,-7.715s-7.729,-7.714 -13.5,-7.714zm0,12.521c-2.649,0 -4.807,-2.157 -4.807,-4.807s2.158,-4.807 4.807,-4.807s4.807,2.158 4.807,4.807s-2.158,4.807 -4.807,4.807zm0,-7.613c-1.549,0 -2.806,1.256 -2.806,2.806c0,1.55 1.256,2.806 2.806,2.806c1.55,0 2.806,-1.256 2.806,-2.806c0,-1.549 -1.256,-2.806 -2.806,-2.806z" opacity="NaN" fill="url(#linear-gradient)"/>
  <path transform="translate(169,226) scale(0.005) translate(-169,-226)" id="svg_9" d="m16,8.286c-7.546,0 -13.5,7.714 -13.5,7.714s5.954,7.715 13.5,7.715c5.771,0 13.5,-7.715 13.5,-7.715s-7.729,-7.714 -13.5,-7.714zm0,12.521c-2.649,0 -4.807,-2.157 -4.807,-4.807s2.158,-4.807 4.807,-4.807s4.807,2.158 4.807,4.807s-2.158,4.807 -4.807,4.807zm0,-7.613c-1.549,0 -2.806,1.256 -2.806,2.806c0,1.55 1.256,2.806 2.806,2.806c1.55,0 2.806,-1.256 2.806,-2.806c0,-1.549 -1.256,-2.806 -2.806,-2.806z" opacity="NaN" fill="url(#linear-gradient)"/>
  <path transform="translate(188,209) scale(0.005) translate(-188,-209)" id="svg_10" d="m16,8.286c-7.546,0 -13.5,7.714 -13.5,7.714s5.954,7.715 13.5,7.715c5.771,0 13.5,-7.715 13.5,-7.715s-7.729,-7.714 -13.5,-7.714zm0,12.521c-2.649,0 -4.807,-2.157 -4.807,-4.807s2.158,-4.807 4.807,-4.807s4.807,2.158 4.807,4.807s-2.158,4.807 -4.807,4.807zm0,-7.613c-1.549,0 -2.806,1.256 -2.806,2.806c0,1.55 1.256,2.806 2.806,2.806c1.55,0 2.806,-1.256 2.806,-2.806c0,-1.549 -1.256,-2.806 -2.806,-2.806z" opacity="NaN" fill="url(#linear-gradient)"/>
  <path transform="translate(196,427) scale(0.005) translate(-196,-427)" id="svg_11" d="m16,8.286c-7.546,0 -13.5,7.714 -13.5,7.714s5.954,7.715 13.5,7.715c5.771,0 13.5,-7.715 13.5,-7.715s-7.729,-7.714 -13.5,-7.714zm0,12.521c-2.649,0 -4.807,-2.157 -4.807,-4.807s2.158,-4.807 4.807,-4.807s4.807,2.158 4.807,4.807s-2.158,4.807 -4.807,4.807zm0,-7.613c-1.549,0 -2.806,1.256 -2.806,2.806c0,1.55 1.256,2.806 2.806,2.806c1.55,0 2.806,-1.256 2.806,-2.806c0,-1.549 -1.256,-2.806 -2.806,-2.806z" opacity="NaN" fill="url(#linear-gradient)"/>
  <path transform="translate(109,423) scale(0.005) translate(-109,-423)" id="svg_12" d="m16,8.286c-7.546,0 -13.5,7.714 -13.5,7.714s5.954,7.715 13.5,7.715c5.771,0 13.5,-7.715 13.5,-7.715s-7.729,-7.714 -13.5,-7.714zm0,12.521c-2.649,0 -4.807,-2.157 -4.807,-4.807s2.158,-4.807 4.807,-4.807s4.807,2.158 4.807,4.807s-2.158,4.807 -4.807,4.807zm0,-7.613c-1.549,0 -2.806,1.256 -2.806,2.806c0,1.55 1.256,2.806 2.806,2.806c1.55,0 2.806,-1.256 2.806,-2.806c0,-1.549 -1.256,-2.806 -2.806,-2.806z" opacity="NaN" fill="url(#linear-gradient)"/>
  <path transform="translate(109,423) scale(0.005) translate(-109,-423)" id="svg_13" d="m16,8.286c-7.546,0 -13.5,7.714 -13.5,7.714s5.954,7.715 13.5,7.715c5.771,0 13.5,-7.715 13.5,-7.715s-7.729,-7.714 -13.5,-7.714zm0,12.521c-2.649,0 -4.807,-2.157 -4.807,-4.807s2.158,-4.807 4.807,-4.807s4.807,2.158 4.807,4.807s-2.158,4.807 -4.807,4.807zm0,-7.613c-1.549,0 -2.806,1.256 -2.806,2.806c0,1.55 1.256,2.806 2.806,2.806c1.55,0 2.806,-1.256 2.806,-2.806c0,-1.549 -1.256,-2.806 -2.806,-2.806z" opacity="NaN" fill="url(#linear-gradient)"/>
  <path transform="translate(109,423) scale(0.005) translate(-109,-423)" id="svg_14" d="m16,8.286c-7.546,0 -13.5,7.714 -13.5,7.714s5.954,7.715 13.5,7.715c5.771,0 13.5,-7.715 13.5,-7.715s-7.729,-7.714 -13.5,-7.714zm0,12.521c-2.649,0 -4.807,-2.157 -4.807,-4.807s2.158,-4.807 4.807,-4.807s4.807,2.158 4.807,4.807s-2.158,4.807 -4.807,4.807zm0,-7.613c-1.549,0 -2.806,1.256 -2.806,2.806c0,1.55 1.256,2.806 2.806,2.806c1.55,0 2.806,-1.256 2.806,-2.806c0,-1.549 -1.256,-2.806 -2.806,-2.806z" opacity="NaN" fill="url(#linear-gradient)"/>
  <path transform="translate(215,439) scale(0.005) translate(-215,-439)" id="svg_15" d="m21.053,20.8c-1.132,-0.453 -1.584,-1.698 -1.584,-1.698s-0.51,0.282 -0.51,-0.51s0.51,0.51 1.02,-2.548c0,0 1.414,-0.397 1.132,-3.68l-0.34,0c0,0 0.849,-3.51 0,-4.699c-0.85,-1.189 -1.189,-1.981 -3.058,-2.548s-1.188,-0.454 -2.547,-0.396c-1.359,0.057 -2.492,0.792 -2.492,1.188c0,0 -0.849,0.057 -1.188,0.397c-0.34,0.34 -0.906,1.924 -0.906,2.321s0.283,3.058 0.566,3.624l-0.337,0.113c-0.283,3.283 1.132,3.68 1.132,3.68c0.509,3.058 1.019,1.756 1.019,2.548s-0.51,0.51 -0.51,0.51s-0.452,1.245 -1.584,1.698c-1.132,0.452 -7.416,2.886 -7.927,3.396c-0.511,0.511 -0.453,2.888 -0.453,2.888l26.947,0c0,0 0.059,-2.377 -0.452,-2.888c-0.512,-0.51 -6.796,-2.944 -7.928,-3.396zm-12.47,-0.172c-0.099,-0.18 -0.148,-0.31 -0.148,-0.31s-0.432,0.239 -0.432,-0.432s0.432,0.432 0.864,-2.159c0,0 1.199,-0.336 0.959,-3.119l-0.288,0c0,0 0.143,-0.591 0.237,-1.334c-0.004,-0.308 0.006,-0.636 0.037,-0.996l0.038,-0.426c-0.021,-0.492 -0.107,-0.939 -0.312,-1.226c-0.72,-1.007 -1.008,-1.679 -2.591,-2.159c-1.583,-0.48 -1.008,-0.385 -2.159,-0.336c-1.152,0.048 -2.112,0.671 -2.112,1.008c0,0 -0.72,0.048 -1.008,0.336c-0.271,0.271 -0.705,1.462 -0.757,1.885l0,0.281c0.047,0.653 0.258,2.449 0.469,2.872l-0.286,0.096c-0.239,2.783 0.959,3.119 0.959,3.119c0.432,2.591 0.864,1.488 0.864,2.159s-0.432,0.432 -0.432,0.432s-0.383,1.057 -1.343,1.439c-0.061,0.024 -0.139,0.056 -0.232,0.092l0,5.234l0.575,0c-0.029,-1.278 0.077,-2.927 0.746,-3.594c0.356,-0.355 1.523,-0.939 6.352,-2.862zm22.33,-9.056c-0.04,-0.378 -0.127,-0.715 -0.292,-0.946c-0.719,-1.008 -1.008,-1.679 -2.59,-2.159c-1.584,-0.48 -1.008,-0.385 -2.16,-0.336c-1.151,0.048 -2.111,0.671 -2.111,1.008c0,0 -0.719,0.048 -1.008,0.336c-0.271,0.272 -0.709,1.472 -0.758,1.891l0.033,0l0.08,0.913c0.02,0.231 0.022,0.436 0.027,0.645c0.09,0.666 0.21,1.35 0.33,1.589l-0.286,0.096c-0.239,2.783 0.96,3.119 0.96,3.119c0.432,2.591 0.863,1.488 0.863,2.159s-0.432,0.432 -0.432,0.432s-0.053,0.142 -0.163,0.338c4.77,1.9 5.927,2.48 6.279,2.834c0.67,0.667 0.775,2.315 0.746,3.594l0.48,0l0,-5.306c-0.016,-0.006 -0.038,-0.015 -0.052,-0.021c-0.959,-0.383 -1.343,-1.439 -1.343,-1.439s-0.433,0.239 -0.433,-0.432s0.433,0.432 0.864,-2.159c0,0 0.804,-0.229 0.963,-1.841l0,-1.227c-0.001,-0.018 -0.001,-0.033 -0.003,-0.051l-0.289,0c0,0 0.215,-0.89 0.292,-1.861l0,-1.176l0.003,0z" opacity="NaN" fill="url(#linear-gradient)"/>
  <path transform="translate(280,523) scale(0.005) translate(-280,-523)" id="svg_16" d="m21.053,20.8c-1.132,-0.453 -1.584,-1.698 -1.584,-1.698s-0.51,0.282 -0.51,-0.51s0.51,0.51 1.02,-2.548c0,0 1.414,-0.397 1.132,-3.68l-0.34,0c0,0 0.849,-3.51 0,-4.699c-0.85,-1.189 -1.189,-1.981 -3.058,-2.548s-1.188,-0.454 -2.547,-0.396c-1.359,0.057 -2.492,0.792 -2.492,1.188c0,0 -0.849,0.057 -1.188,0.397c-0.34,0.34 -0.906,1.924 -0.906,2.321s0.283,3.058 0.566,3.624l-0.337,0.113c-0.283,3.283 1.132,3.68 1.132,3.68c0.509,3.058 1.019,1.756 1.019,2.548s-0.51,0.51 -0.51,0.51s-0.452,1.245 -1.584,1.698c-1.132,0.452 -7.416,2.886 -7.927,3.396c-0.511,0.511 -0.453,2.888 -0.453,2.888l26.947,0c0,0 0.059,-2.377 -0.452,-2.888c-0.512,-0.51 -6.796,-2.944 -7.928,-3.396zm-12.47,-0.172c-0.099,-0.18 -0.148,-0.31 -0.148,-0.31s-0.432,0.239 -0.432,-0.432s0.432,0.432 0.864,-2.159c0,0 1.199,-0.336 0.959,-3.119l-0.288,0c0,0 0.143,-0.591 0.237,-1.334c-0.004,-0.308 0.006,-0.636 0.037,-0.996l0.038,-0.426c-0.021,-0.492 -0.107,-0.939 -0.312,-1.226c-0.72,-1.007 -1.008,-1.679 -2.591,-2.159c-1.583,-0.48 -1.008,-0.385 -2.159,-0.336c-1.152,0.048 -2.112,0.671 -2.112,1.008c0,0 -0.72,0.048 -1.008,0.336c-0.271,0.271 -0.705,1.462 -0.757,1.885l0,0.281c0.047,0.653 0.258,2.449 0.469,2.872l-0.286,0.096c-0.239,2.783 0.959,3.119 0.959,3.119c0.432,2.591 0.864,1.488 0.864,2.159s-0.432,0.432 -0.432,0.432s-0.383,1.057 -1.343,1.439c-0.061,0.024 -0.139,0.056 -0.232,0.092l0,5.234l0.575,0c-0.029,-1.278 0.077,-2.927 0.746,-3.594c0.356,-0.355 1.523,-0.939 6.352,-2.862zm22.33,-9.056c-0.04,-0.378 -0.127,-0.715 -0.292,-0.946c-0.719,-1.008 -1.008,-1.679 -2.59,-2.159c-1.584,-0.48 -1.008,-0.385 -2.16,-0.336c-1.151,0.048 -2.111,0.671 -2.111,1.008c0,0 -0.719,0.048 -1.008,0.336c-0.271,0.272 -0.709,1.472 -0.758,1.891l0.033,0l0.08,0.913c0.02,0.231 0.022,0.436 0.027,0.645c0.09,0.666 0.21,1.35 0.33,1.589l-0.286,0.096c-0.239,2.783 0.96,3.119 0.96,3.119c0.432,2.591 0.863,1.488 0.863,2.159s-0.432,0.432 -0.432,0.432s-0.053,0.142 -0.163,0.338c4.77,1.9 5.927,2.48 6.279,2.834c0.67,0.667 0.775,2.315 0.746,3.594l0.48,0l0,-5.306c-0.016,-0.006 -0.038,-0.015 -0.052,-0.021c-0.959,-0.383 -1.343,-1.439 -1.343,-1.439s-0.433,0.239 -0.433,-0.432s0.433,0.432 0.864,-2.159c0,0 0.804,-0.229 0.963,-1.841l0,-1.227c-0.001,-0.018 -0.001,-0.033 -0.003,-0.051l-0.289,0c0,0 0.215,-0.89 0.292,-1.861l0,-1.176l0.003,0z" opacity="NaN" fill="url(#linear-gradient)"/>
  <path transform="translate(-142,569) scale(0.005) translate(142,-569)" id="svg_19" d="m16,8.286c-7.546,0 -13.5,7.714 -13.5,7.714s5.954,7.715 13.5,7.715c5.771,0 13.5,-7.715 13.5,-7.715s-7.729,-7.714 -13.5,-7.714zm0,12.521c-2.649,0 -4.807,-2.157 -4.807,-4.807s2.158,-4.807 4.807,-4.807s4.807,2.158 4.807,4.807s-2.158,4.807 -4.807,4.807zm0,-7.613c-1.549,0 -2.806,1.256 -2.806,2.806c0,1.55 1.256,2.806 2.806,2.806c1.55,0 2.806,-1.256 2.806,-2.806c0,-1.549 -1.256,-2.806 -2.806,-2.806z" opacity="NaN" fill="url(#svg_17)"/>
  <path stroke="null" id="svg_21" d="m180.00002,3.5c-98.098,0 -175.50001,101.49343 -175.50001,101.49343s77.402,101.50658 175.50001,101.50658c75.023,0 175.50001,-101.50658 175.50001,-101.50658s-100.477,-101.49343 -175.50001,-101.49343zm0,164.73933c-34.437,0 -62.491,-28.37974 -62.491,-63.2459s28.054,-63.2459 62.491,-63.2459s62.491,28.3929 62.491,63.2459s-28.054,63.2459 -62.491,63.2459zm0,-100.16457c-20.137,0 -36.478,16.52525 -36.478,36.91866c0,20.39342 16.328,36.91866 36.478,36.91866c20.15,0 36.478,-16.52525 36.478,-36.91866c0,-20.38026 -16.328,-36.91866 -36.478,-36.91866z" fill="url(#svg_20)"/>
 </g>
</svg>