<?xml version="1.0" encoding="UTF-8"?>
<svg xmlns="http://www.w3.org/2000/svg" xmlns:xlink="http://www.w3.org/1999/xlink" viewBox="0 0 50 50" width="50px" height="50px">
<g id="surface111811860">
<path style=" stroke:none;fill-rule:nonzero;fill:rgb(9.803922%,46.27451%,82.352942%);fill-opacity:1;" d="M 25 4.167969 C 13.492188 4.167969 4.167969 13.492188 4.167969 25 C 4.167969 36.507812 13.492188 45.832031 25 45.832031 C 36.507812 45.832031 45.832031 36.507812 45.832031 25 C 45.832031 13.492188 36.507812 4.167969 25 4.167969 Z M 25 4.167969 "/>
<path style=" stroke:none;fill-rule:nonzero;fill:rgb(100%,100%,100%);fill-opacity:1;" d="M 37.433594 18.792969 C 37.480469 18.636719 37.503906 18.488281 37.5 18.359375 C 37.484375 17.980469 37.222656 17.707031 36.613281 17.707031 L 33.886719 17.707031 C 33.199219 17.707031 32.878906 18.125 32.695312 18.542969 C 32.695312 18.542969 30.996094 22.042969 29.035156 24.347656 C 28.398438 25.015625 28.078125 25 27.734375 25 C 27.550781 25 27.082031 24.777344 27.082031 24.164062 L 27.082031 18.765625 C 27.082031 18.042969 26.902344 17.707031 26.320312 17.707031 L 21.476562 17.707031 C 21.054688 17.707031 20.832031 18.042969 20.832031 18.375 C 20.832031 19.070312 21.769531 19.238281 21.875 21.183594 L 21.875 24.957031 C 21.875 25.875 21.714844 26.042969 21.371094 26.042969 C 20.445312 26.042969 18.621094 22.917969 17.398438 18.820312 C 17.132812 18.015625 16.867188 17.707031 16.179688 17.707031 L 13.425781 17.707031 C 12.632812 17.707031 12.5 18.097656 12.5 18.515625 C 12.5 19.265625 13.125 23.324219 16.535156 27.996094 C 19.011719 31.378906 22.269531 33.332031 25.15625 33.332031 C 26.902344 33.332031 27.082031 32.886719 27.082031 32.195312 L 27.082031 29.097656 C 27.082031 28.261719 27.273438 28.125 27.832031 28.125 C 28.226562 28.125 29.035156 28.386719 30.597656 30.207031 C 32.402344 32.308594 32.726562 33.332031 33.761719 33.332031 L 36.488281 33.332031 C 37.121094 33.332031 37.484375 33.066406 37.5 32.550781 C 37.503906 32.421875 37.484375 32.273438 37.441406 32.109375 C 37.238281 31.511719 36.3125 30.042969 35.15625 28.644531 C 34.515625 27.871094 33.882812 27.105469 33.59375 26.6875 C 33.398438 26.417969 33.324219 26.226562 33.332031 26.042969 C 33.34375 25.847656 33.441406 25.664062 33.59375 25.410156 C 33.566406 25.410156 37.089844 20.460938 37.433594 18.792969 Z M 37.433594 18.792969 "/>
</g>
</svg>
