<svg width="50" height="50" viewBox="0 0 50 50" fill="none" xmlns="http://www.w3.org/2000/svg">
<rect x="13.8604" y="20.8789" width="19.8905" height="14.3929" rx="7.19645" transform="rotate(-10.5 13.8604 20.8789)" fill="white"/>
<path d="M31.1204 48.4759L31.5998 40.4874L32.9236 38.2276C32.9236 38.2276 29.9107 39.4602 24.8666 39.4602C19.8224 39.4602 16.8552 38.2504 16.8552 38.2504L18.3387 40.7155L18.8636 48.4759C18.8636 49.3079 21.6073 49.9822 24.992 49.9822C28.3766 49.9822 31.1204 49.3079 31.1204 48.4759M29.6081 11.1707L30.6144 7.19319L36.1869 1.32959L34.7182 0.0786133L28.8185 6.32481L27.6501 11.0768C26.7708 11.0474 25.891 11.0327 25.0112 11.0329C18.7978 11.0329 13.7607 11.7411 13.7607 12.6144C13.7607 13.4878 18.7978 14.1958 25.0112 14.1958C31.2245 14.1958 36.2615 13.4878 36.2615 12.6144C36.2615 11.9713 33.5296 11.4177 29.6081 11.1707" fill="#D34A47"/>
<path d="M36.1754 1.34157C36.3155 1.17974 36.1029 0.76578 35.7005 0.417105C35.298 0.0686065 34.858 -0.0828069 34.7177 0.0790306C34.5775 0.240868 34.7902 0.654826 35.1928 1.00332C35.5951 1.35191 36.0352 1.5035 36.1754 1.34157ZM30.8519 28.9636C30.7198 27.6929 33.6312 25.8526 32.884 25.7937C31.2755 25.8857 30.475 27.6787 29.6657 29.5566C29.3692 30.2448 28.3544 33.1797 27.6889 32.8183C27.0235 32.4572 28.5515 30.0439 28.9798 28.6107C28.4856 28.973 26.6733 30.3811 26.2063 29.0624C25.4554 29.7001 23.8509 30.0456 24.0319 28.3705C23.6324 29.0781 22.7359 30.066 21.6597 29.6554C20.2465 29.1165 22.4786 24.6146 23.0337 24.8418C23.5888 25.0688 22.9216 26.0943 22.7469 26.4925C22.3626 27.369 21.9187 28.4707 22.2153 28.6963C22.7233 29.0827 24.1058 27.2345 24.1366 27.1939C24.3951 26.8523 25.1318 24.6174 25.7255 24.874C26.3193 25.1306 24.2446 28.0814 25.0203 28.667C25.1768 28.7852 25.8169 28.5941 26.2063 28.1728C26.4582 27.9003 26.3716 27.2967 27.2114 25.2939C28.0512 23.2911 28.7997 20.797 29.3757 20.987C29.9517 21.1769 29.4769 22.457 29.2703 22.9342C28.3007 25.174 26.624 28.8743 27.4148 28.5941C28.2055 28.3141 28.6172 28.2977 29.3915 27.3916C30.1658 26.4855 30.1301 24.993 30.6462 25.0247C31.1625 25.0565 31.0758 25.535 30.9506 25.8994C31.4586 25.3182 33.3584 24.094 33.817 25.3064C34.3603 26.7418 31.0989 28.8153 31.9121 28.7095C32.7049 28.6064 33.9894 27.7929 34.5378 27.0532L36.0473 13.482C36.0473 13.482 34.5284 14.7391 24.8646 14.7391C15.2007 14.7391 13.8389 13.5082 13.8389 13.5082L15.124 25.8955C15.8062 23.9567 17.4261 20.0351 19.9794 20.1668C21.1409 20.2266 22.6914 22.4631 21.3632 22.5389C20.8011 22.5709 20.744 21.4226 20.0783 21.2539C19.5979 21.1322 18.9291 21.5228 18.4968 21.9459C17.6348 22.7895 15.7808 26.1181 16.0258 27.7775C16.3379 29.8932 18.9452 27.0424 19.3864 26.196C19.6971 25.5998 19.907 23.8334 20.5865 24.0187C21.2661 24.204 20.5272 26.027 20.0346 27.6388C19.4813 29.4486 19.1904 31.3577 18.4968 31.138C17.8032 30.9186 18.933 28.5822 18.8921 28.1728C18.2402 28.7743 17.0391 30.2971 15.5026 29.5434L16.3007 37.2358C16.3007 37.2358 18.422 38.9119 24.8122 38.9119C31.2024 38.9119 33.4022 37.262 33.4022 37.262L34.3933 28.3524C33.5824 29.1419 31.0162 30.544 30.8519 28.9636Z" fill="#D34A47"/>
</svg>
