<?xml version="1.0" encoding="utf-8"?>
<!-- Generator: Adobe Illustrator 15.0.0, SVG Export Plug-In . SVG Version: 6.00 Build 0)  -->
<!DOCTYPE svg PUBLIC "-//W3C//DTD SVG 1.1//EN" "http://www.w3.org/Graphics/SVG/1.1/DTD/svg11.dtd">
<svg version="1.1"  xmlns="http://www.w3.org/2000/svg" xmlns:xlink="http://www.w3.org/1999/xlink" x="0px" y="0px"
	 width="48px" height="48px" viewBox="0 0 48 48" enable-background="new 0 0 48 48" xml:space="preserve">
<circle fill="#FFFFFF" cx="24" cy="24" r="19"/>
<g>
	<path fill="#01579B" d="M7.704,24c0,6.453,3.748,12.025,9.186,14.667L9.114,17.366C8.209,19.395,7.704,21.633,7.704,24z
		 M35.003,23.179c0-2.013-0.724-3.411-1.342-4.493c-0.827-1.354-1.604-2.481-1.604-3.822c0-1.492,1.141-2.893,2.74-2.893
		c0.072,0,0.137,0.006,0.209,0.008C32.107,9.316,28.244,7.703,24,7.703c-5.695,0-10.705,2.924-13.619,7.349
		c0.384,0.008,0.743,0.014,1.052,0.014c1.7,0,4.343-0.202,4.343-0.202c0.876-0.059,0.983,1.235,0.101,1.341
		c0,0-0.88,0.106-1.861,0.153l5.936,17.657l3.566-10.694l-2.54-6.963c-0.876-0.047-1.709-0.153-1.709-0.153
		c-0.878-0.058-0.777-1.401,0.1-1.341c0,0,2.696,0.202,4.296,0.202c1.706,0,4.344-0.202,4.344-0.202
		c0.877-0.059,0.982,1.235,0.105,1.341c0,0-0.887,0.106-1.867,0.153l5.887,17.519l1.629-5.428
		C34.591,26.331,35.003,24.58,35.003,23.179z M24.285,25.422l-4.889,14.21c1.462,0.435,3.005,0.665,4.604,0.665
		c1.896,0,3.716-0.33,5.414-0.924c-0.039-0.072-0.086-0.146-0.119-0.225L24.285,25.422z M38.303,16.177
		c0.072,0.519,0.111,1.077,0.111,1.675c0,1.658-0.313,3.517-1.242,5.845l-4.976,14.396c4.845-2.824,8.101-8.079,8.101-14.092
		C40.297,21.168,39.572,18.503,38.303,16.177z"/>
	<g>
		<path fill="#01579B" d="M5,24c0,10.473,8.521,19,19,19c10.479,0,19-8.527,19-19S34.479,5,24,5C13.521,5,5,13.527,5,24z M5.871,24
			c0-9.991,8.13-18.123,18.128-18.123c9.999,0,18.129,8.132,18.129,18.123S33.998,42.125,24,42.125
			C14.003,42.125,5.871,33.991,5.871,24z"/>
	</g>
</g>
</svg>
