<?xml version="1.0"?>
<svg xmlns="http://www.w3.org/2000/svg" id="Layer_1" data-name="Layer 1" viewBox="0 0 64 64"><title>Icons8 RSL Colored Part 5</title><path d="M58.42,41.65h-15c-2.17,3.84-5.18,6-10.37,6-6.38,0-10.93-5.53-11.09-11.16h37c.93-18.25-11-29.44-25.21-29.44C17.78,7,9.25,16,7.25,27.24,5,40.5,8.88,59.41,31.92,59.41,44.93,59.41,54.59,52.73,58.42,41.65ZM33,19.06A10.58,10.58,0,0,1,43.83,29H22.11A11,11,0,0,1,33,19.06Z" style="fill:#85cbf8;"/><path d="M55.43,31.8a22.21,22.21,0,1,0-2.31,9.85H43.41c-2.17,3.84-5.18,6-10.37,6-6.39,0-10.93-5.54-11.09-11.16h33A22,22,0,0,0,55.43,31.8ZM22.11,29A11,11,0,0,1,33,19.06,10.57,10.57,0,0,1,43.83,29Z" style="fill:#85cbf8;"/><path d="M58.42,41.65c-3.83,11.08-13.49,17.76-26.5,17.76-9.42,0-15.63-3.16-19.53-7.8l1.95-1.95a4,4,0,0,1,5.23-.37,22.19,22.19,0,0,0,33.55-7.65Z" style="fill:#6fc6f0;"/><path d="M57.74,25.33l-1,.33A3,3,0,0,1,53.06,24a21.39,21.39,0,0,0-4.27-6.63,20.5,20.5,0,0,0-15.06-6.29H33.6a33,33,0,0,0-4.23.26A3,3,0,0,1,26,9.19l-.37-1.28a35.5,35.5,0,0,1,8.07-.85C44.74,7.06,54.4,13.8,57.74,25.33Z" style="fill:#9fddff;"/><path d="M33,18.06A12,12,0,0,0,21.11,28.93a1,1,0,0,0,1,1.05H43.83a1,1,0,0,0,1-1A11.64,11.64,0,0,0,33,18.06ZM23.24,28A10,10,0,0,1,33,20.06,9.69,9.69,0,0,1,42.73,28Z" style="fill:#8d6c9f;"/><path d="M33,56a1,1,0,0,0,1-1V53a1,1,0,0,0-2,0v2A1,1,0,0,0,33,56Z" style="fill:#8d6c9f;"/><path d="M37.6,54.53A1,1,0,0,0,39.53,54L39,52.08a1,1,0,0,0-1.93.52Z" style="fill:#8d6c9f;"/><path d="M21.75,53a1,1,0,0,0,1.37-.37l1-1.73a1,1,0,0,0-1.73-1l-1,1.73A1,1,0,0,0,21.75,53Z" style="fill:#8d6c9f;"/><path d="M42.88,52.62a1,1,0,1,0,1.73-1l-1-1.73a1,1,0,0,0-1.73,1Z" style="fill:#8d6c9f;"/><path d="M27.18,55.23a1,1,0,0,0,1.22-.71l.52-1.93A1,1,0,1,0,27,52.08L26.47,54A1,1,0,0,0,27.18,55.23Z" style="fill:#8d6c9f;"/><path d="M40.35,13.32a21.1,21.1,0,0,1,2.1.92,1,1,0,0,0,.45.11,1,1,0,0,0,.45-1.89,22.71,22.71,0,0,0-2.3-1,1,1,0,0,0-.7,1.87Z" style="fill:#8d6c9f;"/><path d="M47.17,14.88a1,1,0,0,0-1.23,1.57,21.13,21.13,0,0,1,5.61,6.68,1,1,0,0,0,1.77-.94,23,23,0,0,0-4-5.46A23.28,23.28,0,0,0,47.17,14.88Z" style="fill:#8d6c9f;"/><path d="M57.45,7c-3.63-3.63-10.18-3.49-17.72-.3a27.67,27.67,0,0,0-6.12-.69c-14.78,0-25,7.85-27.34,21a38.28,38.28,0,0,0-.14,12.37C2.24,47.67,1.81,54.91,5.7,58.8a10.18,10.18,0,0,0,7.47,2.7,25.78,25.78,0,0,0,9.2-2,1,1,0,0,0,.37-.26,33.91,33.91,0,0,0,9.19,1.17c13.19,0,23.45-6.89,27.44-18.43a1,1,0,0,0-.95-1.33h-15a1,1,0,0,0-.87.51c-2.17,3.85-5,5.5-9.5,5.5-5.63,0-9.4-4.58-10-9.16H59a1,1,0,0,0,1-.95,34.22,34.22,0,0,0-1.74-13C61,16.23,60.77,10.37,57.45,7ZM56,8.46c2.39,2.4,2.74,6.81,1,12.3a26,26,0,0,0-4.65-6.86A24.84,24.84,0,0,0,43,7.71C48.66,5.77,53.43,5.85,56,8.46Zm-47.8,19C10.39,15.29,19.87,8.06,33.61,8.06h.13a25.47,25.47,0,0,1,2.85.16A70.16,70.16,0,0,0,19.62,21,72.16,72.16,0,0,0,7.78,36.25,37.41,37.41,0,0,1,8.24,27.42Zm-1.12,30c-2.83-2.83-2.69-8.18-.23-14.47a24.58,24.58,0,0,0,4.76,9.36,21.3,21.3,0,0,0,8.26,6C14.18,60.14,9.58,59.85,7.11,57.38ZM58,35.5h-36a1,1,0,0,0-1,1c.16,5.83,4.83,12.13,12.09,12.13,5,0,8.46-1.91,10.95-6H57c-4,10-13.09,15.76-25.06,15.76-8.29,0-14.6-2.5-18.76-7.42A23.82,23.82,0,0,1,8.23,39.85,66.93,66.93,0,0,1,21,22.38,65.17,65.17,0,0,1,40,8.86,23,23,0,0,1,51,15.28C55.79,20.35,58.2,27.33,58,35.5Z" style="fill:#8d6c9f;"/></svg>
