<?xml version="1.0" encoding="iso-8859-1"?>
<!-- Generator: Adobe Illustrator 19.2.1, SVG Export Plug-In . SVG Version: 6.00 Build 0)  -->
<svg version="1.1" id="Layer_1" xmlns="http://www.w3.org/2000/svg" xmlns:xlink="http://www.w3.org/1999/xlink" x="0px" y="0px"
	 viewBox="0 0 40 40" style="enable-background:new 0 0 40 40;" xml:space="preserve">
<g>
	<path style="fill:#A8DEFF;" d="M14,20.5c-1.379,0-2.5-1.122-2.5-2.5V4c0-1.378,1.121-2.5,2.5-2.5h21c1.379,0,2.5,1.122,2.5,2.5v14
		c0,1.378-1.121,2.5-2.5,2.5H14z"/>
	<g>
		<path style="fill:#788B9C;" d="M35,2c1.103,0,2,0.897,2,2v14c0,1.103-0.897,2-2,2H14c-1.103,0-2-0.897-2-2V4c0-1.103,0.897-2,2-2
			H35 M35,1H14c-1.657,0-3,1.343-3,3v14c0,1.657,1.343,3,3,3h21c1.657,0,3-1.343,3-3V4C38,2.343,36.657,1,35,1L35,1z"/>
	</g>
</g>
<g>
	<path style="fill:#788B9C;" d="M18,22h20c1.105,0,2-0.895,2-2l0,0H16l0,0C16,21.105,16.895,22,18,22z"/>
</g>
<g>
	<path style="fill:#DCD5F2;" d="M8,32.5c-0.827,0-1.5-0.673-1.5-1.5V11c0-0.827,0.673-1.5,1.5-1.5h15c0.827,0,1.5,0.673,1.5,1.5v20
		c0,0.827-0.673,1.5-1.5,1.5H8z"/>
	<g>
		<path style="fill:#8B75A1;" d="M23,10c0.551,0,1,0.449,1,1v20c0,0.551-0.449,1-1,1H8c-0.551,0-1-0.449-1-1V11c0-0.551,0.449-1,1-1
			H23 M23,9H8c-1.105,0-2,0.895-2,2v20c0,1.105,0.895,2,2,2h15c1.105,0,2-0.895,2-2V11C25,9.895,24.105,9,23,9L23,9z"/>
	</g>
</g>
<g>
	<rect x="8.5" y="11.5" style="fill:#F2FAFF;" width="14" height="19"/>
	<g>
		<path style="fill:#8B75A1;" d="M22,12v18H9V12H22 M23,11H8v20h15V11L23,11z"/>
	</g>
</g>
<g>
	<path style="fill:#FFC49C;" d="M2.5,38.5c-0.552,0-1-0.449-1-1v-17c0-0.551,0.448-1,1-1h9c0.552,0,1,0.449,1,1v17
		c0,0.551-0.448,1-1,1H2.5z"/>
	<g>
		<path style="fill:#A16A4A;" d="M11.5,20c0.276,0,0.5,0.224,0.5,0.5v17c0,0.276-0.224,0.5-0.5,0.5h-9C2.224,38,2,37.776,2,37.5v-17
			C2,20.224,2.224,20,2.5,20H11.5 M11.5,19h-9C1.672,19,1,19.672,1,20.5v17C1,38.328,1.672,39,2.5,39h9c0.828,0,1.5-0.672,1.5-1.5
			v-17C13,19.672,12.328,19,11.5,19L11.5,19z"/>
	</g>
</g>
<g>
	<rect x="1.5" y="22.5" style="fill:#F2FAFF;" width="11" height="13"/>
	<g>
		<path style="fill:#A16A4A;" d="M12,23v12H2V23H12 M13,22H1v14h12V22L13,22z"/>
	</g>
</g>
</svg>
