<svg width="50" height="50" viewBox="0 0 50 50" fill="none" xmlns="http://www.w3.org/2000/svg">
<g clip-path="url(#clip0_5458_2)">
<circle cx="25" cy="25" r="25" fill="#E23131"/>
<path d="M39.1459 23.2435C39.0167 26.136 38.2773 28.4318 36.9286 30.1318C35.5799 31.8318 33.7651 32.681 31.4883 32.681C30.4826 32.681 29.6156 32.4718 28.8849 32.0543C28.1549 31.6385 27.6043 31.0377 27.2294 30.2593C26.0617 31.8402 24.5364 32.6318 22.656 32.6318C20.9506 32.6318 19.6303 31.936 18.697 30.5468C17.7629 29.1568 17.4113 27.3227 17.6448 25.041C17.8551 23.1777 18.3437 21.5185 19.109 20.0668C19.8733 18.6168 20.8403 17.5002 22.008 16.721C23.1756 15.9418 24.4373 15.5518 25.7928 15.5518C27.4629 15.5518 28.8883 15.9252 30.0681 16.6718L31.172 17.3993L30.2792 27.1918C30.162 28.0835 30.2637 28.7677 30.586 29.241C30.9066 29.716 31.4176 29.9527 32.1182 29.9527C33.1928 29.9527 34.0925 29.3452 34.8164 28.1302C35.5403 26.9168 35.9376 25.3285 36.0082 23.361C36.2064 19.4185 35.3869 16.3877 33.5479 14.2718C31.7072 12.1543 28.9822 11.0943 25.374 11.0943C23.1188 11.0943 21.11 11.6477 19.3468 12.7552C17.5828 13.8627 16.1919 15.436 15.1767 17.4752C14.1598 19.5127 13.5867 21.8477 13.4583 24.4802C13.2722 28.4785 14.1012 31.571 15.9471 33.756C17.7922 35.9418 20.555 37.0343 24.2348 37.0343C25.2042 37.0343 26.2203 36.931 27.2837 36.721C28.3454 36.5118 29.264 36.2318 30.0336 35.8827L30.6997 38.491C29.9871 38.9435 29.0271 39.3085 27.8163 39.5852C26.6089 39.8635 25.3904 40.0002 24.1641 40.0002C21.0798 40.0002 18.4523 39.3977 16.2798 38.1968C14.1073 36.9935 12.4863 35.221 11.4177 32.876C10.3491 30.5318 9.88459 27.7318 10.0242 24.481C10.1638 21.3618 10.8998 18.5668 12.2329 16.0943C13.5635 13.6202 15.3766 11.7077 17.6733 10.3602C19.9673 9.00933 22.5578 8.3335 25.443 8.3335C28.3738 8.3335 30.898 8.941 33.0119 10.1552C35.1249 11.3685 36.708 13.1052 37.7602 15.3643C38.8124 17.6235 39.2735 20.2493 39.1459 23.2435ZM21.5357 25.0393C21.4064 26.5302 21.5417 27.6627 21.939 28.436C22.3346 29.2102 22.9783 29.5985 23.8659 29.5985C24.4381 29.5985 24.9811 29.3552 25.4955 28.8685C26.0091 28.3827 26.4366 27.6835 26.7744 26.7677L27.5103 18.7535C27.0562 18.606 26.5874 18.5335 26.1091 18.5335C24.7656 18.5335 23.7229 19.0868 22.9817 20.1935C22.2389 21.3002 21.7572 22.9168 21.5357 25.0393Z" fill="white"/>
</g>
<defs>
<clipPath id="clip0_5458_2">
<rect width="50" height="50" fill="white"/>
</clipPath>
</defs>
</svg>
