<svg width="50" height="50" viewBox="0 0 50 50" fill="none" xmlns="http://www.w3.org/2000/svg">
<rect x="10" y="8" width="30" height="34" fill="white"/>
<path d="M3.73418 0C3.27464 0 2.93225 0.37448 2.97302 0.832178L6.84716 44.2871C6.88793 44.7448 7.28347 45.2198 7.72646 45.3428L24.1663 49.9074C24.6091 50.0304 25.3337 50.0304 25.7767 49.9078L42.2665 45.3356C42.7093 45.2128 43.1054 44.7377 43.1461 44.2802L47.0266 0.832178C47.0677 0.37448 46.725 0 46.2655 0H3.73418ZM38.7762 9.96625C38.7396 10.3745 38.6763 11.0832 38.6355 11.5409L38.5334 12.681C38.4923 13.1385 38.4338 13.7929 38.4029 14.135C38.3722 14.4772 38.3429 14.7571 38.3376 14.7571C38.3324 14.7571 37.9521 14.7571 37.4925 14.7571H25.8353C25.3758 14.7571 24.996 14.7571 24.991 14.7571C24.986 14.7571 24.6058 14.7571 24.1463 14.7571H18.0069C17.5473 14.7571 17.2049 15.1316 17.2457 15.5893L17.6038 19.5923C17.6446 20.0498 18.0542 20.4244 18.5137 20.4244H24.1464C24.606 20.4244 24.9861 20.4244 24.9911 20.4244C24.9961 20.4244 25.376 20.4244 25.8355 20.4244H35.5173C35.9769 20.4244 36.6881 20.4244 37.0976 20.4244C37.5069 20.4244 37.8117 20.7585 37.7746 21.1667C37.7373 21.575 37.6737 22.2838 37.6329 22.7413L36.4814 35.6464C36.4403 36.1041 36.3883 36.6888 36.3659 36.9458C36.343 37.2027 35.9622 37.5133 35.5194 37.6361L25.8051 40.3297C25.3623 40.4524 24.9943 40.554 24.9875 40.5555C24.9806 40.557 24.6128 40.4575 24.1698 40.3347L14.4452 37.6363C14.0024 37.5135 13.6067 37.0384 13.5659 36.5807L12.9399 29.5548C12.8992 29.0971 13.2419 28.7227 13.7014 28.7227H14.5889C15.0485 28.7227 15.8004 28.7227 16.26 28.7227H17.5834C18.043 28.7227 18.4522 29.0971 18.4933 29.5548L18.7388 32.3052C18.7796 32.7629 19.1758 33.2353 19.6196 33.3551L24.1683 34.5835C24.6118 34.7033 24.9764 34.8014 24.9784 34.8014C24.9804 34.8014 25.3449 34.7031 25.7886 34.5833L30.3455 33.3519C30.789 33.2321 31.1855 32.7596 31.2266 32.302L31.7207 26.7916C31.7619 26.3339 31.4195 25.9594 30.9599 25.9594H25.8355C25.376 25.9594 24.9961 25.9594 24.9911 25.9594C24.9861 25.9594 24.606 25.9594 24.1464 25.9594H13.4536C12.9941 25.9594 12.5848 25.5848 12.5441 25.1273L11.3316 11.5407C11.2908 11.083 11.2275 10.3745 11.1909 9.96608C11.1546 9.55784 11.5007 9.2238 11.9602 9.2238H24.1464C24.606 9.2238 24.9861 9.2238 24.9911 9.2238C24.9961 9.2238 25.376 9.2238 25.8355 9.2238H38.007C38.4664 9.2238 38.8126 9.55784 38.7762 9.96625Z" fill="#E65100"/>
</svg>
