<svg width="26" height="26" viewBox="0 0 26 26" fill="none" xmlns="http://www.w3.org/2000/svg">
<path d="M23.6326 5.02798C23.4326 4.80098 23.1516 4.66998 22.8556 4.66198C20.5606 4.60198 17.6566 2.14798 15.7366 1.18498C14.5506 0.591984 13.7676 0.200984 13.1796 0.0979844C13.1186 0.0899844 13.0596 0.0839844 12.9996 0.0839844C12.9396 0.0839844 12.8806 0.0899844 12.8196 0.0989844C12.2316 0.201984 11.4486 0.592984 10.2636 1.18598C8.34364 2.14798 5.43964 4.60298 3.14464 4.66198C2.84864 4.66998 2.56664 4.80198 2.36664 5.02798C2.16464 5.25398 2.06064 5.55498 2.07564 5.86198C2.56864 15.885 6.16364 22.088 12.4716 25.693C12.6356 25.786 12.8176 25.834 12.9986 25.834C13.1796 25.834 13.3616 25.786 13.5266 25.693C19.8346 22.088 23.4286 15.885 23.9226 5.86198C23.9386 5.55498 23.8346 5.25398 23.6326 5.02798ZM11.8246 6.33598C11.8476 6.31198 11.8806 6.29798 11.9136 6.29798H13.9796C14.0126 6.29798 14.0446 6.31198 14.0686 6.33498C14.0916 6.35898 14.1046 6.39198 14.1046 6.42498L13.9366 15.32C13.9356 15.388 13.8796 15.443 13.8116 15.443H12.1416C12.0746 15.443 12.0186 15.389 12.0166 15.321L11.7876 6.42598C11.7886 6.39298 11.8016 6.35898 11.8246 6.33598ZM13.9716 18.957C13.6996 19.203 13.3736 19.327 13.0036 19.327C12.6226 19.327 12.2926 19.202 12.0236 18.957C11.7526 18.707 11.6136 18.399 11.6136 18.042C11.6136 17.674 11.7516 17.356 12.0216 17.099C12.2916 16.843 12.6216 16.713 13.0036 16.713C13.3746 16.713 13.7006 16.843 13.9726 17.099C14.2476 17.357 14.3866 17.674 14.3866 18.042C14.3866 18.399 14.2456 18.708 13.9716 18.957Z" fill="#FF0000"/>
<path d="M12.3333 15L12 6H14L13.6667 15H12.3333Z" stroke="white"/>
<path d="M13 6.5V14.5" stroke="white"/>
<path d="M12.25 18.75C12.6642 19.1642 13.3358 19.1642 13.75 18.75C14.1642 18.3358 14.1642 17.6642 13.75 17.25C13.3358 16.8358 12.6642 16.8358 12.25 17.25C11.8358 17.6642 11.8358 18.3358 12.25 18.75Z" stroke="white"/>
<path d="M12.5 18L12.75 18.25C12.8881 18.3881 13.1119 18.3881 13.25 18.25V18.25C13.3881 18.1119 13.3881 17.8881 13.25 17.75V17.75C13.1119 17.6119 12.8881 17.6119 12.75 17.75L12.5 18ZM12.5 18H13" stroke="white"/>
</svg>
