<svg width="50" height="50" viewBox="0 0 50 50" fill="none" xmlns="http://www.w3.org/2000/svg">
<path d="M34.0654 0.806641V9.59336H42.8522L34.0654 0.806641Z" fill="white"/>
<path d="M22.7911 7.31875L21.2727 6.78561C21.1679 6.7501 21.053 6.74939 20.9466 6.79028C20.6182 6.91469 20.1826 7.07695 19.9086 7.16433C19.7023 7.23045 19.4889 7.26361 19.2723 7.26361H17.8964C17.8222 7.28162 17.688 7.32699 17.5537 7.43329C17.5407 7.44367 17.5289 7.46238 17.5159 7.47408C17.4622 7.52169 17.408 7.57225 17.3598 7.64315C17.2997 7.73185 17.2466 7.84009 17.209 7.97315V10.1681V10.6981C17.209 10.6981 17.2744 12.507 18.3738 13.2348C18.3864 13.2433 18.3954 13.2501 18.4075 13.2584C18.4085 13.259 18.4097 13.2593 18.4108 13.26C18.4188 13.2654 18.4263 13.2716 18.4343 13.2771C18.5554 13.3608 18.6571 13.4344 18.7517 13.5088C19.4378 14.0475 19.9598 14.2421 20.0867 14.2381C20.1355 14.2373 20.1764 14.2389 20.2206 14.246C20.2646 14.2495 20.7569 14.289 21.3401 13.8832C21.4237 13.8249 21.5091 13.758 21.5956 13.6798C21.7814 13.512 21.9783 13.3593 22.183 13.2175C22.1893 13.2136 22.2475 13.1726 22.2539 13.1687C22.5377 12.9775 23.2347 12.3287 23.3967 10.5867V7.97009C23.373 7.86837 23.2573 7.49046 22.7911 7.31875Z" fill="white"/>
<path d="M18.5636 16.429L17.874 15.9683L18.6897 17.4516L18.8542 17.2264L18.8574 17.2224L18.9499 17.0968L19.1517 16.8221L18.5636 16.429Z" fill="white"/>
<path d="M23.5107 5.37315C23.2752 5.31639 23.0767 5.15658 22.972 4.93837C22.8672 4.71946 22.8657 4.46586 22.9689 4.24613C22.9712 4.23993 22.9745 4.22172 22.9775 4.20361C22.9602 4.20209 22.9279 4.19181 22.8775 4.1792H18.5546C17.4008 4.1792 16.4598 5.10927 16.4424 6.25907C16.4603 6.24331 16.4793 6.23303 16.4974 6.21798C16.5602 6.16569 16.6234 6.12022 16.6877 6.07607C16.7313 6.04626 16.7735 6.01463 16.8172 5.98848C16.887 5.94637 16.9555 5.91209 17.0248 5.87862C17.063 5.86011 17.101 5.83864 17.1385 5.82267C17.2151 5.79012 17.2878 5.7656 17.3604 5.74272C17.3881 5.73397 17.4172 5.72166 17.4442 5.71413C17.5414 5.68738 17.6334 5.66795 17.7158 5.65727C17.7497 5.6534 17.7843 5.65096 17.819 5.65096H19.2721C19.3217 5.65096 19.3705 5.64313 19.4177 5.62817C19.6689 5.54781 20.0698 5.39817 20.3739 5.28251C20.4916 5.23785 20.6124 5.2049 20.7347 5.18231C20.7656 5.17662 20.797 5.17712 20.8281 5.17285C20.9203 5.16003 21.0126 5.14844 21.1054 5.14803C21.1089 5.14803 21.1122 5.14712 21.1156 5.14712C21.1811 5.14712 21.2457 5.15739 21.3109 5.16349C21.3602 5.16807 21.4097 5.16766 21.4588 5.1758C21.5764 5.19533 21.6926 5.22443 21.8064 5.26451L23.3358 5.80162C23.4956 5.86031 23.6391 5.93111 23.7721 6.00852C23.8217 6.03752 23.8632 6.07078 23.9093 6.1016C23.9868 6.15399 24.0638 6.20597 24.1318 6.26304C24.1443 6.27362 24.1607 6.28227 24.173 6.29295V6.08502C24.1439 5.95197 24.0077 5.49207 23.5107 5.37315Z" fill="white"/>
<path d="M28.4569 18.6249C28.39 18.2233 28.1113 17.8877 27.7277 17.7492L24.2758 16.5L22.7165 19.3362C22.5842 19.5779 22.3378 19.7348 22.0628 19.7528C22.0448 19.7536 22.0274 19.7544 22.0101 19.7544C21.7542 19.7544 21.5124 19.633 21.3603 19.4252L20.301 17.9827L20.1955 18.1257C20.1949 18.1269 20.1938 18.1282 20.193 18.1294L20.1932 18.1296L20.1553 18.1807L20.1555 18.1808L19.2427 19.4252C19.0899 19.6331 18.8481 19.7544 18.5921 19.7544C18.5748 19.7544 18.5575 19.7536 18.5394 19.7528C18.2654 19.7348 18.018 19.5779 17.8858 19.3362L16.3258 16.5L12.8738 17.7492C12.4911 17.8877 12.2115 18.2233 12.1445 18.6249L11.7207 21.1844L11.7861 21.2608H28.8161L28.8807 21.1844L28.4569 18.6249Z" fill="white"/>
<path d="M33.2589 11.2063C32.8131 11.2063 32.4524 10.8455 32.4524 10.3999V0H6.34082V50H43.6586V11.2063H33.2589ZM10.1293 20.9207L10.5531 18.3619C10.7145 17.3854 11.3934 16.5694 12.325 16.2324L16.425 14.7486C16.425 14.7486 16.426 14.7486 16.4265 14.7484C16.4265 14.7484 16.4271 14.748 16.4274 14.7479L17.1528 14.4882V14.3252C15.6662 13.0384 15.598 10.8168 15.5958 10.7156V10.2057C15.5789 9.94507 15.5029 9.72687 15.3674 9.55872C15.02 9.12628 14.8295 8.58053 14.8295 8.02134V6.29039C14.8295 4.23645 16.5006 2.56602 18.5546 2.56602H22.964C23.016 2.56602 23.0672 2.5708 23.1176 2.58097C23.9067 2.73376 24.2658 3.14799 24.4289 3.46781C24.5368 3.68123 24.5824 3.89384 24.5919 4.08997C25.3912 4.5696 25.7149 5.40914 25.7795 5.91461C25.7834 5.94849 25.7858 5.98236 25.7858 6.01624V8.37097C25.7858 8.73403 25.6834 9.09078 25.4889 9.40267C25.1211 9.99176 25.0014 10.7454 25.0006 10.7533C24.9986 10.7669 24.9905 10.7776 24.9878 10.7908C24.7796 12.7473 24.0333 13.7667 23.4484 14.2752V14.4882L24.173 14.7477L24.1738 14.7482C24.1743 14.7484 24.1747 14.7482 24.1753 14.7484L28.2753 16.2322C29.2069 16.5685 29.8858 17.3843 30.0473 18.3617L30.471 20.9212C30.5521 21.408 30.4151 21.9041 30.0961 22.2805C29.7764 22.6578 29.3102 22.8735 28.8156 22.8735H11.7856C11.291 22.8735 10.824 22.657 10.5042 22.2805C10.1852 21.9036 10.0482 21.4082 10.1293 20.9207ZM33.9125 45.5198H10.913C10.4672 45.5198 10.1065 45.1591 10.1065 44.7133C10.1065 44.2677 10.4672 43.907 10.913 43.907H33.9125C34.3583 43.907 34.7189 44.2677 34.7189 44.7133C34.719 45.1591 34.3584 45.5198 33.9125 45.5198ZM39.0868 41.2174H10.913C10.4672 41.2174 10.1065 40.8567 10.1065 40.4111C10.1065 39.9653 10.4672 39.6046 10.913 39.6046H39.0868C39.5325 39.6046 39.8932 39.9653 39.8932 40.4111C39.8932 40.8567 39.5325 41.2174 39.0868 41.2174ZM39.0868 36.9143H10.913C10.4672 36.9143 10.1065 36.5536 10.1065 36.1078C10.1065 35.6621 10.4672 35.3014 10.913 35.3014H39.0868C39.5325 35.3014 39.8932 35.6621 39.8932 36.1078C39.8932 36.5536 39.5325 36.9143 39.0868 36.9143ZM39.0868 32.6119H10.913C10.4672 32.6119 10.1065 32.2512 10.1065 31.8055C10.1065 31.3598 10.4672 30.999 10.913 30.999H39.0868C39.5325 30.999 39.8932 31.3598 39.8932 31.8055C39.8932 32.2512 39.5325 32.6119 39.0868 32.6119ZM39.0868 28.3095H10.913C10.4672 28.3095 10.1065 27.9488 10.1065 27.5031C10.1065 27.0573 10.4672 26.6966 10.913 26.6966H39.0868C39.5325 26.6966 39.8932 27.0573 39.8932 27.5031C39.8932 27.9488 39.5325 28.3095 39.0868 28.3095Z" fill="white"/>
<path d="M21.4502 16.8224L21.9124 17.4525L22.7276 15.9688L21.4502 16.8224Z" fill="white"/>
</svg>
