<svg width="30" height="30" viewBox="0 0 30 30" fill="none" xmlns="http://www.w3.org/2000/svg">
<g clip-path="url(#clip0_5413_8)">
<path d="M15 29.7188C23.1289 29.7188 29.7188 23.1289 29.7188 15C29.7188 6.87106 23.1289 0.28125 15 0.28125C6.87106 0.28125 0.28125 6.87106 0.28125 15C0.28125 23.1289 6.87106 29.7188 15 29.7188Z" fill="#6792FF"/>
<path d="M14.8594 28.5938C22.367 28.5938 28.4531 22.5076 28.4531 15C28.4531 7.49238 22.367 1.40625 14.8594 1.40625C7.35175 1.40625 1.26562 7.49238 1.26562 15C1.26562 22.5076 7.35175 28.5938 14.8594 28.5938Z" fill="white"/>
<path d="M14.8125 28.1719C22.0871 28.1719 27.9844 22.2746 27.9844 15C27.9844 7.72537 22.0871 1.82812 14.8125 1.82812C7.53787 1.82812 1.64062 7.72537 1.64062 15C1.64062 22.2746 7.53787 28.1719 14.8125 28.1719Z" fill="#65B0E7"/>
<path d="M15.5625 11.8594H14.4375C13.6608 11.8594 13.0312 12.489 13.0312 13.2656V23.2031C13.0312 23.9798 13.6608 24.6094 14.4375 24.6094H15.5625C16.3392 24.6094 16.9688 23.9798 16.9688 23.2031V13.2656C16.9688 12.489 16.3392 11.8594 15.5625 11.8594Z" fill="white"/>
<path d="M15.5625 6.32812H14.4375C13.6608 6.32812 13.0312 6.95772 13.0312 7.73438V8.57812C13.0312 9.35478 13.6608 9.98438 14.4375 9.98438H15.5625C16.3392 9.98438 16.9688 9.35478 16.9688 8.57812V7.73438C16.9688 6.95772 16.3392 6.32812 15.5625 6.32812Z" fill="white"/>
</g>
<defs>
<clipPath id="clip0_5413_8">
<rect width="30" height="30" fill="white"/>
</clipPath>
</defs>
</svg>
