<svg width="50" height="50" viewBox="0 0 50 50" fill="none" xmlns="http://www.w3.org/2000/svg">
<g clip-path="url(#clip0_5444_119)">
<rect x="1.18945" y="22.4023" width="30" height="30.6614" transform="rotate(-45 1.18945 22.4023)" fill="white" fill-opacity="0.75"/>
<path d="M49.057 22.7727L27.2266 0.943408C25.9701 -0.313818 23.9311 -0.313818 22.673 0.943408L18.1398 5.47661L23.8904 11.2272C25.2268 10.7756 26.7592 11.0786 27.8244 12.1438C28.8947 13.2159 29.1955 14.7614 28.733 16.102L34.275 21.6442C35.6158 21.1823 37.1629 21.4811 38.2338 22.5538C39.7305 24.0499 39.7305 26.4747 38.2338 27.9717C36.7367 29.469 34.3119 29.469 32.8141 27.9717C31.6883 26.8448 31.4102 25.1915 31.9801 23.8045L26.8117 18.6362L26.8111 32.2372C27.1858 32.4224 27.528 32.6671 27.8244 32.9618C29.3211 34.4579 29.3211 36.8829 27.8244 38.3811C26.3273 39.8776 23.9014 39.8776 22.4064 38.3811C20.9098 36.8829 20.9098 34.4581 22.4064 32.962C22.7651 32.6031 23.1914 32.3189 23.6605 32.1258V18.3981C23.1907 18.2063 22.7642 17.9219 22.4064 17.562C21.2725 16.4295 20.9998 14.7657 21.5809 13.3733L15.9121 7.70396L0.943359 22.6717C-0.314453 23.9301 -0.314453 25.9694 0.943359 27.2268L22.7742 49.0565C24.0311 50.3139 26.0697 50.3139 27.3281 49.0565L49.0568 27.3282C50.3143 26.0704 50.3145 24.0299 49.057 22.7727Z" fill="#DE4C36"/>
</g>
<defs>
<clipPath id="clip0_5444_119">
<rect width="50" height="50" fill="white"/>
</clipPath>
</defs>
</svg>
