<svg width="50" height="50" viewBox="0 0 50 50" fill="none" xmlns="http://www.w3.org/2000/svg">
<path d="M42.3535 34.3758L32.9755 24.9988L42.3505 15.6228C42.739 15.2343 42.739 14.6048 42.3505 14.2163L35.783 7.64733C35.3945 7.25883 34.7645 7.25883 34.376 7.64733L24.9995 17.0233L15.6245 7.64733C15.2515 7.27383 14.591 7.27383 14.2175 7.64733L7.64847 14.2153C7.46197 14.4018 7.35697 14.6553 7.35697 14.9188C7.35697 15.1823 7.46197 15.4358 7.64847 15.6223L17.025 24.9988L7.64697 34.3763C7.46047 34.5633 7.35547 34.8163 7.35547 35.0798C7.35547 35.3438 7.46047 35.5973 7.64697 35.7833L14.215 42.3518C14.4015 42.5383 14.6555 42.6433 14.92 42.6433C15.1825 42.6433 15.4355 42.5383 15.622 42.3518L24.9995 32.9743L34.3775 42.3513C34.572 42.5453 34.8255 42.6428 35.081 42.6428C35.3365 42.6428 35.5905 42.5453 35.785 42.3513L42.354 35.7828C42.742 35.3943 42.742 34.7648 42.3535 34.3758Z" fill="#FF0000"/>
</svg>
