<?xml version="1.0" encoding="utf-8"?><svg viewBox="0 0 400 350" xmlns="http://www.w3.org/2000/svg" xmlns:xlink="http://www.w3.org/1999/xlink"><style>:root>svg{display:none}:root>svg:target{display:block}</style><svg viewBox="0 0 360 210" id="eye" xmlns="http://www.w3.org/2000/svg"><defs><linearGradient y2="0" x2="1" y1="1" x1="0" id="aaa"><stop offset="14%" stop-color="#002296"/><stop offset="28%" stop-color="#82008f"/><stop offset="42%" stop-color="#c0007a"/><stop offset="56%" stop-color="#ea0c5f"/><stop offset="70%" stop-color="#ff5341"/><stop offset="84%" stop-color="#ff8820"/><stop offset="100%" stop-color="#f6ba00"/></linearGradient></defs><path transform="matrix(.005 0 0 .005 283.575 388.05)" d="M16 8.286C8.454 8.286 2.5 16 2.5 16s5.954 7.715 13.5 7.715c5.771 0 13.5-7.715 13.5-7.715S21.771 8.286 16 8.286zm0 12.521c-2.649 0-4.807-2.157-4.807-4.807s2.158-4.807 4.807-4.807 4.807 2.158 4.807 4.807-2.158 4.807-4.807 4.807zm0-7.613a2.806 2.806 0 100 5.613 2.806 2.806 0 000-5.613z" opacity="NaN" fill="url(#linear-gradient)"/><path transform="matrix(.005 0 0 .005 238.8 408.945)" d="M16 8.286C8.454 8.286 2.5 16 2.5 16s5.954 7.715 13.5 7.715c5.771 0 13.5-7.715 13.5-7.715S21.771 8.286 16 8.286zm0 12.521c-2.649 0-4.807-2.157-4.807-4.807s2.158-4.807 4.807-4.807 4.807 2.158 4.807 4.807-2.158 4.807-4.807 4.807zm0-7.613a2.806 2.806 0 100 5.613 2.806 2.806 0 000-5.613z" opacity="NaN" fill="url(#linear-gradient)"/><path transform="matrix(.005 0 0 .005 198.005 415.91)" d="M16 8.286C8.454 8.286 2.5 16 2.5 16s5.954 7.715 13.5 7.715c5.771 0 13.5-7.715 13.5-7.715S21.771 8.286 16 8.286zm0 12.521c-2.649 0-4.807-2.157-4.807-4.807s2.158-4.807 4.807-4.807 4.807 2.158 4.807 4.807-2.158 4.807-4.807 4.807zm0-7.613a2.806 2.806 0 100 5.613 2.806 2.806 0 000-5.613z" opacity="NaN" fill="url(#linear-gradient)"/><path transform="matrix(.005 0 0 .005 198.005 415.91)" d="M16 8.286C8.454 8.286 2.5 16 2.5 16s5.954 7.715 13.5 7.715c5.771 0 13.5-7.715 13.5-7.715S21.771 8.286 16 8.286zm0 12.521c-2.649 0-4.807-2.157-4.807-4.807s2.158-4.807 4.807-4.807 4.807 2.158 4.807 4.807-2.158 4.807-4.807 4.807zm0-7.613a2.806 2.806 0 100 5.613 2.806 2.806 0 000-5.613z" opacity="NaN" fill="url(#linear-gradient)"/><path transform="matrix(.005 0 0 .005 284.57 485.56)" d="M16 8.286C8.454 8.286 2.5 16 2.5 16s5.954 7.715 13.5 7.715c5.771 0 13.5-7.715 13.5-7.715S21.771 8.286 16 8.286zm0 12.521c-2.649 0-4.807-2.157-4.807-4.807s2.158-4.807 4.807-4.807 4.807 2.158 4.807 4.807-2.158 4.807-4.807 4.807zm0-7.613a2.806 2.806 0 100 5.613 2.806 2.806 0 000-5.613z" opacity="NaN" fill="url(#linear-gradient)"/><path transform="matrix(.005 0 0 .005 283.575 484.565)" d="M16 8.286C8.454 8.286 2.5 16 2.5 16s5.954 7.715 13.5 7.715c5.771 0 13.5-7.715 13.5-7.715S21.771 8.286 16 8.286zm0 12.521c-2.649 0-4.807-2.157-4.807-4.807s2.158-4.807 4.807-4.807 4.807 2.158 4.807 4.807-2.158 4.807-4.807 4.807zm0-7.613a2.806 2.806 0 100 5.613 2.806 2.806 0 000-5.613z" opacity="NaN" fill="url(#linear-gradient)"/><path transform="matrix(.005 0 0 .005 283.575 484.565)" d="M16 8.286C8.454 8.286 2.5 16 2.5 16s5.954 7.715 13.5 7.715c5.771 0 13.5-7.715 13.5-7.715S21.771 8.286 16 8.286zm0 12.521c-2.649 0-4.807-2.157-4.807-4.807s2.158-4.807 4.807-4.807 4.807 2.158 4.807 4.807-2.158 4.807-4.807 4.807zm0-7.613a2.806 2.806 0 100 5.613 2.806 2.806 0 000-5.613z" opacity="NaN" fill="url(#linear-gradient)"/><path transform="matrix(.005 0 0 .005 206.96 403.97)" d="M16 8.286C8.454 8.286 2.5 16 2.5 16s5.954 7.715 13.5 7.715c5.771 0 13.5-7.715 13.5-7.715S21.771 8.286 16 8.286zm0 12.521c-2.649 0-4.807-2.157-4.807-4.807s2.158-4.807 4.807-4.807 4.807 2.158 4.807 4.807-2.158 4.807-4.807 4.807zm0-7.613a2.806 2.806 0 100 5.613 2.806 2.806 0 000-5.613z" opacity="NaN" fill="url(#linear-gradient)"/><path transform="matrix(.005 0 0 .005 168.155 224.87)" d="M16 8.286C8.454 8.286 2.5 16 2.5 16s5.954 7.715 13.5 7.715c5.771 0 13.5-7.715 13.5-7.715S21.771 8.286 16 8.286zm0 12.521c-2.649 0-4.807-2.157-4.807-4.807s2.158-4.807 4.807-4.807 4.807 2.158 4.807 4.807-2.158 4.807-4.807 4.807zm0-7.613a2.806 2.806 0 100 5.613 2.806 2.806 0 000-5.613z" opacity="NaN" fill="url(#linear-gradient)"/><path transform="matrix(.005 0 0 .005 187.06 207.955)" d="M16 8.286C8.454 8.286 2.5 16 2.5 16s5.954 7.715 13.5 7.715c5.771 0 13.5-7.715 13.5-7.715S21.771 8.286 16 8.286zm0 12.521c-2.649 0-4.807-2.157-4.807-4.807s2.158-4.807 4.807-4.807 4.807 2.158 4.807 4.807-2.158 4.807-4.807 4.807zm0-7.613a2.806 2.806 0 100 5.613 2.806 2.806 0 000-5.613z" opacity="NaN" fill="url(#linear-gradient)"/><path transform="matrix(.005 0 0 .005 195.02 424.865)" d="M16 8.286C8.454 8.286 2.5 16 2.5 16s5.954 7.715 13.5 7.715c5.771 0 13.5-7.715 13.5-7.715S21.771 8.286 16 8.286zm0 12.521c-2.649 0-4.807-2.157-4.807-4.807s2.158-4.807 4.807-4.807 4.807 2.158 4.807 4.807-2.158 4.807-4.807 4.807zm0-7.613a2.806 2.806 0 100 5.613 2.806 2.806 0 000-5.613z" opacity="NaN" fill="url(#linear-gradient)"/><path transform="matrix(.005 0 0 .005 108.455 420.885)" d="M16 8.286C8.454 8.286 2.5 16 2.5 16s5.954 7.715 13.5 7.715c5.771 0 13.5-7.715 13.5-7.715S21.771 8.286 16 8.286zm0 12.521c-2.649 0-4.807-2.157-4.807-4.807s2.158-4.807 4.807-4.807 4.807 2.158 4.807 4.807-2.158 4.807-4.807 4.807zm0-7.613a2.806 2.806 0 100 5.613 2.806 2.806 0 000-5.613z" opacity="NaN" fill="url(#linear-gradient)"/><path transform="matrix(.005 0 0 .005 108.455 420.885)" d="M16 8.286C8.454 8.286 2.5 16 2.5 16s5.954 7.715 13.5 7.715c5.771 0 13.5-7.715 13.5-7.715S21.771 8.286 16 8.286zm0 12.521c-2.649 0-4.807-2.157-4.807-4.807s2.158-4.807 4.807-4.807 4.807 2.158 4.807 4.807-2.158 4.807-4.807 4.807zm0-7.613a2.806 2.806 0 100 5.613 2.806 2.806 0 000-5.613z" opacity="NaN" fill="url(#linear-gradient)"/><path transform="matrix(.005 0 0 .005 108.455 420.885)" d="M16 8.286C8.454 8.286 2.5 16 2.5 16s5.954 7.715 13.5 7.715c5.771 0 13.5-7.715 13.5-7.715S21.771 8.286 16 8.286zm0 12.521c-2.649 0-4.807-2.157-4.807-4.807s2.158-4.807 4.807-4.807 4.807 2.158 4.807 4.807-2.158 4.807-4.807 4.807zm0-7.613a2.806 2.806 0 100 5.613 2.806 2.806 0 000-5.613z" opacity="NaN" fill="url(#linear-gradient)"/><path transform="matrix(.005 0 0 .005 213.925 436.805)" d="M21.053 20.8c-1.132-.453-1.584-1.698-1.584-1.698s-.51.282-.51-.51.51.51 1.02-2.548c0 0 1.414-.397 1.132-3.68h-.34s.849-3.51 0-4.699c-.85-1.189-1.189-1.981-3.058-2.548s-1.188-.454-2.547-.396c-1.359.057-2.492.792-2.492 1.188 0 0-.849.057-1.188.397-.34.34-.906 1.924-.906 2.321s.283 3.058.566 3.624l-.337.113c-.283 3.283 1.132 3.68 1.132 3.68.509 3.058 1.019 1.756 1.019 2.548s-.51.51-.51.51-.452 1.245-1.584 1.698c-1.132.452-7.416 2.886-7.927 3.396-.511.511-.453 2.888-.453 2.888h26.947s.059-2.377-.452-2.888c-.512-.51-6.796-2.944-7.928-3.396zm-12.47-.172c-.099-.18-.148-.31-.148-.31s-.432.239-.432-.432.432.432.864-2.159c0 0 1.199-.336.959-3.119h-.288s.143-.591.237-1.334a10.01 10.01 0 01.037-.996l.038-.426c-.021-.492-.107-.939-.312-1.226-.72-1.007-1.008-1.679-2.591-2.159-1.583-.48-1.008-.385-2.159-.336-1.152.048-2.112.671-2.112 1.008 0 0-.72.048-1.008.336-.271.271-.705 1.462-.757 1.885v.281c.047.653.258 2.449.469 2.872l-.286.096c-.239 2.783.959 3.119.959 3.119.432 2.591.864 1.488.864 2.159s-.432.432-.432.432-.383 1.057-1.343 1.439l-.232.092v5.234h.575c-.029-1.278.077-2.927.746-3.594.356-.355 1.523-.939 6.352-2.862zm22.33-9.056c-.04-.378-.127-.715-.292-.946-.719-1.008-1.008-1.679-2.59-2.159-1.584-.48-1.008-.385-2.16-.336-1.151.048-2.111.671-2.111 1.008 0 0-.719.048-1.008.336-.271.272-.709 1.472-.758 1.891h.033l.08.913c.02.231.022.436.027.645.09.666.21 1.35.33 1.589l-.286.096c-.239 2.783.96 3.119.96 3.119.432 2.591.863 1.488.863 2.159s-.432.432-.432.432-.053.142-.163.338c4.77 1.9 5.927 2.48 6.279 2.834.67.667.775 2.315.746 3.594h.48v-5.306a1.4 1.4 0 01-.052-.021c-.959-.383-1.343-1.439-1.343-1.439s-.433.239-.433-.432.433.432.864-2.159c0 0 .804-.229.963-1.841V14.66l-.003-.051h-.289s.215-.89.292-1.861v-1.176h.003z" opacity="NaN" fill="url(#linear-gradient)"/><path transform="matrix(.005 0 0 .005 278.6 520.385)" d="M21.053 20.8c-1.132-.453-1.584-1.698-1.584-1.698s-.51.282-.51-.51.51.51 1.02-2.548c0 0 1.414-.397 1.132-3.68h-.34s.849-3.51 0-4.699c-.85-1.189-1.189-1.981-3.058-2.548s-1.188-.454-2.547-.396c-1.359.057-2.492.792-2.492 1.188 0 0-.849.057-1.188.397-.34.34-.906 1.924-.906 2.321s.283 3.058.566 3.624l-.337.113c-.283 3.283 1.132 3.68 1.132 3.68.509 3.058 1.019 1.756 1.019 2.548s-.51.51-.51.51-.452 1.245-1.584 1.698c-1.132.452-7.416 2.886-7.927 3.396-.511.511-.453 2.888-.453 2.888h26.947s.059-2.377-.452-2.888c-.512-.51-6.796-2.944-7.928-3.396zm-12.47-.172c-.099-.18-.148-.31-.148-.31s-.432.239-.432-.432.432.432.864-2.159c0 0 1.199-.336.959-3.119h-.288s.143-.591.237-1.334a10.01 10.01 0 01.037-.996l.038-.426c-.021-.492-.107-.939-.312-1.226-.72-1.007-1.008-1.679-2.591-2.159-1.583-.48-1.008-.385-2.159-.336-1.152.048-2.112.671-2.112 1.008 0 0-.72.048-1.008.336-.271.271-.705 1.462-.757 1.885v.281c.047.653.258 2.449.469 2.872l-.286.096c-.239 2.783.959 3.119.959 3.119.432 2.591.864 1.488.864 2.159s-.432.432-.432.432-.383 1.057-1.343 1.439l-.232.092v5.234h.575c-.029-1.278.077-2.927.746-3.594.356-.355 1.523-.939 6.352-2.862zm22.33-9.056c-.04-.378-.127-.715-.292-.946-.719-1.008-1.008-1.679-2.59-2.159-1.584-.48-1.008-.385-2.16-.336-1.151.048-2.111.671-2.111 1.008 0 0-.719.048-1.008.336-.271.272-.709 1.472-.758 1.891h.033l.08.913c.02.231.022.436.027.645.09.666.21 1.35.33 1.589l-.286.096c-.239 2.783.96 3.119.96 3.119.432 2.591.863 1.488.863 2.159s-.432.432-.432.432-.053.142-.163.338c4.77 1.9 5.927 2.48 6.279 2.834.67.667.775 2.315.746 3.594h.48v-5.306a1.4 1.4 0 01-.052-.021c-.959-.383-1.343-1.439-1.343-1.439s-.433.239-.433-.432.433.432.864-2.159c0 0 .804-.229.963-1.841V14.66l-.003-.051h-.289s.215-.89.292-1.861v-1.176h.003z" opacity="NaN" fill="url(#linear-gradient)"/><path transform="matrix(.005 0 0 .005 -141.29 566.155)" d="M16 8.286C8.454 8.286 2.5 16 2.5 16s5.954 7.715 13.5 7.715c5.771 0 13.5-7.715 13.5-7.715S21.771 8.286 16 8.286zm0 12.521c-2.649 0-4.807-2.157-4.807-4.807s2.158-4.807 4.807-4.807 4.807 2.158 4.807 4.807-2.158 4.807-4.807 4.807zm0-7.613a2.806 2.806 0 100 5.613 2.806 2.806 0 000-5.613z" opacity="NaN" fill="url(#svg_17)"/><path stroke="null" d="M180 3.5C81.902 3.5 4.5 104.993 4.5 104.993S81.902 206.5 180 206.5c75.023 0 175.5-101.507 175.5-101.507S255.023 3.5 180 3.5zm0 164.74c-34.437 0-62.491-28.38-62.491-63.247S145.563 41.748 180 41.748s62.491 28.392 62.491 63.245S214.437 168.24 180 168.24zm0-100.165c-20.137 0-36.478 16.525-36.478 36.918 0 20.394 16.328 36.92 36.478 36.92 20.15 0 36.478-16.526 36.478-36.92 0-20.38-16.328-36.918-36.478-36.918z" fill="url(#aaa)"/></svg><svg fill="none" viewBox="0 0 24 24" id="icon-arrow-right" xmlns="http://www.w3.org/2000/svg"><path d="M7.77 23.58l-2.24-2a.5.5 0 010-.71l7.9-8.87L5.5 3.13a.5.5 0 010-.71l2.24-2a.5.5 0 01.71 0L18.8 12 8.48 23.54a.501.501 0 01-.71.04z" fill="#fff"/></svg><svg data-name="Layer 1" viewBox="0 0 64 64" id="icon-browser" xmlns="http://www.w3.org/2000/svg"><path d="M58.42 41.65h-15c-2.17 3.84-5.18 6-10.37 6-6.38 0-10.93-5.53-11.09-11.16h37c.93-18.25-11-29.44-25.21-29.44C17.78 7 9.25 16 7.25 27.24 5 40.5 8.88 59.41 31.92 59.41c13.01 0 22.67-6.68 26.5-17.76zM33 19.06A10.58 10.58 0 0143.83 29H22.11A11 11 0 0133 19.06z" fill="#85cbf8"/><path d="M55.43 31.8a22.21 22.21 0 10-2.31 9.85h-9.71c-2.17 3.84-5.18 6-10.37 6-6.39 0-10.93-5.54-11.09-11.16h33a22 22 0 00.48-4.69zM22.11 29A11 11 0 0133 19.06 10.57 10.57 0 0143.83 29z" fill="#85cbf8"/><path d="M58.42 41.65c-3.83 11.08-13.49 17.76-26.5 17.76-9.42 0-15.63-3.16-19.53-7.8l1.95-1.95a4 4 0 015.23-.37 22.19 22.19 0 0033.55-7.65z" fill="#6fc6f0"/><path d="M57.74 25.33l-1 .33A3 3 0 0153.06 24a21.39 21.39 0 00-4.27-6.63 20.5 20.5 0 00-15.06-6.29h-.13a33 33 0 00-4.23.26A3 3 0 0126 9.19l-.37-1.28a35.5 35.5 0 018.07-.85c11.04 0 20.7 6.74 24.04 18.27z" fill="#9fddff"/><path d="M33 18.06a12 12 0 00-11.89 10.87 1 1 0 001 1.05h21.72a1 1 0 001-1A11.64 11.64 0 0033 18.06zM23.24 28A10 10 0 0133 20.06 9.69 9.69 0 0142.73 28zM33 56a1 1 0 001-1v-2a1 1 0 00-2 0v2a1 1 0 001 1zm4.6-1.47a1 1 0 001.93-.53L39 52.08a1 1 0 00-1.93.52zM21.75 53a1 1 0 001.37-.37l1-1.73a1 1 0 00-1.73-1l-1 1.73a1 1 0 00.36 1.37zm21.13-.38a1 1 0 101.73-1l-1-1.73a1 1 0 00-1.73 1zm-15.7 2.61a1 1 0 001.22-.71l.52-1.93a1 1 0 10-1.92-.51L26.47 54a1 1 0 00.71 1.23zm13.17-41.91a21.1 21.1 0 012.1.92 1 1 0 00.45.11 1 1 0 00.45-1.89 22.71 22.71 0 00-2.3-1 1 1 0 00-.7 1.87zm6.82 1.56a1 1 0 00-1.23 1.57 21.13 21.13 0 015.61 6.68 1 1 0 001.77-.94 23 23 0 00-4-5.46 23.28 23.28 0 00-2.15-1.85z" fill="#8d6c9f"/><path d="M57.45 7c-3.63-3.63-10.18-3.49-17.72-.3a27.67 27.67 0 00-6.12-.69c-14.78 0-25 7.85-27.34 21a38.28 38.28 0 00-.14 12.37C2.24 47.67 1.81 54.91 5.7 58.8a10.18 10.18 0 007.47 2.7 25.78 25.78 0 009.2-2 1 1 0 00.37-.26 33.91 33.91 0 009.19 1.17c13.19 0 23.45-6.89 27.44-18.43a1 1 0 00-.95-1.33h-15a1 1 0 00-.87.51c-2.17 3.85-5 5.5-9.5 5.5-5.63 0-9.4-4.58-10-9.16H59a1 1 0 001-.95 34.22 34.22 0 00-1.74-13C61 16.23 60.77 10.37 57.45 7zM56 8.46c2.39 2.4 2.74 6.81 1 12.3a26 26 0 00-4.65-6.86A24.84 24.84 0 0043 7.71c5.66-1.94 10.43-1.86 13 .75zm-47.8 19c2.19-12.17 11.67-19.4 25.41-19.4h.13a25.47 25.47 0 012.85.16A70.16 70.16 0 0019.62 21 72.16 72.16 0 007.78 36.25a37.41 37.41 0 01.46-8.83zm-1.12 30c-2.83-2.83-2.69-8.18-.23-14.47a24.58 24.58 0 004.76 9.36 21.3 21.3 0 008.26 6c-5.69 1.79-10.29 1.5-12.76-.97zM58 35.5H22a1 1 0 00-1 1c.16 5.83 4.83 12.13 12.09 12.13 5 0 8.46-1.91 10.95-6H57c-4 10-13.09 15.76-25.06 15.76-8.29 0-14.6-2.5-18.76-7.42a23.82 23.82 0 01-4.95-11.12A66.93 66.93 0 0121 22.38 65.17 65.17 0 0140 8.86a23 23 0 0111 6.42c4.79 5.07 7.2 12.05 7 20.22z" fill="#8d6c9f"/></svg><svg viewBox="0 0 32 32" id="icon-css" xmlns="http://www.w3.org/2000/svg"><path d="M5.902 27.201L3.656 2h24.688l-2.249 25.197L15.985 30 5.902 27.201z" fill="#1572b6"/><path d="M16 27.858l8.17-2.265 1.922-21.532H16v23.797z" fill="#33a9dc"/><path d="M16 13.191h4.09l.282-3.165H16V6.935h7.75l-.074.829-.759 8.518H16v-3.091z" fill="#fff"/><path d="M16.019 21.218l-.014.004-3.442-.93-.22-2.465H9.24l.433 4.853 6.331 1.758.015-.004v-3.216z" fill="#ebebeb"/><path d="M19.827 16.151l-.372 4.139-3.447.93v3.216l6.336-1.756.047-.522.537-6.007h-3.101z" fill="#fff"/><path d="M16.011 6.935v3.091H8.545l-.062-.695-.141-1.567-.074-.829h7.743zM16 13.191v3.091h-3.399l-.062-.695-.14-1.567-.074-.829H16z" fill="#ebebeb"/></svg><svg fill="none" viewBox="0 0 50 50" id="icon-email" xmlns="http://www.w3.org/2000/svg"><g clip-path="url(#aea)"><circle cx="25" cy="25" r="25" fill="#E23131"/><path d="M39.146 23.244c-.13 2.892-.869 5.188-2.217 6.888-1.35 1.7-3.164 2.549-5.44 2.549-1.006 0-1.873-.21-2.604-.627a4.016 4.016 0 01-1.656-1.795c-1.167 1.581-2.693 2.373-4.573 2.373-1.705 0-3.026-.696-3.959-2.085-.934-1.39-1.286-3.224-1.052-5.506.21-1.863.699-3.523 1.464-4.974.764-1.45 1.731-2.567 2.899-3.346 1.168-.78 2.43-1.17 3.785-1.17 1.67 0 3.095.374 4.275 1.12l1.104.728-.893 9.793c-.117.892-.015 1.576.307 2.049.32.475.832.712 1.532.712 1.075 0 1.974-.608 2.698-1.823.724-1.213 1.122-2.802 1.192-4.769.198-3.942-.621-6.973-2.46-9.09-1.84-2.117-4.566-3.177-8.174-3.177-2.255 0-4.264.554-6.027 1.661-1.764 1.108-3.155 2.681-4.17 4.72-1.017 2.038-1.59 4.373-1.719 7.005-.186 3.998.643 7.091 2.49 9.276 1.844 2.186 4.607 3.278 8.287 3.278.97 0 1.985-.103 3.049-.313 1.061-.21 1.98-.49 2.75-.838l.666 2.608c-.713.453-1.673.818-2.884 1.094a16.214 16.214 0 01-3.652.415c-3.084 0-5.712-.602-7.884-1.803-2.173-1.204-3.794-2.976-4.862-5.321-1.069-2.344-1.533-5.144-1.394-8.395.14-3.12.876-5.914 2.209-8.387 1.33-2.474 3.144-4.386 5.44-5.734 2.294-1.35 4.885-2.026 7.77-2.026 2.93 0 5.455.607 7.569 1.821 2.113 1.213 3.696 2.95 4.748 5.21 1.052 2.258 1.514 4.884 1.386 7.879zm-17.61 1.795c-.13 1.491.006 2.624.403 3.397.396.774 1.04 1.163 1.927 1.163.572 0 1.115-.244 1.63-.73.513-.486.94-1.186 1.278-2.101l.736-8.015a4.515 4.515 0 00-1.4-.22c-1.344 0-2.387.554-3.128 1.66-.743 1.107-1.225 2.724-1.446 4.846z" fill="#fff"/></g><defs><clipPath id="aea"><path fill="#fff" d="M0 0h50v50H0z"/></clipPath></defs></svg><svg fill="none" viewBox="0 0 30 30" id="icon-eye" xmlns="http://www.w3.org/2000/svg"><path d="M15 7.2C7 7.2.75 14.606.75 14.606a.6.6 0 000 .788S7 22.8 15 22.8s14.25-7.406 14.25-7.406a.6.6 0 000-.788S23 7.2 15 7.2zm0 1.2c1.576 0 3.085.327 4.481.825A5.99 5.99 0 0115 19.2a5.99 5.99 0 01-6-6c0-1.53.561-2.916 1.5-3.975 1.4-.502 2.917-.825 4.5-.825zm-6.488 1.706A7.155 7.155 0 007.8 13.2c0 3.97 3.23 7.2 7.2 7.2s7.2-3.23 7.2-7.2a7.254 7.254 0 00-.694-3.094c3.39 1.723 5.827 4.22 6.45 4.894-.975 1.054-6.374 6.6-12.956 6.6-6.583 0-11.982-5.546-12.956-6.6.623-.674 3.071-3.17 6.468-4.894zM15 10.2a3 3 0 100 6 3 3 0 000-6z" fill="#fff"/></svg><svg viewBox="0 0 24 24" id="icon-figma" xmlns="http://www.w3.org/2000/svg"><g fill="none" fill-rule="evenodd" transform="translate(4)"><circle cx="12" cy="12" r="4" fill="#19BCFE"/><path fill="#09CF83" d="M4 24a4 4 0 004-4v-4H4a4 4 0 100 8z"/><path fill="#A259FF" d="M4 16h4V8H4a4 4 0 100 8z"/><path fill="#F24E1E" d="M4 8h4V0H4a4 4 0 100 8z"/><path fill="#FF7262" d="M12 8H8V0h4a4 4 0 110 8z"/></g></svg><svg fill="none" viewBox="0 0 50 50" id="icon-git" xmlns="http://www.w3.org/2000/svg"><g clip-path="url(#aha)"><path fill="#fff" fill-opacity=".75" d="M1.189 22.402L22.402 1.19l21.68 21.68L22.87 44.084z"/><path d="M49.057 22.773L27.227.943a3.22 3.22 0 00-4.554 0L18.14 5.477l5.75 5.75a3.822 3.822 0 014.843 4.875l5.542 5.542a3.83 3.83 0 013.959 6.327 3.831 3.831 0 01-6.254-4.166l-5.168-5.169v13.601a3.832 3.832 0 11-3.15-.111V18.398a3.83 3.83 0 01-2.08-5.025l-5.67-5.669L.943 22.672a3.221 3.221 0 000 4.555l21.831 21.83a3.22 3.22 0 004.554 0l21.729-21.729a3.222 3.222 0 000-4.555z" fill="#DE4C36"/></g><defs><clipPath id="aha"><path fill="#fff" d="M0 0h50v50H0z"/></clipPath></defs></svg><svg fill="none" viewBox="0 0 30 30" id="icon-github" xmlns="http://www.w3.org/2000/svg"><path fill-rule="evenodd" clip-rule="evenodd" d="M15 3.75C8.786 3.75 3.75 8.787 3.75 15c0 4.97 3.223 9.188 7.694 10.675.563.103.768-.243.768-.542 0-.267-.01-.975-.015-1.913-3.13.68-3.79-1.508-3.79-1.508-.511-1.3-1.248-1.646-1.248-1.646-1.022-.698.077-.683.077-.683 1.128.08 1.723 1.16 1.723 1.16 1.003 1.719 2.633 1.222 3.274.934.102-.726.392-1.222.714-1.504-2.499-.284-5.124-1.248-5.124-5.56 0-1.228.438-2.232 1.157-3.019-.115-.285-.501-1.428.11-2.977 0 0 .946-.303 3.095 1.153.897-.25 1.86-.374 2.816-.379.955.005 1.918.13 2.816.379 2.148-1.456 3.091-1.153 3.091-1.153.614 1.549.228 2.692.112 2.977.72.787 1.156 1.791 1.156 3.02 0 4.321-2.631 5.272-5.137 5.55.404.347.764 1.034.764 2.083 0 1.504-.014 2.717-.014 3.086 0 .301.203.651.773.541 4.468-1.491 7.688-5.704 7.688-10.673C26.25 8.787 21.213 3.75 15 3.75z" fill="#fff"/></svg><svg fill="none" viewBox="0 0 50 50" id="icon-gulp" xmlns="http://www.w3.org/2000/svg"><rect x="13.86" y="20.879" width="19.89" height="14.393" rx="7.196" transform="rotate(-10.5 13.86 20.879)" fill="#fff"/><path d="M31.12 48.476l.48-7.989 1.324-2.26s-3.013 1.233-8.057 1.233c-5.045 0-8.012-1.21-8.012-1.21l1.484 2.465.525 7.76c0 .833 2.743 1.507 6.128 1.507 3.385 0 6.128-.674 6.128-1.506M29.608 11.17l1.006-3.978 5.573-5.863-1.469-1.25-5.9 6.246-1.168 4.752a77.42 77.42 0 00-2.639-.044c-6.213 0-11.25.708-11.25 1.581 0 .874 5.037 1.582 11.25 1.582s11.25-.708 11.25-1.582c0-.643-2.731-1.196-6.653-1.443" fill="#D34A47"/><path d="M36.175 1.342c.14-.162-.072-.576-.474-.925-.403-.348-.843-.5-.983-.338-.14.162.072.576.475.924.402.349.842.5.982.339zm-5.323 27.622c-.132-1.271 2.78-3.111 2.032-3.17-1.608.092-2.409 1.885-3.218 3.763-.297.688-1.312 3.623-1.977 3.261-.666-.36.863-2.774 1.29-4.207-.493.362-2.306 1.77-2.773.451-.75.638-2.355.984-2.174-.692-.4.708-1.296 1.696-2.372 1.285-1.413-.539.819-5.04 1.374-4.813.555.227-.112 1.252-.287 1.65-.384.877-.828 1.979-.532 2.204.508.387 1.89-1.462 1.922-1.502.258-.342.995-2.577 1.588-2.32.594.257-1.48 3.207-.705 3.793.157.118.797-.073 1.186-.494.252-.273.166-.876 1.005-2.88.84-2.002 1.589-4.496 2.165-4.306.576.19.1 1.47-.106 1.947-.97 2.24-2.646 5.94-1.855 5.66.79-.28 1.202-.296 1.977-1.202.774-.907.738-2.399 1.254-2.367.517.032.43.51.305.874.508-.58 2.407-1.805 2.866-.593.543 1.436-2.718 3.51-1.905 3.403.793-.103 2.077-.916 2.626-1.656l1.51-13.571s-1.52 1.257-11.183 1.257c-9.664 0-11.026-1.23-11.026-1.23l1.285 12.386c.682-1.938 2.302-5.86 4.855-5.728 1.162.06 2.712 2.296 1.384 2.372-.562.032-.619-1.116-1.285-1.285-.48-.122-1.149.269-1.581.692-.862.843-2.716 4.172-2.471 5.831.312 2.116 2.92-.735 3.36-1.581.311-.596.521-2.363 1.2-2.177.68.185-.059 2.008-.551 3.62-.554 1.81-.845 3.719-1.538 3.499-.694-.22.436-2.556.395-2.965-.652.601-1.853 2.124-3.39 1.37l.799 7.693s2.121 1.676 8.511 1.676c6.39 0 8.59-1.65 8.59-1.65l.991-8.91c-.81.79-3.377 2.192-3.541.612z" fill="#D34A47"/></svg><svg fill="none" viewBox="0 0 50 50" id="icon-html" xmlns="http://www.w3.org/2000/svg"><path fill="#fff" d="M10 8h30v34H10z"/><path d="M3.734 0a.752.752 0 00-.761.832l3.874 43.455c.04.458.436.933.88 1.056l16.44 4.564c.442.123 1.167.123 1.61 0l16.49-4.571c.442-.123.838-.598.88-1.056L47.026.832a.752.752 0 00-.76-.832H3.734zm35.042 9.966l-.14 1.575-.103 1.14-.13 1.454c-.03.342-.06.622-.065.622H18.006a.752.752 0 00-.76.832l.358 4.003c.04.458.45.832.91.832h18.583a.67.67 0 01.678.743c-.038.408-.101 1.117-.142 1.574L36.48 35.646l-.115 1.3c-.023.257-.404.567-.847.69l-9.714 2.694-.817.226c-.007.001-.375-.098-.818-.221l-9.725-2.699c-.443-.123-.838-.598-.88-1.055l-.625-7.026a.753.753 0 01.761-.832h3.882c.46 0 .87.374.91.832l.246 2.75c.04.458.437.93.88 1.05l4.55 1.229c.443.12.807.217.81.217l.81-.218 4.556-1.231c.444-.12.84-.592.882-1.05l.494-5.51a.752.752 0 00-.761-.833H13.454a.933.933 0 01-.91-.832l-1.212-13.586-.141-1.575c-.036-.408.31-.742.77-.742h26.046c.46 0 .806.334.77.742z" fill="#E65100"/></svg><svg fill="none" viewBox="0 0 30 30" id="icon-info" xmlns="http://www.w3.org/2000/svg"><g clip-path="url(#ala)"><path d="M15 29.719c8.129 0 14.719-6.59 14.719-14.719S23.129.281 15 .281.281 6.871.281 15 6.871 29.719 15 29.719z" fill="#6792FF"/><path d="M14.86 28.594c7.507 0 13.593-6.086 13.593-13.594 0-7.508-6.086-13.594-13.594-13.594C7.352 1.406 1.266 7.492 1.266 15c0 7.508 6.086 13.594 13.593 13.594z" fill="#fff"/><path d="M14.813 28.172c7.274 0 13.171-5.897 13.171-13.172S22.087 1.828 14.812 1.828C7.538 1.828 1.642 7.725 1.642 15s5.897 13.172 13.171 13.172z" fill="#65B0E7"/><path d="M15.563 11.86h-1.126c-.776 0-1.406.629-1.406 1.406v9.937c0 .777.63 1.406 1.406 1.406h1.126c.776 0 1.406-.63 1.406-1.406v-9.937c0-.777-.63-1.407-1.407-1.407zm0-5.532h-1.126c-.776 0-1.406.63-1.406 1.406v.844c0 .777.63 1.406 1.406 1.406h1.126c.776 0 1.406-.63 1.406-1.406v-.844c0-.776-.63-1.406-1.407-1.406z" fill="#fff"/></g><defs><clipPath id="ala"><path fill="#fff" d="M0 0h30v30H0z"/></clipPath></defs></svg><svg viewBox="0 0 24 24" id="icon-js" xmlns="http://www.w3.org/2000/svg"><g fill="none" fill-rule="evenodd"><path fill="#F1DC50" d="M0 0h24v24H0z"/><path stroke="#333" stroke-width="2" d="M12 11v8c0 .876-.523 2-2 2-2.385 0-2.5-2-2.5-2m13.29-5.484c-.6-1.01-1.396-1.516-2.386-1.516C16.856 12 16 13 16 14s.5 2 2.508 2.5c1.278.318 2.492 1 2.492 2.5s-1.315 2-2.5 2c-1.514 0-2.514-.667-3-2"/></g></svg><svg fill="none" viewBox="0 0 50 50" id="icon-ok" xmlns="http://www.w3.org/2000/svg"><path d="M41.843 4.131L16.366 29.608l-8.262-8.263L0 29.45l8.263 8.263 8.156 8.157 8.104-8.104L50 12.288l-8.157-8.157z" fill="url(#ana)"/><defs><linearGradient id="ana" x1="13.5" y1="1.5" x2="15" y2="46" gradientUnits="userSpaceOnUse"><stop stop-color="#65E04D"/><stop offset=".994" stop-color="#2F9E1A"/></linearGradient></defs></svg><svg viewBox="0 -14 256 256" preserveAspectRatio="xMidYMid" id="icon-react" xmlns="http://www.w3.org/2000/svg"><path d="M210.483 73.824a171.49 171.49 0 00-8.24-2.597c.465-1.9.893-3.777 1.273-5.621 6.238-30.281 2.16-54.676-11.769-62.708-13.355-7.7-35.196.329-57.254 19.526a171.23 171.23 0 00-6.375 5.848 155.866 155.866 0 00-4.241-3.917C100.759 3.829 77.587-4.822 63.673 3.233 50.33 10.957 46.379 33.89 51.995 62.588a170.974 170.974 0 001.892 8.48c-3.28.932-6.445 1.924-9.474 2.98C17.309 83.498 0 98.307 0 113.668c0 15.865 18.582 31.778 46.812 41.427a145.52 145.52 0 006.921 2.165 167.467 167.467 0 00-2.01 9.138c-5.354 28.2-1.173 50.591 12.134 58.266 13.744 7.926 36.812-.22 59.273-19.855a145.567 145.567 0 005.342-4.923 168.064 168.064 0 006.92 6.314c21.758 18.722 43.246 26.282 56.54 18.586 13.731-7.949 18.194-32.003 12.4-61.268a145.016 145.016 0 00-1.535-6.842c1.62-.48 3.21-.974 4.76-1.488 29.348-9.723 48.443-25.443 48.443-41.52 0-15.417-17.868-30.326-45.517-39.844zm-6.365 70.984c-1.4.463-2.836.91-4.3 1.345-3.24-10.257-7.612-21.163-12.963-32.432 5.106-11 9.31-21.767 12.459-31.957 2.619.758 5.16 1.557 7.61 2.4 23.69 8.156 38.14 20.213 38.14 29.504 0 9.896-15.606 22.743-40.946 31.14zm-10.514 20.834c2.562 12.94 2.927 24.64 1.23 33.787-1.524 8.219-4.59 13.698-8.382 15.893-8.067 4.67-25.32-1.4-43.927-17.412a156.726 156.726 0 01-6.437-5.87c7.214-7.889 14.423-17.06 21.459-27.246 12.376-1.098 24.068-2.894 34.671-5.345a134.17 134.17 0 011.386 6.193zM87.276 214.515c-7.882 2.783-14.16 2.863-17.955.675-8.075-4.657-11.432-22.636-6.853-46.752a156.923 156.923 0 011.869-8.499c10.486 2.32 22.093 3.988 34.498 4.994 7.084 9.967 14.501 19.128 21.976 27.15a134.668 134.668 0 01-4.877 4.492c-9.933 8.682-19.886 14.842-28.658 17.94zM50.35 144.747c-12.483-4.267-22.792-9.812-29.858-15.863-6.35-5.437-9.555-10.836-9.555-15.216 0-9.322 13.897-21.212 37.076-29.293 2.813-.98 5.757-1.905 8.812-2.773 3.204 10.42 7.406 21.315 12.477 32.332-5.137 11.18-9.399 22.249-12.634 32.792a134.718 134.718 0 01-6.318-1.979zm12.378-84.26c-4.811-24.587-1.616-43.134 6.425-47.789 8.564-4.958 27.502 2.111 47.463 19.835a144.318 144.318 0 013.841 3.545c-7.438 7.987-14.787 17.08-21.808 26.988-12.04 1.116-23.565 2.908-34.161 5.309a160.342 160.342 0 01-1.76-7.887zm110.427 27.268a347.8 347.8 0 00-7.785-12.803c8.168 1.033 15.994 2.404 23.343 4.08-2.206 7.072-4.956 14.465-8.193 22.045a381.151 381.151 0 00-7.365-13.322zm-45.032-43.861c5.044 5.465 10.096 11.566 15.065 18.186a322.04 322.04 0 00-30.257-.006c4.974-6.559 10.069-12.652 15.192-18.18zM82.802 87.83a323.167 323.167 0 00-7.227 13.238c-3.184-7.553-5.909-14.98-8.134-22.152 7.304-1.634 15.093-2.97 23.209-3.984a321.524 321.524 0 00-7.848 12.897zm8.081 65.352c-8.385-.936-16.291-2.203-23.593-3.793 2.26-7.3 5.045-14.885 8.298-22.6a321.187 321.187 0 007.257 13.246c2.594 4.48 5.28 8.868 8.038 13.147zm37.542 31.03c-5.184-5.592-10.354-11.779-15.403-18.433 4.902.192 9.899.29 14.978.29 5.218 0 10.376-.117 15.453-.343-4.985 6.774-10.018 12.97-15.028 18.486zm52.198-57.817c3.422 7.8 6.306 15.345 8.596 22.52-7.422 1.694-15.436 3.058-23.88 4.071a382.417 382.417 0 007.859-13.026 347.403 347.403 0 007.425-13.565zm-16.898 8.101a358.557 358.557 0 01-12.281 19.815 329.4 329.4 0 01-23.444.823c-7.967 0-15.716-.248-23.178-.732a310.202 310.202 0 01-12.513-19.846h.001a307.41 307.41 0 01-10.923-20.627 310.278 310.278 0 0110.89-20.637l-.001.001a307.318 307.318 0 0112.413-19.761c7.613-.576 15.42-.876 23.31-.876H128c7.926 0 15.743.303 23.354.883a329.357 329.357 0 0112.335 19.695 358.489 358.489 0 0111.036 20.54 329.472 329.472 0 01-11 20.722zm22.56-122.124c8.572 4.944 11.906 24.881 6.52 51.026-.344 1.668-.73 3.367-1.15 5.09-10.622-2.452-22.155-4.275-34.23-5.408-7.034-10.017-14.323-19.124-21.64-27.008a160.789 160.789 0 015.888-5.4c18.9-16.447 36.564-22.941 44.612-18.3zM128 90.808c12.625 0 22.86 10.235 22.86 22.86s-10.235 22.86-22.86 22.86-22.86-10.235-22.86-22.86 10.235-22.86 22.86-22.86z" fill="#00D8FF"/></svg><svg viewBox="0 0 40 40" id="icon-responsive" xmlns="http://www.w3.org/2000/svg"><path d="M14 20.5a2.503 2.503 0 01-2.5-2.5V4c0-1.378 1.121-2.5 2.5-2.5h21c1.379 0 2.5 1.122 2.5 2.5v14c0 1.378-1.121 2.5-2.5 2.5H14z" fill="#a8deff"/><path d="M35 2c1.103 0 2 .897 2 2v14c0 1.103-.897 2-2 2H14c-1.103 0-2-.897-2-2V4c0-1.103.897-2 2-2h21m0-1H14a3 3 0 00-3 3v14a3 3 0 003 3h21a3 3 0 003-3V4a3 3 0 00-3-3z" fill="#788b9c"/><path d="M18 22h20a2 2 0 002-2H16a2 2 0 002 2z" fill="#788b9c"/><path d="M8 32.5c-.827 0-1.5-.673-1.5-1.5V11c0-.827.673-1.5 1.5-1.5h15c.827 0 1.5.673 1.5 1.5v20c0 .827-.673 1.5-1.5 1.5H8z" fill="#dcd5f2"/><path d="M23 10c.551 0 1 .449 1 1v20c0 .551-.449 1-1 1H8c-.551 0-1-.449-1-1V11c0-.551.449-1 1-1h15m0-1H8a2 2 0 00-2 2v20a2 2 0 002 2h15a2 2 0 002-2V11a2 2 0 00-2-2z" fill="#8b75a1"/><path d="M8.5 11.5h14v19h-14z" fill="#f2faff"/><path d="M22 12v18H9V12h13m1-1H8v20h15V11z" fill="#8b75a1"/><path d="M2.5 38.5c-.552 0-1-.449-1-1v-17c0-.551.448-1 1-1h9c.552 0 1 .449 1 1v17c0 .551-.448 1-1 1h-9z" fill="#ffc49c"/><path d="M11.5 20a.5.5 0 01.5.5v17a.5.5 0 01-.5.5h-9a.5.5 0 01-.5-.5v-17a.5.5 0 01.5-.5h9m0-1h-9A1.5 1.5 0 001 20.5v17A1.5 1.5 0 002.5 39h9a1.5 1.5 0 001.5-1.5v-17a1.5 1.5 0 00-1.5-1.5z" fill="#a16a4a"/><path d="M1.5 22.5h11v13h-11z" fill="#f2faff"/><path d="M12 23v12H2V23h10m1-1H1v14h12V22z" fill="#a16a4a"/></svg><svg fill="none" viewBox="0 0 50 50" id="icon-resume" xmlns="http://www.w3.org/2000/svg"><path d="M34.065.807v8.786h8.787L34.065.807zM22.791 7.319l-1.518-.533a.479.479 0 00-.326.004c-.329.125-.764.287-1.038.374-.207.066-.42.1-.637.1h-1.376a.909.909 0 00-.342.17c-.013.01-.025.028-.038.04a.892.892 0 00-.156.17 1.13 1.13 0 00-.151.33v2.724s.065 1.809 1.165 2.537l.034.023.003.002.023.017c.121.084.223.157.318.232.686.538 1.208.733 1.335.73a.65.65 0 01.134.007c.044.003.536.043 1.12-.363a2.69 2.69 0 00.255-.203c.185-.168.382-.32.587-.463l.07-.048c.285-.192.982-.84 1.144-2.582V7.97a.93.93 0 00-.606-.651zm-4.227 9.11l-.69-.46.816 1.483.164-.226.003-.004.093-.125.202-.275-.588-.393zM23.51 5.373a.808.808 0 01-.541-1.127.36.36 0 00.008-.042c-.017-.002-.05-.012-.1-.025h-4.322c-1.154 0-2.095.93-2.113 2.08.018-.016.037-.026.055-.041.063-.052.126-.098.19-.142.044-.03.086-.061.13-.088.07-.042.139-.076.208-.11.038-.018.076-.04.114-.055a2.29 2.29 0 01.221-.08c.028-.009.057-.021.084-.029a2.02 2.02 0 01.272-.057.912.912 0 01.103-.006h1.453a.48.48 0 00.146-.023c.25-.08.652-.23.956-.345.118-.045.238-.078.36-.1.032-.006.063-.006.094-.01.092-.013.185-.025.277-.025h.01c.066 0 .13.01.196.015.05.005.099.005.148.013.117.02.234.048.347.089l1.53.537c.16.058.303.13.436.207.05.029.091.062.137.093.078.052.155.104.223.161l.041.03v-.208c-.03-.133-.165-.593-.662-.712z" fill="#fff"/><path d="M28.457 18.625a1.129 1.129 0 00-.73-.876l-3.45-1.249-1.56 2.836a.805.805 0 01-.653.417l-.053.001a.805.805 0 01-.65-.329l-1.059-1.442-.105.143-.003.003-.038.052-.912 1.244a.807.807 0 01-.65.33l-.054-.002a.806.806 0 01-.653-.417l-1.56-2.836-3.452 1.25a1.13 1.13 0 00-.73.875l-.423 2.56.065.076h17.03l.065-.077-.424-2.56z" fill="#fff"/><path d="M33.259 11.206a.806.806 0 01-.807-.806V0H6.341v50h37.318V11.206h-10.4zm-23.13 9.715l.424-2.56a2.743 2.743 0 011.772-2.129l4.1-1.483h.002v-.001l.726-.26v-.163c-1.487-1.287-1.555-3.508-1.557-3.61v-.51a1.124 1.124 0 00-.229-.646 2.46 2.46 0 01-.538-1.538v-1.73a3.729 3.729 0 013.726-3.725h4.409c.052 0 .103.005.154.015.789.153 1.148.567 1.31.887.109.213.154.426.164.622.8.48 1.123 1.32 1.188 1.825a.889.889 0 01.006.101v2.355c0 .363-.103.72-.297 1.032-.368.589-.488 1.342-.488 1.35-.002.014-.01.025-.013.038-.208 1.956-.955 2.976-1.54 3.484v.213l.725.26h.002l4.1 1.484a2.741 2.741 0 011.772 2.13l.424 2.56a1.675 1.675 0 01-1.655 1.951h-17.03a1.679 1.679 0 01-1.657-1.952zM33.913 45.52h-23a.806.806 0 110-1.613h23a.806.806 0 110 1.613zm5.174-4.303H10.913a.806.806 0 110-1.612h28.174a.806.806 0 110 1.612zm0-4.303H10.913a.806.806 0 110-1.613h28.174a.806.806 0 110 1.613zm0-4.302H10.913a.806.806 0 110-1.613h28.174a.806.806 0 110 1.613zm0-4.303H10.913a.806.806 0 110-1.612h28.174a.806.806 0 110 1.613z" fill="#fff"/><path d="M21.45 16.822l.462.63.816-1.483-1.278.853z" fill="#fff"/></svg><svg viewBox="0 0 32 32" id="icon-scss" xmlns="http://www.w3.org/2000/svg"><path d="M26.11 17.572a5.8 5.8 0 00-2.537.588 5.345 5.345 0 01-.568-1.314 3.53 3.53 0 01-.051-1.1 9.811 9.811 0 01.332-1.192c-.005-.051-.061-.292-.624-.3s-1.048.107-1.1.256a6.171 6.171 0 00-.235.834 19.686 19.686 0 01-1.713 3.294 3.186 3.186 0 01-.44-2.066 9.811 9.811 0 01.332-1.192c-.005-.051-.061-.292-.624-.3s-1.048.107-1.1.256-.118.5-.235.834-1.483 3.386-1.841 4.173c-.184.4-.343.726-.455.946a.233.233 0 01-.02.041l-.153.292v.005c-.077.138-.159.266-.2.266a1.711 1.711 0 01.01-.869c.2-1.059.69-2.705.685-2.762 0-.031.092-.317-.317-.465a.508.508 0 00-.578.1c-.036 0-.061.087-.061.087s.445-1.851-.849-1.851a3.855 3.855 0 00-2.475 1.683c-.348.189-1.089.593-1.882 1.028-.3.169-.614.338-.905.5-.02-.02-.041-.046-.061-.066C6.87 17.6 3.975 16.416 4.1 14.171c.046-.818.327-2.966 5.559-5.575 4.306-2.122 7.733-1.534 8.326-.23.849 1.862-1.836 5.319-6.285 5.82a3.351 3.351 0 01-2.813-.711c-.235-.256-.271-.271-.358-.22-.143.077-.051.307 0 .44a2.626 2.626 0 001.606 1.263 8.55 8.55 0 005.217-.517c2.7-1.043 4.8-3.943 4.184-6.372-.619-2.465-4.71-3.278-8.582-1.9a19.5 19.5 0 00-6.595 3.783c-2.133 1.995-2.47 3.728-2.332 4.455.5 2.578 4.051 4.255 5.472 5.5a8.554 8.554 0 01-.194.107c-.711.353-3.421 1.77-4.1 3.268-.767 1.7.123 2.915.711 3.079a4.374 4.374 0 004.71-1.908 4.725 4.725 0 00.423-4.353.107.107 0 00-.02-.031l.557-.327a27.2 27.2 0 011.028-.578 6.74 6.74 0 00-.363 1.862 3.886 3.886 0 00.834 2.7.921.921 0 00.675.22c.6 0 .875-.5 1.176-1.094.368-.726.7-1.57.7-1.57s-.414 2.281.711 2.281c.409 0 .823-.532 1.008-.8v.005l.031-.051.066-.107v-.01c.164-.286.532-.936 1.079-2.015.706-1.391 1.386-3.13 1.386-3.13a8.888 8.888 0 00.271 1.13 10.643 10.643 0 00.583 1.309c-.164.23-.266.358-.266.358l.005.005c-.133.174-.276.363-.435.547a16.3 16.3 0 00-1.314 1.647.447.447 0 00.123.6 1.116 1.116 0 00.685.113 3.147 3.147 0 001.028-.235 3.45 3.45 0 00.885-.465 1.98 1.98 0 00.849-1.744 3.521 3.521 0 00-.322-1.233c.051-.072.1-.143.148-.215a23.428 23.428 0 001.534-2.649 8.888 8.888 0 00.271 1.13 7.57 7.57 0 00.5 1.125 4.861 4.861 0 00-1.497 1.922c-.322.931-.072 1.35.4 1.447a1.425 1.425 0 00.747-.153 3.4 3.4 0 00.946-.486 2.126 2.126 0 001.043-1.729 3.268 3.268 0 00-.235-1.023 5.356 5.356 0 012.716-.312c2.434.286 2.915 1.805 2.823 2.445a1.618 1.618 0 01-.772 1.094c-.169.107-.225.143-.21.22.02.113.1.107.245.087A1.9 1.9 0 0030 20.7c.077-1.5-1.355-3.145-3.887-3.13zM7.33 23.9c-.808.88-1.933 1.212-2.419.931-.522-.3-.317-1.6.675-2.532a12.884 12.884 0 011.9-1.417c.118-.072.292-.174.5-.3l.056-.031.123-.077A3.493 3.493 0 017.33 23.9zm5.881-4c-.281.685-.869 2.44-1.227 2.342-.307-.082-.5-1.412-.061-2.726a6.193 6.193 0 01.956-1.754c.44-.491.926-.655 1.043-.455a9.062 9.062 0 01-.711 2.593zm4.853 2.322c-.118.061-.23.1-.281.072-.036-.02.051-.1.051-.1s.609-.655.849-.951c.138-.174.3-.378.476-.609v.066c0 .782-.757 1.309-1.094 1.524zm3.744-.854c-.087-.061-.072-.266.22-.905a3.408 3.408 0 01.834-1.074 1.448 1.448 0 01.082.471 1.547 1.547 0 01-1.135 1.509z" fill="#cd6799"/></svg><svg viewBox="0 0 48 48" id="icon-semantic" xmlns="http://www.w3.org/2000/svg"><path fill="#CFD8DC" d="M42 42H6V7c0-.6.4-1 1-1h34c.6 0 1 .4 1 1v35z"/><path fill="#263238" d="M8 13h32v27H8z"/><path d="M15.5 26.4l3.5 2.1V31l-6-3.7v-2.1l6-3.2v2.5l-3.5 1.9zM23 33h-2l4-14h2l-4 14zm9.5-6.5l-3.5-2V22l6 3.4v2.1L29 31v-2.5l3.5-2z" fill="#76FF03"/><g fill="#90A4AE"><circle cx="13.5" cy="9.5" r="1.5"/><circle cx="9.5" cy="9.5" r="1.5"/></g></svg><svg viewBox="0 0 50 50" id="icon-vk" xmlns="http://www.w3.org/2000/svg"><path d="M25 4.168C13.492 4.168 4.168 13.492 4.168 25c0 11.508 9.324 20.832 20.832 20.832 11.508 0 20.832-9.324 20.832-20.832 0-11.508-9.324-20.832-20.832-20.832zm0 0" fill="#1976d2"/><path d="M37.434 18.793a1.42 1.42 0 00.066-.434c-.016-.379-.277-.652-.887-.652h-2.726c-.688 0-1.008.418-1.192.836 0 0-1.699 3.5-3.66 5.805-.637.668-.957.652-1.3.652-.184 0-.653-.223-.653-.836v-5.398c0-.723-.18-1.059-.762-1.059h-4.843c-.422 0-.645.336-.645.668 0 .695.938.863 1.043 2.809v3.773c0 .918-.16 1.086-.504 1.086-.926 0-2.75-3.125-3.973-7.223-.265-.804-.53-1.113-1.218-1.113h-2.754c-.793 0-.926.39-.926.809 0 .75.625 4.808 4.035 9.48 2.477 3.383 5.735 5.336 8.621 5.336 1.746 0 1.926-.445 1.926-1.137v-3.097c0-.836.191-.973.75-.973.395 0 1.203.262 2.766 2.082 1.804 2.102 2.129 3.125 3.164 3.125h2.726c.633 0 .996-.266 1.012-.781a1.58 1.58 0 00-.059-.442c-.203-.597-1.129-2.066-2.285-3.464-.64-.774-1.273-1.54-1.562-1.957-.196-.27-.27-.461-.262-.645.012-.195.11-.379.262-.633-.028 0 3.496-4.95 3.84-6.617zm0 0" fill="#fff"/></svg><svg fill="none" viewBox="0 0 26 26" id="icon-warning" xmlns="http://www.w3.org/2000/svg"><path d="M23.633 5.028a1.074 1.074 0 00-.777-.366c-2.295-.06-5.2-2.514-7.12-3.477C14.552.592 13.769.201 13.18.098a1.225 1.225 0 00-.36.001c-.588.103-1.371.494-2.556 1.087-1.92.962-4.824 3.417-7.12 3.476a1.08 1.08 0 00-.777.366 1.167 1.167 0 00-.291.834c.493 10.023 4.088 16.226 10.396 19.831.164.093.346.141.527.141.18 0 .363-.048.528-.141 6.308-3.605 9.902-9.808 10.396-19.831a1.161 1.161 0 00-.29-.834zM11.825 6.336a.125.125 0 01.089-.038h2.066a.13.13 0 01.089.037.131.131 0 01.036.09l-.168 8.895a.125.125 0 01-.125.123h-1.67a.126.126 0 01-.125-.122l-.23-8.895a.135.135 0 01.038-.09zm2.147 12.621c-.272.246-.598.37-.968.37-.381 0-.711-.125-.98-.37a1.206 1.206 0 01-.41-.915c0-.368.138-.686.408-.943.27-.256.6-.386.982-.386.37 0 .697.13.969.386.275.258.414.575.414.943 0 .357-.141.666-.415.915z" fill="red"/><path d="M12.333 15L12 6h2l-.333 9h-1.334zM13 6.5v8m-.75 4.25a1.06 1.06 0 101.5-1.5 1.06 1.06 0 00-1.5 1.5z" stroke="#fff"/><path d="M12.5 18l.25.25a.354.354 0 10.5-.5.354.354 0 00-.5 0l-.25.25zm0 0h.5" stroke="#fff"/></svg><svg viewBox="-17 0 290 290" preserveAspectRatio="xMidYMid" id="icon-webpack" xmlns="http://www.w3.org/2000/svg"><path fill="#FFF" d="M128 .048l128 72.405V217.31l-128 72.405L0 217.31V72.453z"/><path d="M233.153 212.287l-100.902 57.14V224.99l62.889-34.632 38.013 21.929zm6.907-6.231V86.654l-36.902 21.3v76.8l36.902 21.302zm-217.6 6.23l100.903 57.094v-44.438l-62.889-34.584-38.014 21.929zm-6.907-6.23V86.654l36.903 21.3v76.8l-36.903 21.302zm4.3-127.13l103.51-58.543v42.99L57.045 99.84l-.532.29-36.66-21.205zm215.86 0L132.251 20.382v42.99l66.27 36.515.531.29 36.661-21.253z" fill="#8ED6FB"/><path d="M123.363 214.847l-62.02-34.15v-67.574l62.02 35.792v65.932zm8.888 0l62.02-34.101v-67.623l-62.02 35.792v65.932zM65.497 105.298l62.31-34.246 62.26 34.246-62.26 35.937-62.31-35.937z" fill="#1C78C0"/></svg><svg viewBox="0 0 48 48" fill-rule="evenodd" clip-rule="evenodd" id="icon-whatsapp" xmlns="http://www.w3.org/2000/svg"><path fill="#fff" d="M4.868 43.303l2.694-9.835a18.941 18.941 0 01-2.535-9.489C5.032 13.514 13.548 5 24.014 5a18.867 18.867 0 0113.43 5.566A18.866 18.866 0 0143 23.994c-.004 10.465-8.522 18.98-18.986 18.98-.001 0 0 0 0 0h-.008a18.965 18.965 0 01-9.073-2.311l-10.065 2.64z"/><path fill="#fff" d="M4.868 43.803a.499.499 0 01-.482-.631l2.639-9.636a19.48 19.48 0 01-2.497-9.556C4.532 13.238 13.273 4.5 24.014 4.5a19.367 19.367 0 0113.784 5.713A19.362 19.362 0 0143.5 23.994c-.004 10.741-8.746 19.48-19.486 19.48a19.535 19.535 0 01-9.144-2.277l-9.875 2.589a.457.457 0 01-.127.017z"/><path fill="#cfd8dc" d="M24.014 5a18.867 18.867 0 0113.43 5.566A18.866 18.866 0 0143 23.994c-.004 10.465-8.522 18.98-18.986 18.98h-.008a18.965 18.965 0 01-9.073-2.311l-10.065 2.64 2.694-9.835a18.941 18.941 0 01-2.535-9.489C5.032 13.514 13.548 5 24.014 5m0-1C12.998 4 4.032 12.962 4.027 23.979a20.01 20.01 0 002.461 9.622L3.903 43.04a.998.998 0 001.219 1.231l9.687-2.54a20.026 20.026 0 009.197 2.244c11.024 0 19.99-8.963 19.995-19.98A19.856 19.856 0 0038.153 9.86 19.869 19.869 0 0024.014 4z"/><path fill="#40c351" d="M35.176 12.832a15.673 15.673 0 00-11.157-4.626c-8.704 0-15.783 7.076-15.787 15.774a15.738 15.738 0 002.413 8.396l.376.597-1.595 5.821 5.973-1.566.577.342a15.75 15.75 0 008.032 2.199h.006c8.698 0 15.777-7.077 15.78-15.776a15.68 15.68 0 00-4.618-11.161z"/><path fill="#fff" d="M19.268 16.045c-.355-.79-.729-.806-1.068-.82-.277-.012-.593-.011-.909-.011-.316 0-.83.119-1.265.594-.435.475-1.661 1.622-1.661 3.956 0 2.334 1.7 4.59 1.937 4.906.237.316 3.282 5.259 8.104 7.161 4.007 1.58 4.823 1.266 5.693 1.187.87-.079 2.807-1.147 3.202-2.255.395-1.108.395-2.057.277-2.255-.119-.198-.435-.316-.909-.554s-2.807-1.385-3.242-1.543c-.435-.158-.751-.237-1.068.238-.316.474-1.225 1.543-1.502 1.859-.277.317-.554.357-1.028.119s-2.002-.738-3.815-2.354c-1.41-1.257-2.362-2.81-2.639-3.285-.277-.474-.03-.731.208-.968.213-.213.474-.554.712-.831.237-.277.316-.475.474-.791.158-.317.079-.594-.04-.831-.117-.238-1.039-2.584-1.461-3.522z"/></svg><svg viewBox="0 0 48 48" id="icon-wordpress" xmlns="http://www.w3.org/2000/svg"><circle fill="#FFF" cx="24" cy="24" r="19"/><path fill="#01579B" d="M7.704 24c0 6.453 3.748 12.025 9.186 14.667L9.114 17.366A16.222 16.222 0 007.704 24zm27.299-.821c0-2.013-.724-3.411-1.342-4.493-.827-1.354-1.604-2.481-1.604-3.822 0-1.492 1.141-2.893 2.74-2.893.072 0 .137.006.209.008A16.203 16.203 0 0024 7.703c-5.695 0-10.705 2.924-13.619 7.349.384.008.743.014 1.052.014 1.7 0 4.343-.202 4.343-.202.876-.059.983 1.235.101 1.341 0 0-.88.106-1.861.153l5.936 17.657 3.566-10.694-2.54-6.963c-.876-.047-1.709-.153-1.709-.153-.878-.058-.777-1.401.1-1.341 0 0 2.696.202 4.296.202 1.706 0 4.344-.202 4.344-.202.877-.059.982 1.235.105 1.341 0 0-.887.106-1.867.153l5.887 17.519 1.629-5.428c.828-2.118 1.24-3.869 1.24-5.27zm-10.718 2.243l-4.889 14.21c1.462.435 3.005.665 4.604.665 1.896 0 3.716-.33 5.414-.924-.039-.072-.086-.146-.119-.225l-5.01-13.726zm14.018-9.245c.072.519.111 1.077.111 1.675 0 1.658-.313 3.517-1.242 5.845l-4.976 14.396c4.845-2.824 8.101-8.079 8.101-14.092 0-2.833-.725-5.498-1.994-7.824z"/><path fill="#01579B" d="M5 24c0 10.473 8.521 19 19 19s19-8.527 19-19S34.479 5 24 5 5 13.527 5 24zm.871 0c0-9.991 8.13-18.123 18.128-18.123 9.999 0 18.129 8.132 18.129 18.123S33.998 42.125 24 42.125c-9.997 0-18.129-8.134-18.129-18.125z"/></svg><svg data-name="Layer 1" viewBox="0 0 64 64" id="icon-www" xmlns="http://www.w3.org/2000/svg"><circle cx="31" cy="31" r="28" fill="#85cbf8"/><path d="M31 3v56a28 28 0 000-56z" fill="#7bbeeb"/><path d="M53.85 48.82a28.91 28.91 0 000-35.65.93.93 0 00-.1-.11A28.95 28.95 0 008.31 13a1 1 0 00-.15.15v.07a28.91 28.91 0 000 35.62v.06a1 1 0 00.2.22A28.95 28.95 0 0053.74 49a.94.94 0 00.1-.1zm-2.39-35.4a31.54 31.54 0 01-6.68 2.74C43.19 11.26 40.86 7.4 38.09 5a27 27 0 0113.37 8.42zM30 4.08V18a50.92 50.92 0 01-10.83-1.31C21.53 9.51 25.56 4.71 30 4.08zm2 0c4.44.63 8.47 5.43 10.83 12.59A50.93 50.93 0 0132 18zM23.91 5c-2.77 2.45-5.11 6.31-6.69 11.2a31.53 31.53 0 01-6.68-2.74A27 27 0 0123.91 5zM9.27 15a33.16 33.16 0 007.38 3.08 46 46 0 00-1 4.78 1 1 0 00.81 1.14h.16a1 1 0 001-.84 43.26 43.26 0 011-4.57A52.85 52.85 0 0030 20v3a1 1 0 002 0v-3a52.85 52.85 0 0011.4-1.4 43.26 43.26 0 011 4.57 1 1 0 002-.32 46.09 46.09 0 00-1-4.77A33.17 33.17 0 0052.73 15a26.93 26.93 0 010 32 33.19 33.19 0 00-7.39-3.08c.33-1.2.62-2.45.86-3.75a1 1 0 10-2-.36c-.23 1.25-.5 2.44-.81 3.59A52.84 52.84 0 0032 42v-2a1 1 0 00-2 0v2a52.85 52.85 0 00-11.41 1.4 41.97 41.97 0 01-.81-3.59 1 1 0 10-2 .36c.24 1.3.53 2.55.86 3.75A33.18 33.18 0 009.27 47a26.93 26.93 0 010-32zM30 57.92c-4.47-.62-8.48-5.37-10.84-12.59A50.91 50.91 0 0130 44zm2 0V44a50.92 50.92 0 0110.84 1.32C40.48 52.55 36.47 57.3 32 57.92zm-21.46-9.34a31.56 31.56 0 016.7-2.74c1.6 4.89 3.95 8.77 6.73 11.22a27 27 0 01-13.43-8.48zM38 57.07c2.78-2.45 5.13-6.33 6.73-11.22a31.55 31.55 0 016.7 2.74A27 27 0 0138 57.07z" fill="#8d6c9f"/><path d="M11 36.29a1 1 0 001 .71 1 1 0 001-.65l2-5.5 2.06 5.5A1 1 0 0018 37a1 1 0 00.92-.71l3-10a1 1 0 00-1.92-.58l-2.15 7.16-2-5.22a1 1 0 00-1.87 0l-2 5.22L10 25.71a1 1 0 00-2 .58zm16 0a1 1 0 001 .71 1 1 0 001-.65l2-5.5 2.06 5.5A1 1 0 0034 37a1 1 0 00.92-.71l3-10a1 1 0 00-1.92-.58l-2.15 7.16-2-5.22a1 1 0 00-1.87 0l-2 5.22L26 25.71a1 1 0 00-1.92.57zm16 0a1 1 0 001 .71 1 1 0 001-.65l2-5.5 2.06 5.5A1 1 0 0050 37a1 1 0 00.92-.71l3-10a1 1 0 00-1.92-.58l-2.15 7.16-2-5.22a1 1 0 00-1.87 0l-2 5.22L42 25.71a1 1 0 10-1.92.57z" fill="#fff"/></svg><svg fill="none" viewBox="0 0 50 50" id="icon-x" xmlns="http://www.w3.org/2000/svg"><path d="M42.353 34.376l-9.378-9.377 9.375-9.376a.994.994 0 000-1.407l-6.567-6.569a.995.995 0 00-1.407 0L25 17.023l-9.376-9.376a1.023 1.023 0 00-1.407 0l-6.569 6.568a.996.996 0 000 1.407L17.025 25l-9.378 9.377a.997.997 0 000 1.407l6.568 6.569a.998.998 0 001.407 0L25 32.974l9.377 9.377a.992.992 0 001.408 0l6.569-6.568a.995.995 0 000-1.407z" fill="red"/></svg><svg viewBox="0 0 400 350" id="octocat" xmlns="http://www.w3.org/2000/svg"><defs><linearGradient y2="0" x2="1" y1="1" x1="0" id="baa"><stop offset="14%" stop-color="#002296"/><stop offset="28%" stop-color="#82008f"/><stop offset="42%" stop-color="#c0007a"/><stop offset="56%" stop-color="#ea0c5f"/><stop offset="70%" stop-color="#ff5341"/><stop offset="84%" stop-color="#ff8820"/><stop offset="100%" stop-color="#f6ba00"/></linearGradient></defs><path transform="matrix(.005 0 0 .005 283.575 388.05)" d="M16 8.286C8.454 8.286 2.5 16 2.5 16s5.954 7.715 13.5 7.715c5.771 0 13.5-7.715 13.5-7.715S21.771 8.286 16 8.286zm0 12.521c-2.649 0-4.807-2.157-4.807-4.807s2.158-4.807 4.807-4.807 4.807 2.158 4.807 4.807-2.158 4.807-4.807 4.807zm0-7.613a2.806 2.806 0 100 5.613 2.806 2.806 0 000-5.613z" opacity="NaN" fill="url(#linear-gradient)"/><path transform="matrix(.005 0 0 .005 238.8 408.945)" d="M16 8.286C8.454 8.286 2.5 16 2.5 16s5.954 7.715 13.5 7.715c5.771 0 13.5-7.715 13.5-7.715S21.771 8.286 16 8.286zm0 12.521c-2.649 0-4.807-2.157-4.807-4.807s2.158-4.807 4.807-4.807 4.807 2.158 4.807 4.807-2.158 4.807-4.807 4.807zm0-7.613a2.806 2.806 0 100 5.613 2.806 2.806 0 000-5.613z" opacity="NaN" fill="url(#linear-gradient)"/><path transform="matrix(.005 0 0 .005 198.005 415.91)" d="M16 8.286C8.454 8.286 2.5 16 2.5 16s5.954 7.715 13.5 7.715c5.771 0 13.5-7.715 13.5-7.715S21.771 8.286 16 8.286zm0 12.521c-2.649 0-4.807-2.157-4.807-4.807s2.158-4.807 4.807-4.807 4.807 2.158 4.807 4.807-2.158 4.807-4.807 4.807zm0-7.613a2.806 2.806 0 100 5.613 2.806 2.806 0 000-5.613z" opacity="NaN" fill="url(#linear-gradient)"/><path transform="matrix(.005 0 0 .005 198.005 415.91)" d="M16 8.286C8.454 8.286 2.5 16 2.5 16s5.954 7.715 13.5 7.715c5.771 0 13.5-7.715 13.5-7.715S21.771 8.286 16 8.286zm0 12.521c-2.649 0-4.807-2.157-4.807-4.807s2.158-4.807 4.807-4.807 4.807 2.158 4.807 4.807-2.158 4.807-4.807 4.807zm0-7.613a2.806 2.806 0 100 5.613 2.806 2.806 0 000-5.613z" opacity="NaN" fill="url(#linear-gradient)"/><path transform="matrix(.005 0 0 .005 284.57 485.56)" d="M16 8.286C8.454 8.286 2.5 16 2.5 16s5.954 7.715 13.5 7.715c5.771 0 13.5-7.715 13.5-7.715S21.771 8.286 16 8.286zm0 12.521c-2.649 0-4.807-2.157-4.807-4.807s2.158-4.807 4.807-4.807 4.807 2.158 4.807 4.807-2.158 4.807-4.807 4.807zm0-7.613a2.806 2.806 0 100 5.613 2.806 2.806 0 000-5.613z" opacity="NaN" fill="url(#linear-gradient)"/><path transform="matrix(.005 0 0 .005 283.575 484.565)" d="M16 8.286C8.454 8.286 2.5 16 2.5 16s5.954 7.715 13.5 7.715c5.771 0 13.5-7.715 13.5-7.715S21.771 8.286 16 8.286zm0 12.521c-2.649 0-4.807-2.157-4.807-4.807s2.158-4.807 4.807-4.807 4.807 2.158 4.807 4.807-2.158 4.807-4.807 4.807zm0-7.613a2.806 2.806 0 100 5.613 2.806 2.806 0 000-5.613z" opacity="NaN" fill="url(#linear-gradient)"/><path transform="matrix(.005 0 0 .005 283.575 484.565)" d="M16 8.286C8.454 8.286 2.5 16 2.5 16s5.954 7.715 13.5 7.715c5.771 0 13.5-7.715 13.5-7.715S21.771 8.286 16 8.286zm0 12.521c-2.649 0-4.807-2.157-4.807-4.807s2.158-4.807 4.807-4.807 4.807 2.158 4.807 4.807-2.158 4.807-4.807 4.807zm0-7.613a2.806 2.806 0 100 5.613 2.806 2.806 0 000-5.613z" opacity="NaN" fill="url(#linear-gradient)"/><path transform="matrix(.005 0 0 .005 206.96 403.97)" d="M16 8.286C8.454 8.286 2.5 16 2.5 16s5.954 7.715 13.5 7.715c5.771 0 13.5-7.715 13.5-7.715S21.771 8.286 16 8.286zm0 12.521c-2.649 0-4.807-2.157-4.807-4.807s2.158-4.807 4.807-4.807 4.807 2.158 4.807 4.807-2.158 4.807-4.807 4.807zm0-7.613a2.806 2.806 0 100 5.613 2.806 2.806 0 000-5.613z" opacity="NaN" fill="url(#linear-gradient)"/><path transform="matrix(.005 0 0 .005 168.155 224.87)" d="M16 8.286C8.454 8.286 2.5 16 2.5 16s5.954 7.715 13.5 7.715c5.771 0 13.5-7.715 13.5-7.715S21.771 8.286 16 8.286zm0 12.521c-2.649 0-4.807-2.157-4.807-4.807s2.158-4.807 4.807-4.807 4.807 2.158 4.807 4.807-2.158 4.807-4.807 4.807zm0-7.613a2.806 2.806 0 100 5.613 2.806 2.806 0 000-5.613z" opacity="NaN" fill="url(#linear-gradient)"/><path transform="matrix(.005 0 0 .005 187.06 207.955)" d="M16 8.286C8.454 8.286 2.5 16 2.5 16s5.954 7.715 13.5 7.715c5.771 0 13.5-7.715 13.5-7.715S21.771 8.286 16 8.286zm0 12.521c-2.649 0-4.807-2.157-4.807-4.807s2.158-4.807 4.807-4.807 4.807 2.158 4.807 4.807-2.158 4.807-4.807 4.807zm0-7.613a2.806 2.806 0 100 5.613 2.806 2.806 0 000-5.613z" opacity="NaN" fill="url(#linear-gradient)"/><path transform="matrix(.005 0 0 .005 195.02 424.865)" d="M16 8.286C8.454 8.286 2.5 16 2.5 16s5.954 7.715 13.5 7.715c5.771 0 13.5-7.715 13.5-7.715S21.771 8.286 16 8.286zm0 12.521c-2.649 0-4.807-2.157-4.807-4.807s2.158-4.807 4.807-4.807 4.807 2.158 4.807 4.807-2.158 4.807-4.807 4.807zm0-7.613a2.806 2.806 0 100 5.613 2.806 2.806 0 000-5.613z" opacity="NaN" fill="url(#linear-gradient)"/><path transform="matrix(.005 0 0 .005 108.455 420.885)" d="M16 8.286C8.454 8.286 2.5 16 2.5 16s5.954 7.715 13.5 7.715c5.771 0 13.5-7.715 13.5-7.715S21.771 8.286 16 8.286zm0 12.521c-2.649 0-4.807-2.157-4.807-4.807s2.158-4.807 4.807-4.807 4.807 2.158 4.807 4.807-2.158 4.807-4.807 4.807zm0-7.613a2.806 2.806 0 100 5.613 2.806 2.806 0 000-5.613z" opacity="NaN" fill="url(#linear-gradient)"/><path transform="matrix(.005 0 0 .005 108.455 420.885)" d="M16 8.286C8.454 8.286 2.5 16 2.5 16s5.954 7.715 13.5 7.715c5.771 0 13.5-7.715 13.5-7.715S21.771 8.286 16 8.286zm0 12.521c-2.649 0-4.807-2.157-4.807-4.807s2.158-4.807 4.807-4.807 4.807 2.158 4.807 4.807-2.158 4.807-4.807 4.807zm0-7.613a2.806 2.806 0 100 5.613 2.806 2.806 0 000-5.613z" opacity="NaN" fill="url(#linear-gradient)"/><path transform="matrix(.005 0 0 .005 108.455 420.885)" d="M16 8.286C8.454 8.286 2.5 16 2.5 16s5.954 7.715 13.5 7.715c5.771 0 13.5-7.715 13.5-7.715S21.771 8.286 16 8.286zm0 12.521c-2.649 0-4.807-2.157-4.807-4.807s2.158-4.807 4.807-4.807 4.807 2.158 4.807 4.807-2.158 4.807-4.807 4.807zm0-7.613a2.806 2.806 0 100 5.613 2.806 2.806 0 000-5.613z" opacity="NaN" fill="url(#linear-gradient)"/><path transform="matrix(.005 0 0 .005 213.925 436.805)" d="M21.053 20.8c-1.132-.453-1.584-1.698-1.584-1.698s-.51.282-.51-.51.51.51 1.02-2.548c0 0 1.414-.397 1.132-3.68h-.34s.849-3.51 0-4.699c-.85-1.189-1.189-1.981-3.058-2.548s-1.188-.454-2.547-.396c-1.359.057-2.492.792-2.492 1.188 0 0-.849.057-1.188.397-.34.34-.906 1.924-.906 2.321s.283 3.058.566 3.624l-.337.113c-.283 3.283 1.132 3.68 1.132 3.68.509 3.058 1.019 1.756 1.019 2.548s-.51.51-.51.51-.452 1.245-1.584 1.698c-1.132.452-7.416 2.886-7.927 3.396-.511.511-.453 2.888-.453 2.888h26.947s.059-2.377-.452-2.888c-.512-.51-6.796-2.944-7.928-3.396zm-12.47-.172c-.099-.18-.148-.31-.148-.31s-.432.239-.432-.432.432.432.864-2.159c0 0 1.199-.336.959-3.119h-.288s.143-.591.237-1.334a10.01 10.01 0 01.037-.996l.038-.426c-.021-.492-.107-.939-.312-1.226-.72-1.007-1.008-1.679-2.591-2.159-1.583-.48-1.008-.385-2.159-.336-1.152.048-2.112.671-2.112 1.008 0 0-.72.048-1.008.336-.271.271-.705 1.462-.757 1.885v.281c.047.653.258 2.449.469 2.872l-.286.096c-.239 2.783.959 3.119.959 3.119.432 2.591.864 1.488.864 2.159s-.432.432-.432.432-.383 1.057-1.343 1.439l-.232.092v5.234h.575c-.029-1.278.077-2.927.746-3.594.356-.355 1.523-.939 6.352-2.862zm22.33-9.056c-.04-.378-.127-.715-.292-.946-.719-1.008-1.008-1.679-2.59-2.159-1.584-.48-1.008-.385-2.16-.336-1.151.048-2.111.671-2.111 1.008 0 0-.719.048-1.008.336-.271.272-.709 1.472-.758 1.891h.033l.08.913c.02.231.022.436.027.645.09.666.21 1.35.33 1.589l-.286.096c-.239 2.783.96 3.119.96 3.119.432 2.591.863 1.488.863 2.159s-.432.432-.432.432-.053.142-.163.338c4.77 1.9 5.927 2.48 6.279 2.834.67.667.775 2.315.746 3.594h.48v-5.306a1.4 1.4 0 01-.052-.021c-.959-.383-1.343-1.439-1.343-1.439s-.433.239-.433-.432.433.432.864-2.159c0 0 .804-.229.963-1.841V14.66l-.003-.051h-.289s.215-.89.292-1.861v-1.176h.003z" opacity="NaN" fill="url(#linear-gradient)"/><path transform="matrix(.005 0 0 .005 278.6 520.385)" d="M21.053 20.8c-1.132-.453-1.584-1.698-1.584-1.698s-.51.282-.51-.51.51.51 1.02-2.548c0 0 1.414-.397 1.132-3.68h-.34s.849-3.51 0-4.699c-.85-1.189-1.189-1.981-3.058-2.548s-1.188-.454-2.547-.396c-1.359.057-2.492.792-2.492 1.188 0 0-.849.057-1.188.397-.34.34-.906 1.924-.906 2.321s.283 3.058.566 3.624l-.337.113c-.283 3.283 1.132 3.68 1.132 3.68.509 3.058 1.019 1.756 1.019 2.548s-.51.51-.51.51-.452 1.245-1.584 1.698c-1.132.452-7.416 2.886-7.927 3.396-.511.511-.453 2.888-.453 2.888h26.947s.059-2.377-.452-2.888c-.512-.51-6.796-2.944-7.928-3.396zm-12.47-.172c-.099-.18-.148-.31-.148-.31s-.432.239-.432-.432.432.432.864-2.159c0 0 1.199-.336.959-3.119h-.288s.143-.591.237-1.334a10.01 10.01 0 01.037-.996l.038-.426c-.021-.492-.107-.939-.312-1.226-.72-1.007-1.008-1.679-2.591-2.159-1.583-.48-1.008-.385-2.159-.336-1.152.048-2.112.671-2.112 1.008 0 0-.72.048-1.008.336-.271.271-.705 1.462-.757 1.885v.281c.047.653.258 2.449.469 2.872l-.286.096c-.239 2.783.959 3.119.959 3.119.432 2.591.864 1.488.864 2.159s-.432.432-.432.432-.383 1.057-1.343 1.439l-.232.092v5.234h.575c-.029-1.278.077-2.927.746-3.594.356-.355 1.523-.939 6.352-2.862zm22.33-9.056c-.04-.378-.127-.715-.292-.946-.719-1.008-1.008-1.679-2.59-2.159-1.584-.48-1.008-.385-2.16-.336-1.151.048-2.111.671-2.111 1.008 0 0-.719.048-1.008.336-.271.272-.709 1.472-.758 1.891h.033l.08.913c.02.231.022.436.027.645.09.666.21 1.35.33 1.589l-.286.096c-.239 2.783.96 3.119.96 3.119.432 2.591.863 1.488.863 2.159s-.432.432-.432.432-.053.142-.163.338c4.77 1.9 5.927 2.48 6.279 2.834.67.667.775 2.315.746 3.594h.48v-5.306a1.4 1.4 0 01-.052-.021c-.959-.383-1.343-1.439-1.343-1.439s-.433.239-.433-.432.433.432.864-2.159c0 0 .804-.229.963-1.841V14.66l-.003-.051h-.289s.215-.89.292-1.861v-1.176h.003z" opacity="NaN" fill="url(#linear-gradient)"/><path transform="matrix(.005 0 0 .005 -141.29 566.155)" d="M16 8.286C8.454 8.286 2.5 16 2.5 16s5.954 7.715 13.5 7.715c5.771 0 13.5-7.715 13.5-7.715S21.771 8.286 16 8.286zm0 12.521c-2.649 0-4.807-2.157-4.807-4.807s2.158-4.807 4.807-4.807 4.807 2.158 4.807 4.807-2.158 4.807-4.807 4.807zm0-7.613a2.806 2.806 0 100 5.613 2.806 2.806 0 000-5.613z" opacity="NaN" fill="url(#svg_17)"/><path transform="matrix(.005 0 0 .005 133.33 63.182)" d="M28.436 15.099a27.857 27.857 0 00-3.466-.371l-.179-.006c.041-.09.072-.151.082-.16.022-.018.04-.094.042-.168 0-.041.018-.174.046-.35.275.01.64.018 1.038.021 1.537.012 3.145.136 4.248.331.657.116.874.112.389-.006-.491-.119-1.947-.294-3.107-.37a35.605 35.605 0 00-2.554-.062l.064-.371c.093-.503.124-1.009.126-2.016.002-1.562-.082-1.992-.591-3.025a4.973 4.973 0 00-.724-1.104c.247-.729.241-1.858-.015-2.848-.211-.812-.285-.864-1.021-.708-.624.133-1.124.314-1.765.637a15.57 15.57 0 00-1.024.578 11.21 11.21 0 00-2.479-.561c-.884-.1-3.051-.044-3.82.098a15.56 15.56 0 00-2.042.511c-.306-.189-.75-.444-1.067-.604-.644-.324-1.144-.504-1.77-.637-.734-.157-.81-.104-1.02.708-.26 1.003-.262 2.151-.005 2.878.03.083.048.142.055.188-1.042 1.312-1.382 2.78-1.156 4.829.059.534.15 1.024.277 1.473-.665-.004-1.611.02-2.294.064-1.162.077-2.618.25-3.109.369-.484.118-.269.122.389.007 1.103-.194 2.712-.32 4.248-.331.29-.001.561-.007.794-.013.07.237.15.463.241.678l-.007.001a27.64 27.64 0 00-3.465.37c-.901.151-2.231.453-2.386.54-.163.091-.03.071.668-.106 1.273-.322 2.928-.569 4.978-.741l.229-.02c.44 1.022 1.118 1.802 2.076 2.41.586.373 1.525.756 1.998.816.13.016.508.094.84.172.333.078.984.195 1.446.262h.011l-.025.016c-.56.291-.924.744-1.169 1.457-.11.033-.247.078-.395.129-.529.18-.735.217-1.271.221-.556.004-.688-.02-1.02-.176-.483-.225-.933-.639-1.233-1.133-.501-.826-1.367-1.41-2.089-1.41-.617 0-.734.25-.288.615.672.549 1.174 1.109 1.38 1.537l.397.824c.109.227.342.535.564.748.522.498 1.026.736 1.778.848.504.074.628.074 1.223-.002.287-.035.529-.076.746-.127v.855c0 1.766-.021 2.334-.091 2.5a1.685 1.685 0 01-.716.787c-.287.146-.376.307-.255.455.067.08.196.094.629.066.822-.051 1.403-.355 1.699-.891.095-.172.117-.518.147-2.318.032-1.953.046-2.141.173-2.42.077-.166.188-.346.25-.395.104-.086.111.084.111 2.42-.001 2.578-.027 2.889-.285 3.385-.058.113-.168.26-.245.33-.135.123-.192.438-.098.533.155.154.932-.088 1.356-.422.722-.572.808-1.045.814-4.461l.003-2.004.219.021.219.02.036 2.621c.041 2.951.047 2.994.549 3.564.285.322.572.5 1.039.639.625.188.813-.102.393-.605-.457-.547-.479-.756-.454-3.994.017-2.076.017-2.076.151-1.955.282.256.336.676.336 2.623 0 2.418.069 2.648.923 3.07.399.195.511.219 1.022.221.544.002.577-.006.597-.148.017-.115-.05-.193-.304-.348a1.738 1.738 0 01-.709-.797c-.055-.127-.092-.959-.117-2.672-.036-2.393-.044-2.502-.193-2.877-.201-.504-.508-.902-.897-1.166a1.29 1.29 0 00-.333-.162c.161-.016.317-.033.468-.055 1.572-.209 2.403-.383 3.07-.641 1.411-.543 2.365-1.445 2.882-2.724.046-.114.092-.222.131-.309l.398.033c2.051.173 3.706.42 4.979.743.698.177.831.198.668.105-.152-.085-1.482-.386-2.382-.537zm-6.014-.031c-.233.512-.883 1.17-1.408 1.428-.518.256-1.33.451-2.25.544-.629.064-4.137.083-4.716.026-1.917-.188-2.991-.557-3.783-1.296-.75-.702-1.1-1.655-1.039-2.828.039-.734.216-1.195.679-1.755.421-.51.864-.825 1.386-.985.437-.134 1.778-.146 3.581-.03.797.051 1.456.051 2.252 0 1.886-.119 3.145-.106 3.61.038.731.226 1.397.834 1.797 1.644.18.362.215.516.241 1.075.036.77-.097 1.588-.35 2.139zm-9.51-3.306c-1.073-.188-1.686 1.649-.863 2.587.391.445.738.518 1.172.248.402-.251.62-.72.62-1.328 0-.811-.369-1.407-.929-1.507zm6.513.11c-1.073-.188-1.687 1.647-.864 2.586.392.445.738.519 1.173.247.401-.25.62-.72.62-1.328 0-.808-.369-1.406-.929-1.505zm-2.886 3.612c-.023.074-.135.184-.248.243-.286.147-.492.096-.794-.179-.187-.169-.272-.258-.329-.081-.053.164.28.493.537.594.236.094.405.097.661-.01.254-.106.476-.391.476-.576 0-.172-.247-.164-.303.009zm-.317-.575c.163-.144.2-.44.044-.597s-.473-.133-.597.043c-.144.206-.067.363.036.53.16.124.375.149.517.024z" opacity="NaN" stroke="null" fill="url(#svg_20)"/><path transform="matrix(.005 0 0 .005 103.48 37.313)" d="M28.436 15.099a27.857 27.857 0 00-3.466-.371l-.179-.006c.041-.09.072-.151.082-.16.022-.018.04-.094.042-.168 0-.041.018-.174.046-.35.275.01.64.018 1.038.021 1.537.012 3.145.136 4.248.331.657.116.874.112.389-.006-.491-.119-1.947-.294-3.107-.37a35.605 35.605 0 00-2.554-.062l.064-.371c.093-.503.124-1.009.126-2.016.002-1.562-.082-1.992-.591-3.025a4.973 4.973 0 00-.724-1.104c.247-.729.241-1.858-.015-2.848-.211-.812-.285-.864-1.021-.708-.624.133-1.124.314-1.765.637a15.57 15.57 0 00-1.024.578 11.21 11.21 0 00-2.479-.561c-.884-.1-3.051-.044-3.82.098a15.56 15.56 0 00-2.042.511c-.306-.189-.75-.444-1.067-.604-.644-.324-1.144-.504-1.77-.637-.734-.157-.81-.104-1.02.708-.26 1.003-.262 2.151-.005 2.878.03.083.048.142.055.188-1.042 1.312-1.382 2.78-1.156 4.829.059.534.15 1.024.277 1.473-.665-.004-1.611.02-2.294.064-1.162.077-2.618.25-3.109.369-.484.118-.269.122.389.007 1.103-.194 2.712-.32 4.248-.331.29-.001.561-.007.794-.013.07.237.15.463.241.678l-.007.001a27.64 27.64 0 00-3.465.37c-.901.151-2.231.453-2.386.54-.163.091-.03.071.668-.106 1.273-.322 2.928-.569 4.978-.741l.229-.02c.44 1.022 1.118 1.802 2.076 2.41.586.373 1.525.756 1.998.816.13.016.508.094.84.172.333.078.984.195 1.446.262h.011l-.025.016c-.56.291-.924.744-1.169 1.457-.11.033-.247.078-.395.129-.529.18-.735.217-1.271.221-.556.004-.688-.02-1.02-.176-.483-.225-.933-.639-1.233-1.133-.501-.826-1.367-1.41-2.089-1.41-.617 0-.734.25-.288.615.672.549 1.174 1.109 1.38 1.537l.397.824c.109.227.342.535.564.748.522.498 1.026.736 1.778.848.504.074.628.074 1.223-.002.287-.035.529-.076.746-.127v.855c0 1.766-.021 2.334-.091 2.5a1.685 1.685 0 01-.716.787c-.287.146-.376.307-.255.455.067.08.196.094.629.066.822-.051 1.403-.355 1.699-.891.095-.172.117-.518.147-2.318.032-1.953.046-2.141.173-2.42.077-.166.188-.346.25-.395.104-.086.111.084.111 2.42-.001 2.578-.027 2.889-.285 3.385-.058.113-.168.26-.245.33-.135.123-.192.438-.098.533.155.154.932-.088 1.356-.422.722-.572.808-1.045.814-4.461l.003-2.004.219.021.219.02.036 2.621c.041 2.951.047 2.994.549 3.564.285.322.572.5 1.039.639.625.188.813-.102.393-.605-.457-.547-.479-.756-.454-3.994.017-2.076.017-2.076.151-1.955.282.256.336.676.336 2.623 0 2.418.069 2.648.923 3.07.399.195.511.219 1.022.221.544.002.577-.006.597-.148.017-.115-.05-.193-.304-.348a1.738 1.738 0 01-.709-.797c-.055-.127-.092-.959-.117-2.672-.036-2.393-.044-2.502-.193-2.877-.201-.504-.508-.902-.897-1.166a1.29 1.29 0 00-.333-.162c.161-.016.317-.033.468-.055 1.572-.209 2.403-.383 3.07-.641 1.411-.543 2.365-1.445 2.882-2.724.046-.114.092-.222.131-.309l.398.033c2.051.173 3.706.42 4.979.743.698.177.831.198.668.105-.152-.085-1.482-.386-2.382-.537zm-6.014-.031c-.233.512-.883 1.17-1.408 1.428-.518.256-1.33.451-2.25.544-.629.064-4.137.083-4.716.026-1.917-.188-2.991-.557-3.783-1.296-.75-.702-1.1-1.655-1.039-2.828.039-.734.216-1.195.679-1.755.421-.51.864-.825 1.386-.985.437-.134 1.778-.146 3.581-.03.797.051 1.456.051 2.252 0 1.886-.119 3.145-.106 3.61.038.731.226 1.397.834 1.797 1.644.18.362.215.516.241 1.075.036.77-.097 1.588-.35 2.139zm-9.51-3.306c-1.073-.188-1.686 1.649-.863 2.587.391.445.738.518 1.172.248.402-.251.62-.72.62-1.328 0-.811-.369-1.407-.929-1.507zm6.513.11c-1.073-.188-1.687 1.647-.864 2.586.392.445.738.519 1.173.247.401-.25.62-.72.62-1.328 0-.808-.369-1.406-.929-1.505zm-2.886 3.612c-.023.074-.135.184-.248.243-.286.147-.492.096-.794-.179-.187-.169-.272-.258-.329-.081-.053.164.28.493.537.594.236.094.405.097.661-.01.254-.106.476-.391.476-.576 0-.172-.247-.164-.303.009zm-.317-.575c.163-.144.2-.44.044-.597s-.473-.133-.597.043c-.144.206-.067.363.036.53.16.124.375.149.517.024z" opacity="NaN" stroke="null" fill="url(#svg_20)"/><path stroke="null" d="M365.009 168.227c-16.086-2.994-32.827-4.965-46.42-5.499l-2.398-.088c.549-1.334.964-2.238 1.098-2.372.295-.267.536-1.393.562-2.49 0-.607.242-2.579.617-5.187 3.683.148 8.571.267 13.902.311 20.585.178 42.12 2.016 56.893 4.906 8.8 1.72 11.706 1.66 5.21-.089-6.576-1.764-26.076-4.357-41.612-5.484-10.433-.785-25.393-1.082-34.206-.919.254-1.69.55-3.572.857-5.498 1.246-7.455 1.66-14.955 1.688-29.88.027-23.15-1.099-29.523-7.916-44.834-2.772-6.254-5.906-11.56-9.696-16.362 3.308-10.805 3.228-27.538-.201-42.21C300.56.496 299.57-.275 289.713 2.037c-8.358 1.971-15.054 4.654-23.64 9.441-4.057 2.268-9.656 5.795-13.714 8.567-10.58-4.12-21.523-6.848-33.201-8.315-11.84-1.482-40.863-.652-51.162 1.452-10.072 2.06-19.139 4.58-27.349 7.574-4.098-2.801-10.045-6.58-14.29-8.952-8.625-4.802-15.322-7.47-23.706-9.441C92.821.037 91.803.823 88.99 12.857c-3.482 14.866-3.509 31.88-.067 42.656.402 1.23.643 2.104.737 2.786-13.956 19.445-18.51 41.203-15.483 71.571.79 7.915 2.01 15.177 3.71 21.832-8.906-.06-21.576.296-30.724.948-15.562 1.141-35.063 3.705-41.639 5.47-6.482 1.748-3.603 1.807 5.21.103 14.773-2.875 36.322-4.743 56.894-4.906 3.884-.015 7.514-.104 10.634-.193a101.084 101.084 0 003.228 10.05l-.094.014c-13.594.519-30.322 2.49-46.407 5.484-12.067 2.238-29.88 6.714-31.956 8.003-2.183 1.349-.402 1.052 8.947-1.57 17.049-4.773 39.215-8.434 66.67-10.983l3.068-.297c5.893 15.147 14.973 26.708 27.804 35.72 7.848 5.527 20.424 11.204 26.76 12.093 1.74.237 6.803 1.393 11.25 2.55 4.46 1.155 13.178 2.89 19.366 3.883h.147c-.12.088-.228.148-.335.237-7.5 4.313-12.375 11.027-15.656 21.594-1.474.49-3.308 1.156-5.29 1.912-7.086 2.668-9.845 3.216-17.023 3.275-7.447.06-9.215-.296-13.661-2.608-6.47-3.335-12.496-9.47-16.514-16.792-6.71-12.243-18.308-20.898-27.978-20.898-8.264 0-9.83 3.705-3.857 9.115 9 8.137 15.723 16.436 18.482 22.78 1.554 3.557 3.938 9.056 5.317 12.212 1.46 3.365 4.58 7.93 7.554 11.087 6.991 7.38 13.741 10.908 23.813 12.568 6.75 1.097 8.41 1.097 16.38-.03 3.843-.518 7.085-1.126 9.99-1.882v12.672c0 26.174-.28 34.593-1.218 37.053-1.768 4.683-5.732 9.5-9.59 11.664-3.843 2.164-5.035 4.55-3.415 6.744.898 1.185 2.625 1.393 8.425.978 11.009-.756 18.79-5.262 22.755-13.206 1.272-2.549 1.567-7.677 1.968-34.355.429-28.946.616-31.732 2.317-35.867 1.032-2.46 2.518-5.128 3.349-5.855 1.393-1.274 1.486 1.245 1.486 35.868-.013 38.208-.361 42.818-3.817 50.17-.777 1.674-2.25 3.853-3.281 4.89-1.808 1.823-2.572 6.492-1.313 7.9 2.076 2.282 12.483-1.305 18.161-6.255 9.67-8.477 10.822-15.488 10.902-66.117l.04-29.701 2.934.31 2.933.297.482 38.846c.55 43.738.63 44.375 7.353 52.823 3.817 4.772 7.66 7.41 13.915 9.47 8.37 2.787 10.889-1.511 5.264-8.966-6.12-8.107-6.416-11.205-6.08-59.196.227-30.768.227-30.768 2.022-28.975 3.776 3.794 4.5 10.02 4.5 38.876 0 35.837.924 39.246 12.362 45.5 5.343 2.89 6.843 3.246 13.687 3.276 7.286.03 7.728-.089 7.996-2.193.228-1.705-.67-2.86-4.072-5.158-4.46-3.038-7.553-6.922-9.495-11.813-.737-1.882-1.232-14.213-1.567-39.602-.482-35.467-.59-37.082-2.585-42.64-2.692-7.47-6.804-13.369-12.014-17.281-1.352-.979-2.705-1.794-4.46-2.401 2.157-.238 4.246-.49 6.268-.816 21.054-3.097 32.184-5.676 41.117-9.5 18.898-8.048 31.675-21.416 38.6-40.373.615-1.69 1.231-3.29 1.754-4.58l5.33.49c27.47 2.564 49.635 6.225 66.684 11.012 9.349 2.623 11.13 2.934 8.947 1.556-2.036-1.26-19.849-5.72-31.902-7.959zm-80.547-.46c-3.12 7.59-11.826 17.341-18.857 21.165-6.938 3.794-17.813 6.685-30.135 8.063-8.424.948-55.407 1.23-63.161.385-25.675-2.786-40.06-8.255-50.667-19.208-10.044-10.404-14.732-24.529-13.915-41.914.522-10.879 2.893-17.711 9.094-26.011 5.638-7.559 11.572-12.227 18.563-14.599 5.853-1.986 23.813-2.164 47.96-.444 10.675.755 19.5.755 30.162 0 25.26-1.764 42.121-1.572 48.349.563 9.79 3.35 18.71 12.36 24.067 24.366 2.411 5.365 2.88 7.647 3.228 15.932.482 11.413-1.3 23.536-4.688 31.703zM157.094 118.77c-14.37-2.786-22.58 24.44-11.558 38.342 5.236 6.596 9.884 7.678 15.696 3.676 5.384-3.72 8.304-10.671 8.304-19.683 0-12.02-4.942-20.853-12.442-22.335zm87.23 1.63c-14.372-2.786-22.595 24.41-11.572 38.328 5.25 6.595 9.884 7.692 15.71 3.66 5.37-3.705 8.303-10.67 8.303-19.682 0-11.975-4.942-20.838-12.442-22.306zm-38.653 53.534c-.308 1.097-1.808 2.727-3.322 3.602-3.83 2.178-6.59 1.423-10.634-2.653-2.504-2.505-3.643-3.824-4.406-1.2-.71 2.43 3.75 7.306 7.192 8.803 3.16 1.393 5.424 1.438 8.853-.148 3.402-1.571 6.375-5.795 6.375-8.537 0-2.55-3.308-2.43-4.058.133zm-4.246-8.522c2.183-2.134 2.679-6.521.59-8.848s-6.335-1.971-7.996.637c-1.929 3.053-.898 5.38.482 7.855 2.143 1.838 5.022 2.209 6.924.356z" fill="url(#baa)"/></svg><svg viewBox="0 0 300 300" id="star" xmlns="http://www.w3.org/2000/svg"><defs><linearGradient y2="0" x2="1" y1="1" x1="0" id="bba"><stop stop-color="#002296" offset="14%"/><stop stop-color="#82008f" offset="28%"/><stop stop-color="#c0007a" offset="42%"/><stop stop-color="#ea0c5f" offset="56%"/><stop stop-color="#ff5341" offset="70%"/><stop stop-color="#ff8820" offset="84%"/><stop stop-color="#f6ba00" offset="100%"/></linearGradient></defs><path stroke="null" d="M-.002 114.44h113.827L149 .024l35.173 114.418H298l-92.088 70.713 35.175 114.418L149 228.857l-92.09 70.715 35.175-114.418L0 114.44z" fill="url(#bba)"/></svg></svg>