<svg width="30" height="30" viewBox="0 0 30 30" fill="none" xmlns="http://www.w3.org/2000/svg">
<path fill-rule="evenodd" clip-rule="evenodd" d="M14.9991 3.75C8.78719 3.75 3.75 8.78719 3.75 15.0009C3.75 19.9706 6.97312 24.1875 11.4441 25.6753C12.0066 25.7784 12.2119 25.4316 12.2119 25.1334C12.2119 24.8663 12.2025 24.1584 12.1969 23.22C9.0675 23.8997 8.4075 21.7116 8.4075 21.7116C7.89563 20.4122 7.15875 20.0662 7.15875 20.0662C6.13688 19.3678 7.23562 19.3828 7.23562 19.3828C8.36437 19.4625 8.95875 20.5425 8.95875 20.5425C9.96187 22.2619 11.5922 21.765 12.2325 21.4772C12.3347 20.7506 12.6253 20.2547 12.9469 19.9734C10.4484 19.6894 7.8225 18.7247 7.8225 14.4131C7.8225 13.185 8.26125 12.1809 8.98031 11.3944C8.865 11.1094 8.47875 9.96562 9.09094 8.41687C9.09094 8.41687 10.0359 8.11406 12.1847 9.57C13.0819 9.32063 14.0447 9.19594 15.0009 9.19125C15.9562 9.19594 16.9191 9.32063 17.8172 9.57C19.965 8.11406 20.9081 8.41687 20.9081 8.41687C21.5222 9.96562 21.1359 11.1094 21.0197 11.3944C21.7406 12.1809 22.1756 13.185 22.1756 14.4131C22.1756 18.735 19.545 19.6856 17.0391 19.9641C17.4431 20.3109 17.8031 20.9981 17.8031 22.0472C17.8031 23.5509 17.7891 24.7641 17.7891 25.1334C17.7891 25.4344 17.9916 25.7841 18.5625 25.6744C23.0297 24.1828 26.25 19.9697 26.25 15.0009C26.25 8.78719 21.2128 3.75 14.9991 3.75Z" fill="white"/>
</svg>
