<svg width="30" height="30" viewBox="0 0 30 30" fill="none" xmlns="http://www.w3.org/2000/svg">
<path d="M14.9998 7.2002C7.00013 7.2002 0.749793 14.6064 0.749793 14.6064C0.654835 14.7156 0.602539 14.8555 0.602539 15.0002C0.602539 15.1449 0.654835 15.2847 0.749793 15.3939C0.749793 15.3939 7.00013 22.8002 14.9998 22.8002C22.9995 22.8002 29.2498 15.3939 29.2498 15.3939C29.3447 15.2847 29.397 15.1449 29.397 15.0002C29.397 14.8555 29.3447 14.7156 29.2498 14.6064C29.2498 14.6064 22.9995 7.2002 14.9998 7.2002ZM14.9998 8.4002C16.5762 8.4002 18.0849 8.72695 19.481 9.2252C20.4196 10.2844 20.9998 11.6705 20.9998 13.2002C20.9998 16.5216 18.3212 19.2002 14.9998 19.2002C11.6784 19.2002 8.99979 16.5216 8.99979 13.2002C8.99979 11.6706 9.56122 10.2837 10.4998 9.2252C11.9006 8.7235 13.4171 8.4002 14.9998 8.4002ZM8.51229 10.1064C8.06327 11.0448 7.79979 12.0932 7.79979 13.2002C7.79979 17.17 11.03 20.4002 14.9998 20.4002C18.9696 20.4002 22.1998 17.17 22.1998 13.2002C22.1998 12.0981 21.948 11.0431 21.506 10.1064C24.8954 11.8292 27.3333 14.3268 27.956 15.0002C26.9813 16.0542 21.5824 21.6002 14.9998 21.6002C8.41721 21.6002 3.01825 16.0542 2.04354 15.0002C2.66718 14.3258 5.11519 11.8294 8.51229 10.1064ZM14.9998 10.2002C13.3429 10.2002 11.9998 11.5433 11.9998 13.2002C11.9998 14.8571 13.3429 16.2002 14.9998 16.2002C16.6566 16.2002 17.9998 14.8571 17.9998 13.2002C17.9998 11.5433 16.6566 10.2002 14.9998 10.2002Z" fill="white"/>
</svg>
