<svg width="24" height="24" viewBox="0 0 24 24" fill="none" xmlns="http://www.w3.org/2000/svg">
<path d="M7.77044 23.5799L5.53044 21.5799C5.48357 21.5334 5.44638 21.4781 5.42099 21.4172C5.39561 21.3562 5.38254 21.2909 5.38254 21.2249C5.38254 21.1589 5.39561 21.0935 5.42099 21.0326C5.44638 20.9717 5.48357 20.9164 5.53044 20.8699L13.4304 11.9999L5.50044 3.12987C5.45357 3.08339 5.41638 3.02809 5.39099 2.96716C5.36561 2.90623 5.35254 2.84088 5.35254 2.77487C5.35254 2.70887 5.36561 2.64351 5.39099 2.58258C5.41638 2.52165 5.45357 2.46635 5.50044 2.41987L7.74044 0.419872C7.78692 0.373008 7.84222 0.33581 7.90315 0.310426C7.96408 0.285042 8.02943 0.271973 8.09544 0.271973C8.16144 0.271973 8.2268 0.285042 8.28773 0.310426C8.34866 0.33581 8.40396 0.373008 8.45044 0.419872L18.8004 11.9999L8.48044 23.5399C8.43666 23.5894 8.38347 23.6298 8.32397 23.6587C8.26447 23.6876 8.19983 23.7044 8.13379 23.7081C8.06775 23.7118 8.00164 23.7024 7.93927 23.6804C7.87689 23.6584 7.81951 23.6242 7.77044 23.5799Z" fill="white"/>
</svg>
