<svg width="400" height="350" xmlns="http://www.w3.org/2000/svg" version="1.1">
 <defs>
  <linearGradient y2="0" x2="1" y1="1" x1="0" id="svg_29">
   <stop offset="14%" stop-color="#002296"/>
   <stop offset="28%" stop-color="#82008f"/>
   <stop offset="42%" stop-color="#c0007a"/>
   <stop offset="56%" stop-color="#ea0c5f"/>
   <stop offset="70%" stop-color="#ff5341"/>
   <stop offset="84%" stop-color="#ff8820"/>
   <stop offset="100%" stop-color="#f6ba00"/>
  </linearGradient>
 </defs>
 <g>
  <title>Layer 1</title>
  <path transform="translate(285,390) scale(0.005) translate(-285,-390)" id="svg_1" d="m16,8.286c-7.546,0 -13.5,7.714 -13.5,7.714s5.954,7.715 13.5,7.715c5.771,0 13.5,-7.715 13.5,-7.715s-7.729,-7.714 -13.5,-7.714zm0,12.521c-2.649,0 -4.807,-2.157 -4.807,-4.807s2.158,-4.807 4.807,-4.807s4.807,2.158 4.807,4.807s-2.158,4.807 -4.807,4.807zm0,-7.613c-1.549,0 -2.806,1.256 -2.806,2.806c0,1.55 1.256,2.806 2.806,2.806c1.55,0 2.806,-1.256 2.806,-2.806c0,-1.549 -1.256,-2.806 -2.806,-2.806z" opacity="NaN" fill="url(#linear-gradient)"/>
  <path transform="translate(240,411) scale(0.005) translate(-240,-411)" id="svg_2" d="m16,8.286c-7.546,0 -13.5,7.714 -13.5,7.714s5.954,7.715 13.5,7.715c5.771,0 13.5,-7.715 13.5,-7.715s-7.729,-7.714 -13.5,-7.714zm0,12.521c-2.649,0 -4.807,-2.157 -4.807,-4.807s2.158,-4.807 4.807,-4.807s4.807,2.158 4.807,4.807s-2.158,4.807 -4.807,4.807zm0,-7.613c-1.549,0 -2.806,1.256 -2.806,2.806c0,1.55 1.256,2.806 2.806,2.806c1.55,0 2.806,-1.256 2.806,-2.806c0,-1.549 -1.256,-2.806 -2.806,-2.806z" opacity="NaN" fill="url(#linear-gradient)"/>
  <path transform="translate(199,418) scale(0.005) translate(-199,-418)" id="svg_3" d="m16,8.286c-7.546,0 -13.5,7.714 -13.5,7.714s5.954,7.715 13.5,7.715c5.771,0 13.5,-7.715 13.5,-7.715s-7.729,-7.714 -13.5,-7.714zm0,12.521c-2.649,0 -4.807,-2.157 -4.807,-4.807s2.158,-4.807 4.807,-4.807s4.807,2.158 4.807,4.807s-2.158,4.807 -4.807,4.807zm0,-7.613c-1.549,0 -2.806,1.256 -2.806,2.806c0,1.55 1.256,2.806 2.806,2.806c1.55,0 2.806,-1.256 2.806,-2.806c0,-1.549 -1.256,-2.806 -2.806,-2.806z" opacity="NaN" fill="url(#linear-gradient)"/>
  <path transform="translate(199,418) scale(0.005) translate(-199,-418)" id="svg_4" d="m16,8.286c-7.546,0 -13.5,7.714 -13.5,7.714s5.954,7.715 13.5,7.715c5.771,0 13.5,-7.715 13.5,-7.715s-7.729,-7.714 -13.5,-7.714zm0,12.521c-2.649,0 -4.807,-2.157 -4.807,-4.807s2.158,-4.807 4.807,-4.807s4.807,2.158 4.807,4.807s-2.158,4.807 -4.807,4.807zm0,-7.613c-1.549,0 -2.806,1.256 -2.806,2.806c0,1.55 1.256,2.806 2.806,2.806c1.55,0 2.806,-1.256 2.806,-2.806c0,-1.549 -1.256,-2.806 -2.806,-2.806z" opacity="NaN" fill="url(#linear-gradient)"/>
  <path transform="translate(286,488) scale(0.005) translate(-286,-488)" id="svg_5" d="m16,8.286c-7.546,0 -13.5,7.714 -13.5,7.714s5.954,7.715 13.5,7.715c5.771,0 13.5,-7.715 13.5,-7.715s-7.729,-7.714 -13.5,-7.714zm0,12.521c-2.649,0 -4.807,-2.157 -4.807,-4.807s2.158,-4.807 4.807,-4.807s4.807,2.158 4.807,4.807s-2.158,4.807 -4.807,4.807zm0,-7.613c-1.549,0 -2.806,1.256 -2.806,2.806c0,1.55 1.256,2.806 2.806,2.806c1.55,0 2.806,-1.256 2.806,-2.806c0,-1.549 -1.256,-2.806 -2.806,-2.806z" opacity="NaN" fill="url(#linear-gradient)"/>
  <path transform="translate(285,487) scale(0.005) translate(-285,-487)" id="svg_6" d="m16,8.286c-7.546,0 -13.5,7.714 -13.5,7.714s5.954,7.715 13.5,7.715c5.771,0 13.5,-7.715 13.5,-7.715s-7.729,-7.714 -13.5,-7.714zm0,12.521c-2.649,0 -4.807,-2.157 -4.807,-4.807s2.158,-4.807 4.807,-4.807s4.807,2.158 4.807,4.807s-2.158,4.807 -4.807,4.807zm0,-7.613c-1.549,0 -2.806,1.256 -2.806,2.806c0,1.55 1.256,2.806 2.806,2.806c1.55,0 2.806,-1.256 2.806,-2.806c0,-1.549 -1.256,-2.806 -2.806,-2.806z" opacity="NaN" fill="url(#linear-gradient)"/>
  <path transform="translate(285,487) scale(0.005) translate(-285,-487)" id="svg_7" d="m16,8.286c-7.546,0 -13.5,7.714 -13.5,7.714s5.954,7.715 13.5,7.715c5.771,0 13.5,-7.715 13.5,-7.715s-7.729,-7.714 -13.5,-7.714zm0,12.521c-2.649,0 -4.807,-2.157 -4.807,-4.807s2.158,-4.807 4.807,-4.807s4.807,2.158 4.807,4.807s-2.158,4.807 -4.807,4.807zm0,-7.613c-1.549,0 -2.806,1.256 -2.806,2.806c0,1.55 1.256,2.806 2.806,2.806c1.55,0 2.806,-1.256 2.806,-2.806c0,-1.549 -1.256,-2.806 -2.806,-2.806z" opacity="NaN" fill="url(#linear-gradient)"/>
  <path transform="translate(208,406) scale(0.005) translate(-208,-406)" id="svg_8" d="m16,8.286c-7.546,0 -13.5,7.714 -13.5,7.714s5.954,7.715 13.5,7.715c5.771,0 13.5,-7.715 13.5,-7.715s-7.729,-7.714 -13.5,-7.714zm0,12.521c-2.649,0 -4.807,-2.157 -4.807,-4.807s2.158,-4.807 4.807,-4.807s4.807,2.158 4.807,4.807s-2.158,4.807 -4.807,4.807zm0,-7.613c-1.549,0 -2.806,1.256 -2.806,2.806c0,1.55 1.256,2.806 2.806,2.806c1.55,0 2.806,-1.256 2.806,-2.806c0,-1.549 -1.256,-2.806 -2.806,-2.806z" opacity="NaN" fill="url(#linear-gradient)"/>
  <path transform="translate(169,226) scale(0.005) translate(-169,-226)" id="svg_9" d="m16,8.286c-7.546,0 -13.5,7.714 -13.5,7.714s5.954,7.715 13.5,7.715c5.771,0 13.5,-7.715 13.5,-7.715s-7.729,-7.714 -13.5,-7.714zm0,12.521c-2.649,0 -4.807,-2.157 -4.807,-4.807s2.158,-4.807 4.807,-4.807s4.807,2.158 4.807,4.807s-2.158,4.807 -4.807,4.807zm0,-7.613c-1.549,0 -2.806,1.256 -2.806,2.806c0,1.55 1.256,2.806 2.806,2.806c1.55,0 2.806,-1.256 2.806,-2.806c0,-1.549 -1.256,-2.806 -2.806,-2.806z" opacity="NaN" fill="url(#linear-gradient)"/>
  <path transform="translate(188,209) scale(0.005) translate(-188,-209)" id="svg_10" d="m16,8.286c-7.546,0 -13.5,7.714 -13.5,7.714s5.954,7.715 13.5,7.715c5.771,0 13.5,-7.715 13.5,-7.715s-7.729,-7.714 -13.5,-7.714zm0,12.521c-2.649,0 -4.807,-2.157 -4.807,-4.807s2.158,-4.807 4.807,-4.807s4.807,2.158 4.807,4.807s-2.158,4.807 -4.807,4.807zm0,-7.613c-1.549,0 -2.806,1.256 -2.806,2.806c0,1.55 1.256,2.806 2.806,2.806c1.55,0 2.806,-1.256 2.806,-2.806c0,-1.549 -1.256,-2.806 -2.806,-2.806z" opacity="NaN" fill="url(#linear-gradient)"/>
  <path transform="translate(196,427) scale(0.005) translate(-196,-427)" id="svg_11" d="m16,8.286c-7.546,0 -13.5,7.714 -13.5,7.714s5.954,7.715 13.5,7.715c5.771,0 13.5,-7.715 13.5,-7.715s-7.729,-7.714 -13.5,-7.714zm0,12.521c-2.649,0 -4.807,-2.157 -4.807,-4.807s2.158,-4.807 4.807,-4.807s4.807,2.158 4.807,4.807s-2.158,4.807 -4.807,4.807zm0,-7.613c-1.549,0 -2.806,1.256 -2.806,2.806c0,1.55 1.256,2.806 2.806,2.806c1.55,0 2.806,-1.256 2.806,-2.806c0,-1.549 -1.256,-2.806 -2.806,-2.806z" opacity="NaN" fill="url(#linear-gradient)"/>
  <path transform="translate(109,423) scale(0.005) translate(-109,-423)" id="svg_12" d="m16,8.286c-7.546,0 -13.5,7.714 -13.5,7.714s5.954,7.715 13.5,7.715c5.771,0 13.5,-7.715 13.5,-7.715s-7.729,-7.714 -13.5,-7.714zm0,12.521c-2.649,0 -4.807,-2.157 -4.807,-4.807s2.158,-4.807 4.807,-4.807s4.807,2.158 4.807,4.807s-2.158,4.807 -4.807,4.807zm0,-7.613c-1.549,0 -2.806,1.256 -2.806,2.806c0,1.55 1.256,2.806 2.806,2.806c1.55,0 2.806,-1.256 2.806,-2.806c0,-1.549 -1.256,-2.806 -2.806,-2.806z" opacity="NaN" fill="url(#linear-gradient)"/>
  <path transform="translate(109,423) scale(0.005) translate(-109,-423)" id="svg_13" d="m16,8.286c-7.546,0 -13.5,7.714 -13.5,7.714s5.954,7.715 13.5,7.715c5.771,0 13.5,-7.715 13.5,-7.715s-7.729,-7.714 -13.5,-7.714zm0,12.521c-2.649,0 -4.807,-2.157 -4.807,-4.807s2.158,-4.807 4.807,-4.807s4.807,2.158 4.807,4.807s-2.158,4.807 -4.807,4.807zm0,-7.613c-1.549,0 -2.806,1.256 -2.806,2.806c0,1.55 1.256,2.806 2.806,2.806c1.55,0 2.806,-1.256 2.806,-2.806c0,-1.549 -1.256,-2.806 -2.806,-2.806z" opacity="NaN" fill="url(#linear-gradient)"/>
  <path transform="translate(109,423) scale(0.005) translate(-109,-423)" id="svg_14" d="m16,8.286c-7.546,0 -13.5,7.714 -13.5,7.714s5.954,7.715 13.5,7.715c5.771,0 13.5,-7.715 13.5,-7.715s-7.729,-7.714 -13.5,-7.714zm0,12.521c-2.649,0 -4.807,-2.157 -4.807,-4.807s2.158,-4.807 4.807,-4.807s4.807,2.158 4.807,4.807s-2.158,4.807 -4.807,4.807zm0,-7.613c-1.549,0 -2.806,1.256 -2.806,2.806c0,1.55 1.256,2.806 2.806,2.806c1.55,0 2.806,-1.256 2.806,-2.806c0,-1.549 -1.256,-2.806 -2.806,-2.806z" opacity="NaN" fill="url(#linear-gradient)"/>
  <path transform="translate(215,439) scale(0.005) translate(-215,-439)" id="svg_15" d="m21.053,20.8c-1.132,-0.453 -1.584,-1.698 -1.584,-1.698s-0.51,0.282 -0.51,-0.51s0.51,0.51 1.02,-2.548c0,0 1.414,-0.397 1.132,-3.68l-0.34,0c0,0 0.849,-3.51 0,-4.699c-0.85,-1.189 -1.189,-1.981 -3.058,-2.548s-1.188,-0.454 -2.547,-0.396c-1.359,0.057 -2.492,0.792 -2.492,1.188c0,0 -0.849,0.057 -1.188,0.397c-0.34,0.34 -0.906,1.924 -0.906,2.321s0.283,3.058 0.566,3.624l-0.337,0.113c-0.283,3.283 1.132,3.68 1.132,3.68c0.509,3.058 1.019,1.756 1.019,2.548s-0.51,0.51 -0.51,0.51s-0.452,1.245 -1.584,1.698c-1.132,0.452 -7.416,2.886 -7.927,3.396c-0.511,0.511 -0.453,2.888 -0.453,2.888l26.947,0c0,0 0.059,-2.377 -0.452,-2.888c-0.512,-0.51 -6.796,-2.944 -7.928,-3.396zm-12.47,-0.172c-0.099,-0.18 -0.148,-0.31 -0.148,-0.31s-0.432,0.239 -0.432,-0.432s0.432,0.432 0.864,-2.159c0,0 1.199,-0.336 0.959,-3.119l-0.288,0c0,0 0.143,-0.591 0.237,-1.334c-0.004,-0.308 0.006,-0.636 0.037,-0.996l0.038,-0.426c-0.021,-0.492 -0.107,-0.939 -0.312,-1.226c-0.72,-1.007 -1.008,-1.679 -2.591,-2.159c-1.583,-0.48 -1.008,-0.385 -2.159,-0.336c-1.152,0.048 -2.112,0.671 -2.112,1.008c0,0 -0.72,0.048 -1.008,0.336c-0.271,0.271 -0.705,1.462 -0.757,1.885l0,0.281c0.047,0.653 0.258,2.449 0.469,2.872l-0.286,0.096c-0.239,2.783 0.959,3.119 0.959,3.119c0.432,2.591 0.864,1.488 0.864,2.159s-0.432,0.432 -0.432,0.432s-0.383,1.057 -1.343,1.439c-0.061,0.024 -0.139,0.056 -0.232,0.092l0,5.234l0.575,0c-0.029,-1.278 0.077,-2.927 0.746,-3.594c0.356,-0.355 1.523,-0.939 6.352,-2.862zm22.33,-9.056c-0.04,-0.378 -0.127,-0.715 -0.292,-0.946c-0.719,-1.008 -1.008,-1.679 -2.59,-2.159c-1.584,-0.48 -1.008,-0.385 -2.16,-0.336c-1.151,0.048 -2.111,0.671 -2.111,1.008c0,0 -0.719,0.048 -1.008,0.336c-0.271,0.272 -0.709,1.472 -0.758,1.891l0.033,0l0.08,0.913c0.02,0.231 0.022,0.436 0.027,0.645c0.09,0.666 0.21,1.35 0.33,1.589l-0.286,0.096c-0.239,2.783 0.96,3.119 0.96,3.119c0.432,2.591 0.863,1.488 0.863,2.159s-0.432,0.432 -0.432,0.432s-0.053,0.142 -0.163,0.338c4.77,1.9 5.927,2.48 6.279,2.834c0.67,0.667 0.775,2.315 0.746,3.594l0.48,0l0,-5.306c-0.016,-0.006 -0.038,-0.015 -0.052,-0.021c-0.959,-0.383 -1.343,-1.439 -1.343,-1.439s-0.433,0.239 -0.433,-0.432s0.433,0.432 0.864,-2.159c0,0 0.804,-0.229 0.963,-1.841l0,-1.227c-0.001,-0.018 -0.001,-0.033 -0.003,-0.051l-0.289,0c0,0 0.215,-0.89 0.292,-1.861l0,-1.176l0.003,0z" opacity="NaN" fill="url(#linear-gradient)"/>
  <path transform="translate(280,523) scale(0.005) translate(-280,-523)" id="svg_16" d="m21.053,20.8c-1.132,-0.453 -1.584,-1.698 -1.584,-1.698s-0.51,0.282 -0.51,-0.51s0.51,0.51 1.02,-2.548c0,0 1.414,-0.397 1.132,-3.68l-0.34,0c0,0 0.849,-3.51 0,-4.699c-0.85,-1.189 -1.189,-1.981 -3.058,-2.548s-1.188,-0.454 -2.547,-0.396c-1.359,0.057 -2.492,0.792 -2.492,1.188c0,0 -0.849,0.057 -1.188,0.397c-0.34,0.34 -0.906,1.924 -0.906,2.321s0.283,3.058 0.566,3.624l-0.337,0.113c-0.283,3.283 1.132,3.68 1.132,3.68c0.509,3.058 1.019,1.756 1.019,2.548s-0.51,0.51 -0.51,0.51s-0.452,1.245 -1.584,1.698c-1.132,0.452 -7.416,2.886 -7.927,3.396c-0.511,0.511 -0.453,2.888 -0.453,2.888l26.947,0c0,0 0.059,-2.377 -0.452,-2.888c-0.512,-0.51 -6.796,-2.944 -7.928,-3.396zm-12.47,-0.172c-0.099,-0.18 -0.148,-0.31 -0.148,-0.31s-0.432,0.239 -0.432,-0.432s0.432,0.432 0.864,-2.159c0,0 1.199,-0.336 0.959,-3.119l-0.288,0c0,0 0.143,-0.591 0.237,-1.334c-0.004,-0.308 0.006,-0.636 0.037,-0.996l0.038,-0.426c-0.021,-0.492 -0.107,-0.939 -0.312,-1.226c-0.72,-1.007 -1.008,-1.679 -2.591,-2.159c-1.583,-0.48 -1.008,-0.385 -2.159,-0.336c-1.152,0.048 -2.112,0.671 -2.112,1.008c0,0 -0.72,0.048 -1.008,0.336c-0.271,0.271 -0.705,1.462 -0.757,1.885l0,0.281c0.047,0.653 0.258,2.449 0.469,2.872l-0.286,0.096c-0.239,2.783 0.959,3.119 0.959,3.119c0.432,2.591 0.864,1.488 0.864,2.159s-0.432,0.432 -0.432,0.432s-0.383,1.057 -1.343,1.439c-0.061,0.024 -0.139,0.056 -0.232,0.092l0,5.234l0.575,0c-0.029,-1.278 0.077,-2.927 0.746,-3.594c0.356,-0.355 1.523,-0.939 6.352,-2.862zm22.33,-9.056c-0.04,-0.378 -0.127,-0.715 -0.292,-0.946c-0.719,-1.008 -1.008,-1.679 -2.59,-2.159c-1.584,-0.48 -1.008,-0.385 -2.16,-0.336c-1.151,0.048 -2.111,0.671 -2.111,1.008c0,0 -0.719,0.048 -1.008,0.336c-0.271,0.272 -0.709,1.472 -0.758,1.891l0.033,0l0.08,0.913c0.02,0.231 0.022,0.436 0.027,0.645c0.09,0.666 0.21,1.35 0.33,1.589l-0.286,0.096c-0.239,2.783 0.96,3.119 0.96,3.119c0.432,2.591 0.863,1.488 0.863,2.159s-0.432,0.432 -0.432,0.432s-0.053,0.142 -0.163,0.338c4.77,1.9 5.927,2.48 6.279,2.834c0.67,0.667 0.775,2.315 0.746,3.594l0.48,0l0,-5.306c-0.016,-0.006 -0.038,-0.015 -0.052,-0.021c-0.959,-0.383 -1.343,-1.439 -1.343,-1.439s-0.433,0.239 -0.433,-0.432s0.433,0.432 0.864,-2.159c0,0 0.804,-0.229 0.963,-1.841l0,-1.227c-0.001,-0.018 -0.001,-0.033 -0.003,-0.051l-0.289,0c0,0 0.215,-0.89 0.292,-1.861l0,-1.176l0.003,0z" opacity="NaN" fill="url(#linear-gradient)"/>
  <path transform="translate(-142,569) scale(0.005) translate(142,-569)" id="svg_19" d="m16,8.286c-7.546,0 -13.5,7.714 -13.5,7.714s5.954,7.715 13.5,7.715c5.771,0 13.5,-7.715 13.5,-7.715s-7.729,-7.714 -13.5,-7.714zm0,12.521c-2.649,0 -4.807,-2.157 -4.807,-4.807s2.158,-4.807 4.807,-4.807s4.807,2.158 4.807,4.807s-2.158,4.807 -4.807,4.807zm0,-7.613c-1.549,0 -2.806,1.256 -2.806,2.806c0,1.55 1.256,2.806 2.806,2.806c1.55,0 2.806,-1.256 2.806,-2.806c0,-1.549 -1.256,-2.806 -2.806,-2.806z" opacity="NaN" fill="url(#svg_17)"/>
  <path transform="translate(134,63.5) scale(0.005) translate(-134,-63.5)" id="svg_27" d="m28.436,15.099c-1.201,-0.202 -2.451,-0.335 -3.466,-0.371l-0.179,-0.006c0.041,-0.09 0.072,-0.151 0.082,-0.16c0.022,-0.018 0.04,-0.094 0.042,-0.168c0,-0.041 0.018,-0.174 0.046,-0.35c0.275,0.01 0.64,0.018 1.038,0.021c1.537,0.012 3.145,0.136 4.248,0.331c0.657,0.116 0.874,0.112 0.389,-0.006c-0.491,-0.119 -1.947,-0.294 -3.107,-0.37c-0.779,-0.053 -1.896,-0.073 -2.554,-0.062c0.019,-0.114 0.041,-0.241 0.064,-0.371c0.093,-0.503 0.124,-1.009 0.126,-2.016c0.002,-1.562 -0.082,-1.992 -0.591,-3.025c-0.207,-0.422 -0.441,-0.78 -0.724,-1.104c0.247,-0.729 0.241,-1.858 -0.015,-2.848c-0.211,-0.812 -0.285,-0.864 -1.021,-0.708c-0.624,0.133 -1.124,0.314 -1.765,0.637c-0.303,0.153 -0.721,0.391 -1.024,0.578c-0.79,-0.278 -1.607,-0.462 -2.479,-0.561c-0.884,-0.1 -3.051,-0.044 -3.82,0.098c-0.752,0.139 -1.429,0.309 -2.042,0.511c-0.306,-0.189 -0.75,-0.444 -1.067,-0.604c-0.644,-0.324 -1.144,-0.504 -1.77,-0.637c-0.734,-0.157 -0.81,-0.104 -1.02,0.708c-0.26,1.003 -0.262,2.151 -0.005,2.878c0.03,0.083 0.048,0.142 0.055,0.188c-1.042,1.312 -1.382,2.78 -1.156,4.829c0.059,0.534 0.15,1.024 0.277,1.473c-0.665,-0.004 -1.611,0.02 -2.294,0.064c-1.162,0.077 -2.618,0.25 -3.109,0.369c-0.484,0.118 -0.269,0.122 0.389,0.007c1.103,-0.194 2.712,-0.32 4.248,-0.331c0.29,-0.001 0.561,-0.007 0.794,-0.013c0.07,0.237 0.15,0.463 0.241,0.678l-0.007,0.001c-1.015,0.035 -2.264,0.168 -3.465,0.37c-0.901,0.151 -2.231,0.453 -2.386,0.54c-0.163,0.091 -0.03,0.071 0.668,-0.106c1.273,-0.322 2.928,-0.569 4.978,-0.741l0.229,-0.02c0.44,1.022 1.118,1.802 2.076,2.41c0.586,0.373 1.525,0.756 1.998,0.816c0.13,0.016 0.508,0.094 0.84,0.172c0.333,0.078 0.984,0.195 1.446,0.262l0.011,0c-0.009,0.006 -0.017,0.01 -0.025,0.016c-0.56,0.291 -0.924,0.744 -1.169,1.457c-0.11,0.033 -0.247,0.078 -0.395,0.129c-0.529,0.18 -0.735,0.217 -1.271,0.221c-0.556,0.004 -0.688,-0.02 -1.02,-0.176c-0.483,-0.225 -0.933,-0.639 -1.233,-1.133c-0.501,-0.826 -1.367,-1.41 -2.089,-1.41c-0.617,0 -0.734,0.25 -0.288,0.615c0.672,0.549 1.174,1.109 1.38,1.537c0.116,0.24 0.294,0.611 0.397,0.824c0.109,0.227 0.342,0.535 0.564,0.748c0.522,0.498 1.026,0.736 1.778,0.848c0.504,0.074 0.628,0.074 1.223,-0.002c0.287,-0.035 0.529,-0.076 0.746,-0.127c0,0.244 0,0.525 0,0.855c0,1.766 -0.021,2.334 -0.091,2.5c-0.132,0.316 -0.428,0.641 -0.716,0.787c-0.287,0.146 -0.376,0.307 -0.255,0.455c0.067,0.08 0.196,0.094 0.629,0.066c0.822,-0.051 1.403,-0.355 1.699,-0.891c0.095,-0.172 0.117,-0.518 0.147,-2.318c0.032,-1.953 0.046,-2.141 0.173,-2.42c0.077,-0.166 0.188,-0.346 0.25,-0.395c0.104,-0.086 0.111,0.084 0.111,2.42c-0.001,2.578 -0.027,2.889 -0.285,3.385c-0.058,0.113 -0.168,0.26 -0.245,0.33c-0.135,0.123 -0.192,0.438 -0.098,0.533c0.155,0.154 0.932,-0.088 1.356,-0.422c0.722,-0.572 0.808,-1.045 0.814,-4.461l0.003,-2.004l0.219,0.021l0.219,0.02l0.036,2.621c0.041,2.951 0.047,2.994 0.549,3.564c0.285,0.322 0.572,0.5 1.039,0.639c0.625,0.188 0.813,-0.102 0.393,-0.605c-0.457,-0.547 -0.479,-0.756 -0.454,-3.994c0.017,-2.076 0.017,-2.076 0.151,-1.955c0.282,0.256 0.336,0.676 0.336,2.623c0,2.418 0.069,2.648 0.923,3.07c0.399,0.195 0.511,0.219 1.022,0.221c0.544,0.002 0.577,-0.006 0.597,-0.148c0.017,-0.115 -0.05,-0.193 -0.304,-0.348c-0.333,-0.205 -0.564,-0.467 -0.709,-0.797c-0.055,-0.127 -0.092,-0.959 -0.117,-2.672c-0.036,-2.393 -0.044,-2.502 -0.193,-2.877c-0.201,-0.504 -0.508,-0.902 -0.897,-1.166c-0.101,-0.066 -0.202,-0.121 -0.333,-0.162c0.161,-0.016 0.317,-0.033 0.468,-0.055c1.572,-0.209 2.403,-0.383 3.07,-0.641c1.411,-0.543 2.365,-1.445 2.882,-2.724c0.046,-0.114 0.092,-0.222 0.131,-0.309l0.398,0.033c2.051,0.173 3.706,0.42 4.979,0.743c0.698,0.177 0.831,0.198 0.668,0.105c-0.152,-0.085 -1.482,-0.386 -2.382,-0.537zm-6.014,-0.031c-0.233,0.512 -0.883,1.17 -1.408,1.428c-0.518,0.256 -1.33,0.451 -2.25,0.544c-0.629,0.064 -4.137,0.083 -4.716,0.026c-1.917,-0.188 -2.991,-0.557 -3.783,-1.296c-0.75,-0.702 -1.1,-1.655 -1.039,-2.828c0.039,-0.734 0.216,-1.195 0.679,-1.755c0.421,-0.51 0.864,-0.825 1.386,-0.985c0.437,-0.134 1.778,-0.146 3.581,-0.03c0.797,0.051 1.456,0.051 2.252,0c1.886,-0.119 3.145,-0.106 3.61,0.038c0.731,0.226 1.397,0.834 1.797,1.644c0.18,0.362 0.215,0.516 0.241,1.075c0.036,0.77 -0.097,1.588 -0.35,2.139zm-9.51,-3.306c-1.073,-0.188 -1.686,1.649 -0.863,2.587c0.391,0.445 0.738,0.518 1.172,0.248c0.402,-0.251 0.62,-0.72 0.62,-1.328c0,-0.811 -0.369,-1.407 -0.929,-1.507zm6.513,0.11c-1.073,-0.188 -1.687,1.647 -0.864,2.586c0.392,0.445 0.738,0.519 1.173,0.247c0.401,-0.25 0.62,-0.72 0.62,-1.328c0,-0.808 -0.369,-1.406 -0.929,-1.505zm-2.886,3.612c-0.023,0.074 -0.135,0.184 -0.248,0.243c-0.286,0.147 -0.492,0.096 -0.794,-0.179c-0.187,-0.169 -0.272,-0.258 -0.329,-0.081c-0.053,0.164 0.28,0.493 0.537,0.594c0.236,0.094 0.405,0.097 0.661,-0.01c0.254,-0.106 0.476,-0.391 0.476,-0.576c0,-0.172 -0.247,-0.164 -0.303,0.009zm-0.317,-0.575c0.163,-0.144 0.2,-0.44 0.044,-0.597s-0.473,-0.133 -0.597,0.043c-0.144,0.206 -0.067,0.363 0.036,0.53c0.16,0.124 0.375,0.149 0.517,0.024z" opacity="NaN" stroke="null" fill="url(#svg_20)"/>
  <path transform="translate(104,37.5) scale(0.005) translate(-104,-37.5)" id="svg_28" d="m28.436,15.099c-1.201,-0.202 -2.451,-0.335 -3.466,-0.371l-0.179,-0.006c0.041,-0.09 0.072,-0.151 0.082,-0.16c0.022,-0.018 0.04,-0.094 0.042,-0.168c0,-0.041 0.018,-0.174 0.046,-0.35c0.275,0.01 0.64,0.018 1.038,0.021c1.537,0.012 3.145,0.136 4.248,0.331c0.657,0.116 0.874,0.112 0.389,-0.006c-0.491,-0.119 -1.947,-0.294 -3.107,-0.37c-0.779,-0.053 -1.896,-0.073 -2.554,-0.062c0.019,-0.114 0.041,-0.241 0.064,-0.371c0.093,-0.503 0.124,-1.009 0.126,-2.016c0.002,-1.562 -0.082,-1.992 -0.591,-3.025c-0.207,-0.422 -0.441,-0.78 -0.724,-1.104c0.247,-0.729 0.241,-1.858 -0.015,-2.848c-0.211,-0.812 -0.285,-0.864 -1.021,-0.708c-0.624,0.133 -1.124,0.314 -1.765,0.637c-0.303,0.153 -0.721,0.391 -1.024,0.578c-0.79,-0.278 -1.607,-0.462 -2.479,-0.561c-0.884,-0.1 -3.051,-0.044 -3.82,0.098c-0.752,0.139 -1.429,0.309 -2.042,0.511c-0.306,-0.189 -0.75,-0.444 -1.067,-0.604c-0.644,-0.324 -1.144,-0.504 -1.77,-0.637c-0.734,-0.157 -0.81,-0.104 -1.02,0.708c-0.26,1.003 -0.262,2.151 -0.005,2.878c0.03,0.083 0.048,0.142 0.055,0.188c-1.042,1.312 -1.382,2.78 -1.156,4.829c0.059,0.534 0.15,1.024 0.277,1.473c-0.665,-0.004 -1.611,0.02 -2.294,0.064c-1.162,0.077 -2.618,0.25 -3.109,0.369c-0.484,0.118 -0.269,0.122 0.389,0.007c1.103,-0.194 2.712,-0.32 4.248,-0.331c0.29,-0.001 0.561,-0.007 0.794,-0.013c0.07,0.237 0.15,0.463 0.241,0.678l-0.007,0.001c-1.015,0.035 -2.264,0.168 -3.465,0.37c-0.901,0.151 -2.231,0.453 -2.386,0.54c-0.163,0.091 -0.03,0.071 0.668,-0.106c1.273,-0.322 2.928,-0.569 4.978,-0.741l0.229,-0.02c0.44,1.022 1.118,1.802 2.076,2.41c0.586,0.373 1.525,0.756 1.998,0.816c0.13,0.016 0.508,0.094 0.84,0.172c0.333,0.078 0.984,0.195 1.446,0.262l0.011,0c-0.009,0.006 -0.017,0.01 -0.025,0.016c-0.56,0.291 -0.924,0.744 -1.169,1.457c-0.11,0.033 -0.247,0.078 -0.395,0.129c-0.529,0.18 -0.735,0.217 -1.271,0.221c-0.556,0.004 -0.688,-0.02 -1.02,-0.176c-0.483,-0.225 -0.933,-0.639 -1.233,-1.133c-0.501,-0.826 -1.367,-1.41 -2.089,-1.41c-0.617,0 -0.734,0.25 -0.288,0.615c0.672,0.549 1.174,1.109 1.38,1.537c0.116,0.24 0.294,0.611 0.397,0.824c0.109,0.227 0.342,0.535 0.564,0.748c0.522,0.498 1.026,0.736 1.778,0.848c0.504,0.074 0.628,0.074 1.223,-0.002c0.287,-0.035 0.529,-0.076 0.746,-0.127c0,0.244 0,0.525 0,0.855c0,1.766 -0.021,2.334 -0.091,2.5c-0.132,0.316 -0.428,0.641 -0.716,0.787c-0.287,0.146 -0.376,0.307 -0.255,0.455c0.067,0.08 0.196,0.094 0.629,0.066c0.822,-0.051 1.403,-0.355 1.699,-0.891c0.095,-0.172 0.117,-0.518 0.147,-2.318c0.032,-1.953 0.046,-2.141 0.173,-2.42c0.077,-0.166 0.188,-0.346 0.25,-0.395c0.104,-0.086 0.111,0.084 0.111,2.42c-0.001,2.578 -0.027,2.889 -0.285,3.385c-0.058,0.113 -0.168,0.26 -0.245,0.33c-0.135,0.123 -0.192,0.438 -0.098,0.533c0.155,0.154 0.932,-0.088 1.356,-0.422c0.722,-0.572 0.808,-1.045 0.814,-4.461l0.003,-2.004l0.219,0.021l0.219,0.02l0.036,2.621c0.041,2.951 0.047,2.994 0.549,3.564c0.285,0.322 0.572,0.5 1.039,0.639c0.625,0.188 0.813,-0.102 0.393,-0.605c-0.457,-0.547 -0.479,-0.756 -0.454,-3.994c0.017,-2.076 0.017,-2.076 0.151,-1.955c0.282,0.256 0.336,0.676 0.336,2.623c0,2.418 0.069,2.648 0.923,3.07c0.399,0.195 0.511,0.219 1.022,0.221c0.544,0.002 0.577,-0.006 0.597,-0.148c0.017,-0.115 -0.05,-0.193 -0.304,-0.348c-0.333,-0.205 -0.564,-0.467 -0.709,-0.797c-0.055,-0.127 -0.092,-0.959 -0.117,-2.672c-0.036,-2.393 -0.044,-2.502 -0.193,-2.877c-0.201,-0.504 -0.508,-0.902 -0.897,-1.166c-0.101,-0.066 -0.202,-0.121 -0.333,-0.162c0.161,-0.016 0.317,-0.033 0.468,-0.055c1.572,-0.209 2.403,-0.383 3.07,-0.641c1.411,-0.543 2.365,-1.445 2.882,-2.724c0.046,-0.114 0.092,-0.222 0.131,-0.309l0.398,0.033c2.051,0.173 3.706,0.42 4.979,0.743c0.698,0.177 0.831,0.198 0.668,0.105c-0.152,-0.085 -1.482,-0.386 -2.382,-0.537zm-6.014,-0.031c-0.233,0.512 -0.883,1.17 -1.408,1.428c-0.518,0.256 -1.33,0.451 -2.25,0.544c-0.629,0.064 -4.137,0.083 -4.716,0.026c-1.917,-0.188 -2.991,-0.557 -3.783,-1.296c-0.75,-0.702 -1.1,-1.655 -1.039,-2.828c0.039,-0.734 0.216,-1.195 0.679,-1.755c0.421,-0.51 0.864,-0.825 1.386,-0.985c0.437,-0.134 1.778,-0.146 3.581,-0.03c0.797,0.051 1.456,0.051 2.252,0c1.886,-0.119 3.145,-0.106 3.61,0.038c0.731,0.226 1.397,0.834 1.797,1.644c0.18,0.362 0.215,0.516 0.241,1.075c0.036,0.77 -0.097,1.588 -0.35,2.139zm-9.51,-3.306c-1.073,-0.188 -1.686,1.649 -0.863,2.587c0.391,0.445 0.738,0.518 1.172,0.248c0.402,-0.251 0.62,-0.72 0.62,-1.328c0,-0.811 -0.369,-1.407 -0.929,-1.507zm6.513,0.11c-1.073,-0.188 -1.687,1.647 -0.864,2.586c0.392,0.445 0.738,0.519 1.173,0.247c0.401,-0.25 0.62,-0.72 0.62,-1.328c0,-0.808 -0.369,-1.406 -0.929,-1.505zm-2.886,3.612c-0.023,0.074 -0.135,0.184 -0.248,0.243c-0.286,0.147 -0.492,0.096 -0.794,-0.179c-0.187,-0.169 -0.272,-0.258 -0.329,-0.081c-0.053,0.164 0.28,0.493 0.537,0.594c0.236,0.094 0.405,0.097 0.661,-0.01c0.254,-0.106 0.476,-0.391 0.476,-0.576c0,-0.172 -0.247,-0.164 -0.303,0.009zm-0.317,-0.575c0.163,-0.144 0.2,-0.44 0.044,-0.597s-0.473,-0.133 -0.597,0.043c-0.144,0.206 -0.067,0.363 0.036,0.53c0.16,0.124 0.375,0.149 0.517,0.024z" opacity="NaN" stroke="null" fill="url(#svg_20)"/>
  <path stroke="null" id="svg_32" d="m365.00858,168.22714c-16.08512,-2.99387 -32.82651,-4.96507 -46.42051,-5.49864l-2.39737,-0.08893c0.54912,-1.3339 0.9643,-2.23799 1.09823,-2.37138c0.29465,-0.26678 0.53572,-1.39319 0.56251,-2.48995c0,-0.60767 0.24108,-2.57887 0.61608,-5.18739c3.6831,0.14821 8.57159,0.26678 13.90205,0.31124c20.58521,0.17785 42.12133,2.01567 56.89393,4.90579c8.79927,1.71925 11.70558,1.65997 5.20992,-0.08893c-6.57602,-1.76371 -26.07638,-4.35741 -41.61239,-5.48381c-10.43323,-0.78552 -25.39333,-1.08194 -34.206,-0.91891c0.25447,-1.68961 0.54912,-3.57189 0.85716,-5.49864c1.24556,-7.45502 1.66075,-14.95451 1.68753,-29.87938c0.02679,-23.15059 -1.09823,-29.52367 -7.91533,-44.83388c-2.77237,-6.25451 -5.90636,-11.56047 -9.69661,-16.36252c3.3081,-10.8046 3.22774,-27.53764 -0.2009,-42.21055c-2.82595,-12.03475 -3.81704,-12.80545 -13.67436,-10.49335c-8.3573,1.97121 -15.05385,4.65383 -23.63884,9.44105c-4.05811,2.26763 -9.65643,5.79506 -13.71454,8.56661c-10.58056,-4.12027 -21.52273,-6.84736 -33.20152,-8.31465c-11.83951,-1.48211 -40.86237,-0.65213 -51.16168,1.45247c-10.07162,2.06014 -19.13875,4.57973 -27.34873,7.57359c-4.09829,-2.80119 -10.04483,-6.58058 -14.29045,-8.95196c-8.62516,-4.80204 -15.32172,-7.46984 -23.7058,-9.44105c-9.83054,-2.32692 -10.84842,-1.5414 -13.66097,10.49335c-3.48221,14.86558 -3.50899,31.88023 -0.06697,42.65518c0.40179,1.23015 0.64287,2.1046 0.73662,2.78637c-13.95562,19.44531 -18.50928,41.20271 -15.48243,71.57118c0.79019,7.91448 2.00897,15.17683 3.70989,21.83151c-8.90642,-0.05928 -21.5763,0.29642 -30.72379,0.94855c-15.56279,1.14123 -35.06316,3.70528 -41.63918,5.46899c-6.48226,1.74889 -3.60275,1.80818 5.20992,0.10375c14.7726,-2.8753 36.32211,-4.74276 56.89393,-4.90579c3.884,-0.01482 7.51353,-0.10375 10.63413,-0.19267c0.93752,3.51261 2.00897,6.86218 3.22774,10.04872l-0.09375,0.01482c-13.59401,0.51874 -30.322,2.48995 -46.40712,5.48381c-12.06719,2.23799 -29.88003,6.71397 -31.95596,8.0034c-2.18308,1.34872 -0.40179,1.0523 8.9466,-1.57104c17.04943,-4.7724 39.21502,-8.43322 66.6709,-10.98245l3.06702,-0.29642c5.89297,15.14718 14.9735,26.70766 27.80409,35.7189c7.84836,5.52828 20.42449,11.20477 26.75943,12.09403c1.7411,0.23714 6.8037,1.39319 11.25021,2.54923c4.45991,1.15605 13.17882,2.89012 19.36644,3.88313l0.14732,0c-0.12054,0.08893 -0.22768,0.14821 -0.33483,0.23714c-7.50014,4.31295 -12.37523,11.02691 -15.65654,21.59437c-1.47324,0.4891 -3.3081,1.15605 -5.29028,1.91192c-7.08495,2.6678 -9.84393,3.21618 -17.02264,3.27547c-7.44657,0.05928 -9.21446,-0.29642 -13.66097,-2.60852c-6.46887,-3.33475 -12.49577,-9.47069 -16.5137,-16.79233c-6.70995,-12.24224 -18.30838,-20.89778 -27.9782,-20.89778c-8.26355,0 -9.83054,3.70528 -3.85722,9.11499c9.00017,8.13679 15.72351,16.43662 18.48249,22.78006c1.5536,3.55707 3.93757,9.0557 5.31706,12.2126c1.45985,3.36439 4.58044,7.9293 7.55371,11.0862c6.9912,7.38092 13.74133,10.90834 23.81295,12.56831c6.75013,1.09676 8.41087,1.09676 16.37977,-0.02964c3.84382,-0.51874 7.08495,-1.12641 9.99126,-1.88228c0,3.61635 0,7.78109 0,12.67206c0,26.1741 -0.28126,34.59249 -1.21877,37.0528c-1.76789,4.68347 -5.73225,9.50034 -9.58947,11.66422c-3.84382,2.16388 -5.03581,4.55008 -3.41524,6.74361c0.89734,1.18569 2.62505,1.39319 8.42427,0.97819c11.00914,-0.75588 18.79053,-5.2615 22.75489,-13.20562c1.27235,-2.54923 1.56699,-7.67734 1.96879,-34.35535c0.42858,-28.94565 0.61608,-31.73202 2.31701,-35.86711c1.03127,-2.46031 2.5179,-5.12811 3.34828,-5.85434c1.39288,-1.27462 1.48664,1.24497 1.48664,35.86711c-0.01339,38.20884 -0.36161,42.81821 -3.81704,50.16949c-0.7768,1.67479 -2.25004,3.85349 -3.28131,4.89097c-1.80807,1.823 -2.57148,6.49165 -1.31252,7.89966c2.07593,2.28245 12.48238,-1.30426 18.16106,-6.25451c9.66982,-8.47768 10.82163,-15.48807 10.90199,-66.11701l0.04018,-29.70152l2.93309,0.31124l2.93309,0.29642l0.48215,38.84615c0.54912,43.73712 0.62948,44.37443 7.35282,52.82247c3.81704,4.7724 7.66086,7.41056 13.91544,9.47069c8.37069,2.78637 10.8886,-1.51175 5.26349,-8.96678c-6.12065,-8.10715 -6.4153,-11.20477 -6.08047,-59.19555c0.22768,-30.76864 0.22768,-30.76864 2.02236,-28.97529c3.77686,3.79421 4.50008,10.01908 4.50008,38.87579c0,35.83747 0.92412,39.24632 12.36184,45.50084c5.34385,2.89012 6.84388,3.24583 13.68776,3.27547c7.28585,0.02964 7.72782,-0.08893 7.99569,-2.19353c0.22768,-1.70443 -0.66966,-2.86048 -4.07151,-5.15775c-4.45991,-3.03833 -7.55371,-6.92146 -9.49571,-11.81243c-0.73662,-1.88228 -1.23217,-14.21345 -1.56699,-39.60203c-0.48215,-35.46694 -0.5893,-37.08244 -2.58487,-42.64036c-2.69201,-7.46984 -6.8037,-13.36865 -12.01362,-17.28142c-1.3527,-0.97819 -2.70541,-1.79336 -4.45991,-2.40102c2.15629,-0.23714 4.24562,-0.4891 6.26797,-0.81516c21.05397,-3.09761 32.18364,-5.67649 41.11684,-9.50034c18.89768,-8.04787 31.6747,-21.41652 38.59894,-40.37273c0.61608,-1.68961 1.23217,-3.29029 1.7545,-4.57973l5.33046,0.4891c27.46927,2.56405 49.63486,6.22487 66.68429,11.01209c9.34839,2.62334 11.12967,2.93458 8.9466,1.55622c-2.03575,-1.2598 -19.84859,-5.72095 -31.90239,-7.95894zm-80.54616,-0.45945c-3.12059,7.58841 -11.82612,17.34071 -18.8575,21.16456c-6.93763,3.79421 -17.81283,6.68432 -30.13449,8.06269c-8.42427,0.94855 -55.40729,1.23015 -63.1619,0.38535c-25.67459,-2.78637 -40.05879,-8.25536 -50.66613,-19.20817c-10.04483,-10.40443 -14.73242,-24.52895 -13.91544,-41.91412c0.52233,-10.8787 2.89291,-17.71124 9.09392,-26.01106c5.6385,-7.55877 11.57165,-12.22742 18.56285,-14.5988c5.85279,-1.98603 23.81295,-2.16388 47.96072,-0.44463c10.67431,0.75588 19.50037,0.75588 30.16128,0c25.2594,-1.76371 42.12133,-1.57104 48.34912,0.5632c9.79036,3.34957 18.71017,12.36081 24.06742,24.36592c2.41076,5.36525 2.87952,7.6477 3.22774,15.9327c0.48215,11.41226 -1.29913,23.53594 -4.68759,31.70237zm-127.36846,-48.99862c-14.37081,-2.78637 -22.58078,24.44003 -11.55825,38.34223c5.23671,6.5954 9.88411,7.67734 15.69672,3.67564c5.38403,-3.7201 8.30373,-10.67121 8.30373,-19.68245c0,-12.01993 -4.94206,-20.85331 -12.4422,-22.33543zm87.22932,1.63032c-14.37081,-2.78637 -22.59417,24.41038 -11.57165,38.32741c5.2501,6.5954 9.88411,7.69216 15.71012,3.66082c5.37064,-3.70528 8.30373,-10.67121 8.30373,-19.68245c0,-11.97546 -4.94206,-20.83849 -12.4422,-22.30578zm-38.65251,53.53388c-0.30804,1.09676 -1.80807,2.72709 -3.32149,3.60153c-3.83043,2.1787 -6.58941,1.42283 -10.63413,-2.65298c-2.50451,-2.50477 -3.64293,-3.82385 -4.40633,-1.20051c-0.70983,2.43066 3.75007,7.30681 7.1921,8.80374c3.16077,1.39319 5.42421,1.43765 8.85284,-0.14821c3.40185,-1.57104 6.37512,-5.79506 6.37512,-8.53696c0,-2.54923 -3.3081,-2.43066 -4.05811,0.13339zm-4.24562,-8.52214c2.18308,-2.13424 2.67862,-6.52129 0.5893,-8.84821s-6.33494,-1.97121 -7.99569,0.63731c-1.92861,3.05315 -0.89734,5.38007 0.48215,7.85519c2.1429,1.83782 5.02242,2.20835 6.92424,0.35571z" fill="url(#svg_29)"/>
 </g>
</svg>